<svg width="76" height="56" viewBox="0 0 76 56" fill="none" xmlns="http://www.w3.org/2000/svg">
<path d="M0.645989 16.6826C0.645989 10.0599 5.62937 5.23956 15.0936 2.80842C22.3802 0.922192 29.1643 0 35.7809 0C42.9837 0 50.2703 1.04794 58.7714 3.22758C65.8486 5.07189 74.0565 9.30542 74.9359 12.9521C77.0298 21.6288 75.4384 38.018 75.1453 40.1976C74.1821 46.9461 69.6175 51.3892 61.5771 53.4012C55.17 55.036 46.1664 56 37.5397 56C29.7087 56 18.5275 55.2036 9.77519 51.4311C-0.819713 46.8623 -0.0659164 36.4671 0.059719 35.1677L0.604125 16.6407L0.645989 16.6826ZM58.0176 6.28744C49.8097 4.14972 42.7743 3.1437 35.8227 3.1437C29.4574 3.1437 22.9246 4.02396 15.9311 5.82636C12.5391 6.7066 8.05824 8.38324 5.62937 11.485C18.1506 17.1856 30.2531 20.036 41.6855 20.036C46.1245 20.036 50.4378 19.5748 54.458 18.7365C63.001 16.8922 68.4869 13.5808 70.6226 12.1557C68.3612 10.2695 63.4616 7.71259 58.0176 6.28744ZM72.8421 24.0599C72.8421 20.2455 72.5489 17.1437 72.0883 14.7545C69.5338 16.4731 63.8804 19.7006 55.2537 21.5868C50.9404 22.509 46.3758 23.012 41.6436 23.012H41.4761C29.6249 23.012 17.0618 19.994 4.16367 14.1677C3.91241 15.006 3.78677 15.8443 3.78677 16.7665L3.66113 20.5389C3.66113 20.5389 3.91241 20.5389 4.03804 20.5389C5.58749 20.5389 7.17882 20.5389 8.56076 21.2096C10.4871 22.0898 11.6178 23.8503 12.6647 25.527C13.5441 26.9102 14.3817 28.2096 15.638 29.0898C17.2712 30.2216 19.1557 30.8084 21.1658 30.8084C23.9296 30.8084 27.0285 29.6767 29.8762 27.6228C32.0119 26.1138 33.8545 25.1078 36.074 25.1078C36.744 25.1078 37.4559 25.1916 38.1678 25.4012C40.4292 26.0299 42.0624 27.5389 43.6119 29.006C44.1144 29.4671 44.5751 29.8862 45.0776 30.3054C46.8783 31.8144 48.4696 32.5689 49.9353 32.5689C52.4898 32.5689 54.4999 30.2216 56.5938 27.7485C57.3894 26.8263 58.1851 25.8623 59.0645 24.982C60.5302 23.515 61.9122 22.8863 63.6291 22.8863C64.006 22.8863 64.3829 22.8862 64.8017 22.9701C65.9324 23.1377 66.9374 23.5988 67.9006 24.0599C68.5287 24.3533 69.1569 24.6467 69.7851 24.8144C70.7901 25.1497 71.7952 25.2754 72.7164 25.3174V24.1856M11.0315 48.5808C19.3232 52.1437 30.0018 52.8982 37.4978 52.8982C45.8732 52.8982 54.5837 51.9761 60.7815 50.3832C67.4399 48.7066 71.2089 45.1437 72.0045 39.7785C72.1302 38.982 72.4652 35.5868 72.6746 31.3533C72.7583 30.2215 72.8002 28.7545 72.8002 27.3713C71.2508 27.2455 69.7432 26.7006 68.2775 26.1976C66.728 25.6527 65.3042 25.1078 63.8804 25.1078C62.6659 25.1078 61.6609 25.485 60.6977 26.3652C59.567 27.3293 58.7295 28.5449 57.892 29.6766C56.3006 31.8563 54.7093 34.0778 51.3173 34.7485C50.7728 34.8743 50.2703 34.9162 49.7678 34.9162C46.9202 34.9162 45.0776 33.1976 43.1094 31.3952C42.9 31.1857 42.6487 30.9761 42.3974 30.7665C40.5548 29.1317 38.4191 27.3293 35.9065 27.3293C35.2365 27.3293 34.5664 27.4551 33.8964 27.7066C32.7657 28.1257 31.7607 28.8802 30.7137 29.6766C29.7924 30.3892 28.8711 31.1437 27.7823 31.6048C25.8141 32.527 23.6365 32.988 21.5008 32.988C20.0351 32.988 18.6113 32.7784 17.2712 32.3174C14.1723 31.2695 12.8322 29.2994 11.4084 27.2036C10.6965 26.1976 9.98457 25.1078 9.0214 24.1018C7.5557 22.5928 5.62936 22.467 3.57738 22.2994V23.1797C3.40987 24.7306 3.57738 25.6108 3.45175 26.6168L3.2005 35.4192V35.5449C3.2005 35.5449 2.11169 44.7665 10.9896 48.5808" fill="white"/>
</svg>
