<svg width="35" height="15" viewBox="0 0 35 15" fill="none" xmlns="http://www.w3.org/2000/svg">
<path d="M26.9287 0.292747C27.3191 -0.0976781 27.9522 -0.0974804 28.3428 0.292747L34.707 6.65701C35.0976 7.04753 35.0976 7.68054 34.707 8.07107L28.3428 14.4353C27.9522 14.8256 27.3191 14.8258 26.9287 14.4353C26.5383 14.0449 26.5385 13.4118 26.9287 13.0213L31.5859 8.36404L0.999999 8.36403C0.447714 8.36403 -6.92067e-07 7.91632 -6.43784e-07 7.36403C-5.95502e-07 6.81175 0.447715 6.36403 0.999999 6.36403L31.5859 6.36404L26.9287 1.70681C26.5385 1.31626 26.5383 0.683173 26.9287 0.292747Z" fill="#FF4400"/>
</svg>
