<svg width="109" height="114" viewBox="0 0 109 114" fill="none" xmlns="http://www.w3.org/2000/svg">
<path d="M24.2781 87.7765C25.3754 88.5738 26.5337 89.9844 26.4117 92.8058C26.2898 94.8912 25.3754 99.3072 22.3883 103.907C20.3765 106.974 17.4503 110.47 14.4632 112.739C13.8536 113.169 13.244 113.475 12.5124 113.721C10.9884 114.273 9.40336 113.598 8.73277 111.697C8.61085 111.267 8.42796 111.022 7.8793 111.267C6.29429 112.065 4.8922 111.329 4.70931 109.673C4.64835 108.814 4.58735 108.937 4.16062 109.121C3.42908 109.489 2.81946 109.734 2.20984 109.55C0.929636 109.182 0.259089 107.342 0.137163 106.115C-0.0457211 104.153 -0.0457211 102.313 0.137163 100.473C0.502932 97.2832 3.2462 89.4324 4.40448 86.4884C5.62372 83.483 8.97663 81.5817 12.8172 83.115C13.4878 83.3603 13.8536 83.4218 14.4022 82.6858C16.2311 79.9871 21.2909 65.8802 22.1444 64.5308C23.1808 62.6908 22.9369 62.7521 21.8396 61.3414C19.645 58.5201 17.1455 55.4534 15.3776 52.3867C11.9028 46.376 12.4515 40.0585 15.5605 33.9865C19.645 26.1357 24.9487 19.021 31.4106 13.0103C34.2759 10.3116 36.4705 9.02352 39.7624 7.24483C41.6522 6.26348 41.6523 5.89549 42.8715 4.36214C43.1763 3.9328 44.1517 2.82871 44.4565 2.39937C46.1634 0.314011 49.0896 -0.851261 51.8329 0.743425C53.174 1.47943 53.6008 3.38077 52.8692 4.73012C52.5644 5.28213 52.3816 5.6501 51.7719 6.26344C52.9302 6.50878 54.6371 6.87687 55.4906 7.06087C57.4414 7.42887 57.6243 7.12216 58.3558 6.01814C59.7579 3.93279 62.806 3.93279 64.2082 6.01814C64.513 6.50882 64.513 7.30617 64.3911 7.91951C64.2082 8.71685 63.7205 9.45286 63.2937 10.3115C63.5985 10.4955 63.8424 10.6182 64.1472 10.8022C64.3911 10.9249 64.6959 11.1702 64.9397 11.1089C66.098 9.39155 68.5365 9.7596 70.3044 10.9249C71.6455 11.7836 72.499 12.8876 71.7065 14.9729C78.839 19.2663 83.4721 26.0744 88.1662 32.6372C92.6774 38.9546 97.3105 44.4133 103.468 49.1973C104.382 49.9333 105.845 51.2214 106.699 52.0187C108.771 54.104 109.198 56.7414 108.04 59.4401C106.882 62.2001 105.175 64.8988 103.59 67.4135C100.298 72.5042 96.7619 77.411 93.1651 82.2564C91.3972 84.6484 89.3245 87.2245 86.5203 88.6351C83.3502 90.2298 80.1192 89.6778 76.5225 88.8191C70.0605 87.3471 63.9034 85.0164 57.9291 82.1951C51.4061 79.067 44.8223 75.939 38.4212 72.627C35.1903 70.9709 32.386 68.9469 29.0331 67.0455C28.4845 66.6162 28.1187 67.0455 27.9358 67.5975C26.4118 70.8483 23.3636 81.1524 21.7786 84.5258C21.5957 84.8938 21.0471 85.6911 22.0225 86.3657C22.6931 86.7951 23.6685 87.1632 24.3391 87.6538M9.46431 109.673C9.76912 109.979 10.9884 108.814 11.3541 108.446C17.0846 101.883 19.0963 95.0752 19.3402 91.1498C19.5231 87.9604 19.584 85.5684 17.6942 92.1925C16.5969 95.9339 13.183 103.233 10.3788 107.833C10.1349 108.262 9.09854 109.427 9.40335 109.673M12.7563 84.9551C10.5616 84.0351 8.00122 83.9737 6.47717 87.2858C5.74563 88.8191 3.00235 96.3631 2.39273 99.0005C1.90504 101.331 1.41733 103.907 1.72214 106.177C1.7831 106.729 2.20985 107.771 2.88043 107.894C3.7339 108.017 4.16065 106.851 4.46546 106.177C5.68469 103.294 8.30603 95.6272 9.46431 92.7445C10.3787 90.5365 11.2322 88.7578 12.6953 87.1631C13.9146 85.8138 13.244 85.0778 12.8172 84.8938M13.3049 89.4938C10.8664 93.6032 7.81835 102.497 6.41623 106.606C5.44084 109.55 6.41621 109.857 7.14775 109.55C9.22046 108.63 14.8899 95.5046 16.2921 91.0885C16.9017 89.1872 17.8161 87.1017 17.1455 86.5497C16.1702 85.691 15.0728 86.5498 13.3049 89.4938ZM46.6511 2.70607C45.7977 3.44208 45.0052 4.42346 44.2736 5.4048C42.9325 7.06082 44.2736 6.69281 45.0661 6.57015C46.4073 6.38614 47.6875 6.14076 48.8458 6.14076C50.065 6.14076 51.711 4.66878 51.5281 3.50343C51.1623 0.86607 48.2361 1.35679 46.5901 2.76747M59.4531 6.75417C59.2702 7.06084 59.0264 7.42883 58.7825 7.79683C58.3558 8.53284 58.7826 8.5328 58.9655 8.65547C59.3922 8.83947 59.8189 9.08481 60.1847 9.20747C60.6114 9.39148 61.0381 9.51413 61.5258 9.69814C61.7087 9.75947 62.0745 10.0048 62.4403 9.20747C62.6841 8.77814 62.867 8.34885 63.0499 7.91951C63.1718 7.61284 63.2938 7.24478 63.2328 6.81545C62.9889 5.4661 60.5504 5.22076 59.5751 6.81545M67.0124 11.1702C67.0124 11.1702 66.159 11.1702 66.037 11.4769C65.9151 11.7836 66.4638 12.0902 66.7076 12.2129C67.8659 12.9489 69.268 13.6849 70.3653 14.2982C70.7921 14.5436 70.7921 13.8075 70.7921 13.8075C70.4263 12.3355 68.7803 11.2315 66.9514 11.1702M89.6293 83.7284C94.0186 79.6804 103.651 64.4695 106.089 59.4401C107.308 56.9867 106.638 54.7174 104.687 52.816C104.26 52.3867 103.772 52.0187 103.346 51.5894C100.115 48.584 96.518 45.8853 93.7138 42.5119C89.3245 37.3599 85.301 32.0238 81.2775 26.565C78.2294 22.517 75.0594 18.6529 70.6092 16.1995C66.159 13.6848 61.4649 11.7835 56.8318 9.51418C54.6371 8.41016 52.6254 8.77814 50.7356 9.88216C49.6382 10.4955 48.7238 11.4155 47.9923 12.3969C44.1517 16.2609 42.1399 20.4317 39.2747 24.4184C36.1657 28.7118 34.2758 33.3117 32.7518 38.3411C30.862 44.5972 30.801 49.9334 35.4951 54.9014C37.141 56.6188 38.9699 58.2747 40.9207 59.5628C46.834 63.3655 52.6863 67.0455 58.7825 70.6029C63.6595 73.4856 68.8413 76.123 73.7792 78.8217C77.6198 80.9684 81.1556 82.6244 84.8743 84.9551C87.3128 86.4884 88.4101 84.7711 89.6903 83.6057M29.3379 61.1574C29.5818 60.6054 29.9475 60.0535 30.2524 59.8695C30.74 59.6241 31.4106 59.9921 31.4106 60.4827C31.4106 60.9121 31.0449 61.5868 30.6181 62.1388C31.4106 62.5068 32.2641 62.5681 32.6908 61.9548C33.6662 60.5441 29.7646 58.3974 28.9721 59.8081C28.7283 60.2374 28.9721 60.7281 29.3379 61.1574ZM29.2769 58.3361C29.2769 58.3361 29.7647 58.2748 29.8866 58.2135C31.4716 58.2135 33.0566 59.1947 33.8491 60.4827C34.2149 61.0347 34.2149 62.0775 33.971 62.5682C33.6662 63.0589 33.2395 63.5495 32.0812 63.6109C31.6545 63.6109 31.0449 63.5495 30.4352 63.2429C30.2524 63.2429 30.1914 63.0589 30.0695 63.2429C29.3379 64.2242 29.277 64.8375 30.1914 65.5735C32.2031 66.8615 33.8491 68.1496 35.9218 69.3149C41.5303 72.3203 47.3217 75.3256 53.1131 78.0243C58.9045 80.723 64.3301 83.4218 70.7921 85.5685C74.5717 86.8565 77.9856 87.8378 82.07 87.6538C86.6422 87.5312 83.777 86.4885 83.0454 86.1205C80.1193 84.5871 77.6808 83.3605 74.9375 81.8884C70.3044 79.3737 65.9761 76.6749 61.4039 74.0989C58.2339 72.3202 54.9419 70.7256 51.8329 68.8856C46.4073 65.6962 40.5549 62.6909 35.7999 58.4588C30.5572 53.7361 28.1796 48.4 29.6427 41.1626C30.74 35.9492 32.6299 30.5517 35.4951 26.013C37.7507 22.3943 40.0672 18.5916 42.6276 15.1569C44.8223 12.2128 46.7121 9.94353 50.2479 8.47151C50.5527 8.34884 50.5527 8.2262 50.1869 8.10353C49.4554 7.91953 48.7848 7.98079 48.1142 7.98079C42.6886 8.16479 38.787 9.51419 34.7026 13.1942C31.8374 15.7703 29.0331 18.1622 26.5337 21.1063C22.6931 25.7063 19.4011 30.6131 16.9017 36.1331C14.5851 41.2852 14.4632 46.3146 17.2675 51.2827C18.8525 54.104 23.1808 60.1761 23.4856 60.4215C23.7904 60.7895 23.9733 60.6055 24.0952 60.4215C24.2171 60.2375 24.2781 60.0535 24.3391 59.9308C24.5829 59.5628 24.2171 59.3788 24.0342 59.2561C23.9733 59.2561 23.8514 59.0722 23.7904 59.0108C22.9979 58.2135 23.4246 57.4774 23.6685 56.9868C24.0342 56.3734 24.8877 56.1281 25.5583 55.9441C26.5946 55.6988 28.1797 56.1894 28.9112 57.416L29.2769 58.2135M26.3508 59.9308C26.7775 60.1148 27.1433 60.1762 27.5091 60.1762C27.5091 59.8082 27.631 59.4401 27.7529 59.1948C27.8748 59.0108 28.0577 58.8268 28.3016 58.7041C27.6919 57.1094 25.3144 56.7414 24.7658 57.7227C24.5829 58.0907 24.7658 58.5815 25.0706 59.0108C25.3144 58.5201 25.6192 57.9681 25.924 57.7841C26.4117 57.5388 27.0214 57.9067 27.0214 58.3974C27.0214 58.8268 26.6556 59.4402 26.2898 59.9922M27.8748 63.9788C27.8748 63.9788 28.4845 63.1201 28.6673 62.6295C28.7283 62.5068 28.9112 62.2001 28.6064 61.9548C28.4845 61.8935 28.3625 61.7708 28.1797 61.6481C27.9968 61.5255 27.8748 61.1575 27.7529 61.0349C27.3262 61.1575 26.6556 61.0348 26.107 60.7894C25.6802 60.6668 25.8021 60.7281 25.5583 60.9735C25.4364 61.1575 25.3144 61.4028 25.1925 61.6481C25.1315 61.7708 24.9487 61.9548 25.4364 62.3842C25.8631 62.8135 26.6556 63.4268 27.0823 63.8562C27.5091 64.2855 27.7529 64.1628 27.8748 64.0402M26.4727 66.8616C26.5946 66.5549 27.2043 66.2482 26.6556 65.8802C26.046 65.3895 25.4973 64.8988 24.8877 64.4695C24.2171 63.7948 24.0952 64.5922 23.8514 65.0828C22.6931 67.4749 18.4257 79.803 16.5969 83.115C16.2921 83.7283 15.5605 84.6484 16.2921 84.5258C17.6332 84.3418 18.06 84.771 19.0354 85.1391C19.4621 85.3231 19.4621 85.139 19.8279 84.3417C21.3519 80.723 24.6439 70.4189 26.4117 66.8002M21.291 90.5978C21.7177 94.4618 18.3648 104.398 11.598 110.163C10.9884 110.654 10.3178 111.022 10.4397 111.635C10.6226 112.494 11.2932 112.494 12.0247 112.126C12.8172 111.758 13.6097 111.329 14.2194 110.715C22.4492 102.497 24.1562 96.486 24.2171 92.3766C24.2171 91.1499 24.339 90.1684 23.3636 89.3711C22.4492 88.6964 20.9252 87.8991 21.23 90.5978" fill="white"/>
<path d="M49.5159 50.795C46.041 47.2376 45.7362 40.8588 48.1137 36.0747C50.9789 30.248 57.8067 21.3545 60.9767 19.0852C62.5007 17.9811 65.4879 16.6931 72.9252 22.1519C76.4001 24.6666 79.9359 27.2426 82.4353 30.6773C86.9465 36.9947 92.0673 43.1281 97.6149 48.5255C101.943 52.7576 102.98 58.5843 100.114 64.043C98.895 66.3124 96.9443 69.1951 95.4202 71.2191C94.079 72.9978 91.8234 73.4886 89.6288 73.3046C86.154 72.9366 83.1059 71.5258 80.1187 69.8698C75.3637 67.2324 58.965 57.3577 55.6121 55.0883C53.8442 53.923 51.0399 52.2056 49.5768 50.7336M81.5209 68.6431C84.0203 70.0538 86.7636 70.9739 89.6898 71.2805C91.5796 71.4645 93.2256 70.9739 94.3229 69.4405C95.6031 67.7232 96.7614 65.9445 97.7368 64.1044C100.663 58.6457 100.114 53.7389 95.9079 49.7522C90.6042 44.6615 85.9711 39.0801 81.7038 33.0694C78.3509 28.408 74.3274 24.5439 69.2066 21.9066C64.5735 19.4532 62.3179 19.5759 59.2698 23.5626C56.2217 27.5494 53.2955 31.6587 50.6741 35.8908C47.3212 41.3495 48.8453 47.6056 54.088 51.163C58.3554 54.107 76.583 65.883 81.5209 68.6431Z" fill="white"/>
<path d="M65.4267 28.6522C78.4116 29.3269 90.604 60.1778 90.9088 60.9752C92.3719 64.9619 89.9335 67.1086 87.3731 66.5566C86.6415 66.3726 85.91 66.066 85.2394 65.698C81.094 63.2446 63.1102 50.2417 60.245 45.7644C53.9659 36.0736 61.9519 28.4682 65.4267 28.6522Z" fill="white"/>
<path d="M26.5333 33.1308C26.96 33.1308 27.5696 33.2534 27.9354 33.5601C28.2402 33.8054 27.7525 33.9895 27.6306 33.9895C27.0209 34.2348 26.2894 34.2961 25.6798 34.3574C25.6798 34.3574 25.6798 34.3574 25.6188 34.3574C24.7044 34.3574 22.4488 33.9894 20.498 33.8667C20.0713 33.8667 19.4007 33.8668 18.974 33.6215C18.6691 33.3761 19.1568 33.1921 19.2788 33.1921C19.8884 32.9468 20.6199 32.8854 21.2295 32.8241C22.083 32.7627 24.5215 33.0081 26.5333 33.1921" fill="white"/>
<path d="M29.4593 28.6526C29.4593 28.6526 29.4593 28.6526 29.3983 28.6526C28.4839 28.6526 26.1064 28.2846 24.0337 28.1619C23.6069 28.1619 22.8754 28.1619 22.4487 27.9165C22.0829 27.6712 22.6315 27.4873 22.7535 27.4873C23.3631 27.2419 24.3994 26.9965 25.0091 26.9352C25.8625 26.8739 28.1181 27.3032 30.1908 27.4259C30.6176 27.4259 31.3491 27.5486 31.7758 27.8552C32.1416 28.1006 31.5929 28.2846 31.471 28.2846C30.8614 28.5299 30.0689 28.5913 29.4593 28.6526Z" fill="white"/>
<path d="M24.0337 35.8269C24.3995 35.8269 24.8872 36.0108 25.192 36.2561C25.4968 36.5015 25.07 36.6854 24.9481 36.7468C24.4604 36.9921 23.8508 37.1148 23.3631 37.1762C22.6316 37.2375 20.6808 36.8695 19.0958 36.8081C18.73 36.8081 18.1814 36.8694 17.8156 36.6241C17.5108 36.3788 17.9375 36.1948 18.0594 36.1334C18.5471 35.8881 19.1567 35.7655 19.6444 35.7041C20.315 35.5814 22.3877 35.7042 24.0947 35.8269" fill="white"/>
<path d="M30.7397 25.585C30.0081 25.6464 28.0573 25.2783 26.4723 25.2169C26.1065 25.2169 25.5579 25.2783 25.1921 25.033C24.8873 24.7876 25.314 24.6036 25.436 24.5423C25.9237 24.297 26.4723 23.9904 26.96 23.929C27.6306 23.8064 29.6423 24.1743 31.2883 24.297C31.6541 24.297 32.2637 24.4197 32.6295 24.665C32.9343 24.9103 32.5075 25.0943 32.3856 25.1557C31.8979 25.401 31.2883 25.5237 30.8006 25.585" fill="white"/>
<path d="M20.4974 30.7977C20.0707 30.5523 20.6803 30.3683 20.8632 30.307C21.5948 30.0616 22.6311 29.8164 23.4236 29.755C24.46 29.6324 27.2033 29.939 29.7027 30.0617C30.2514 30.0617 31.1658 30.307 31.6535 30.6137C32.0802 30.859 31.4706 31.0431 31.2877 31.1044C30.5562 31.3497 29.6417 31.411 28.8492 31.4724C28.8492 31.4724 28.8492 31.4724 28.7883 31.4724C27.691 31.5337 24.8257 31.1043 22.4482 30.9816C21.8996 30.9816 21.0461 30.9817 20.5584 30.7363" fill="white"/>
</svg>
