<svg width="27" height="27" viewBox="0 0 27 27" fill="none" xmlns="http://www.w3.org/2000/svg">
<path d="M13.3845 0C5.99229 0 0 5.89826 0 13.1744C0 20.4506 5.99229 26.3489 13.3845 26.3489C20.7767 26.3489 26.7689 20.4506 26.7689 13.1744C26.7683 5.89826 20.776 0 13.3845 0ZM17.3497 12.1519L17.1267 13.9144C17.089 14.2089 16.8357 14.4303 16.5352 14.4303H13.6351V21.7993C13.3292 21.8265 13.0193 21.8405 12.7061 21.8405C12.0055 21.8405 11.3217 21.7715 10.6608 21.6402V14.4303H8.43031C8.22551 14.4303 8.05844 14.2652 8.05844 14.063V11.8575C8.05844 11.6553 8.22551 11.4902 8.43031 11.4902H10.6608V8.18263C10.6608 6.15289 12.3255 4.50774 14.3795 4.50774H16.9819C17.1867 4.50774 17.3537 4.67285 17.3537 4.8751V7.08056C17.3537 7.2828 17.1867 7.44792 16.9819 7.44792H15.1225C14.3013 7.44792 13.6358 8.10571 13.6358 8.918V11.4908H16.7589C17.1173 11.4908 17.3942 11.8012 17.3504 12.1526L17.3497 12.1519Z" fill="#FFAC06"/>
</svg>
