<svg width="27" height="27" viewBox="0 0 27 27" fill="none" xmlns="http://www.w3.org/2000/svg">
<path d="M13.3908 10.7913C12.0569 10.7913 10.9696 11.8615 10.9696 13.1745C10.9696 14.4874 12.0569 15.5576 13.3908 15.5576C14.7247 15.5576 15.812 14.4874 15.812 13.1745C15.812 11.8615 14.7247 10.7913 13.3908 10.7913Z" fill="#FFAC06"/>
<path d="M13.3845 0C5.99229 0 0 5.89826 0 13.1744C0 20.4506 5.99229 26.3489 13.3845 26.3489C20.7767 26.3489 26.7689 20.4506 26.7689 13.1744C26.7683 5.89826 20.776 0 13.3845 0ZM20.4048 16.7485C20.4048 18.5906 18.887 20.0846 17.0156 20.0846H9.75272C7.88127 20.0846 6.36349 18.5906 6.36349 16.7485V9.59967C6.36349 7.75758 7.88127 6.26362 9.75272 6.26362H17.0156C18.887 6.26362 20.4048 7.75758 20.4048 9.59967V16.7485Z" fill="#FFAC06"/>
<path d="M16.7736 7.4549H9.99512C8.65855 7.4549 7.57395 8.52249 7.57395 9.83808V16.5102C7.57395 17.8258 8.65855 18.8933 9.99512 18.8933H16.7736C18.1101 18.8933 19.1948 17.8258 19.1948 16.5102V9.83808C19.1948 8.52249 18.1101 7.4549 16.7736 7.4549ZM13.3911 16.7482C11.3869 16.7482 9.76 15.1468 9.76 13.1741C9.76 11.2014 11.3869 9.60003 13.3911 9.60003C15.3953 9.60003 17.0222 11.2014 17.0222 13.1741C17.0222 15.1468 15.3953 16.7482 13.3911 16.7482ZM17.2647 10.0761C16.8645 10.0761 16.5385 9.75519 16.5385 9.36131C16.5385 8.96743 16.8645 8.64649 17.2647 8.64649C17.6649 8.64649 17.9909 8.96743 17.9909 9.36131C17.9909 9.75519 17.6649 10.0761 17.2647 10.0761Z" fill="#FFAC06"/>
</svg>
