<svg width="261" height="130" viewBox="0 0 261 130" fill="none" xmlns="http://www.w3.org/2000/svg">
<path d="M71.6454 79.1172V79.0844C72.6917 82.9663 74.3772 85.6763 75.9781 87.5203C77.5064 89.2842 79.3992 90.6956 81.5257 91.6572C83.6523 92.6189 85.9621 93.1079 88.296 93.0905C92.4538 93.0905 96.6581 91.6481 100.464 88.919C102.745 87.5148 104.313 84.4361 106.168 82.2861C106.285 82.1468 106.408 82.0129 106.528 81.8572C110.981 88.4136 117.928 90.2385 121.348 91.0826C122.27 91.2644 123.21 91.3351 124.149 91.293C128.913 91.293 134.314 90.3969 138.873 87.0914C140.712 85.9147 142.425 84.5516 143.984 83.0237C144.134 84.0445 144.67 84.9688 145.482 85.6053C148.402 87.9028 151.672 89.1184 154.931 89.1184C157.465 89.1239 159.941 88.3619 162.034 86.933C162.293 86.7964 162.547 86.6598 162.799 86.4959C165.326 88.4874 168.462 89.5501 171.95 89.5501C172.434 89.5501 172.926 89.5282 173.415 89.4845C178.299 89.0611 183.711 87.8454 188.115 84.6519C192.862 81.5912 196.768 77.3914 199.476 72.4351C199.531 72.3395 199.583 72.2439 199.635 72.1619C200.886 77.0792 202.913 80.2154 205.423 82.5074C209.518 86.2837 214.895 88.3627 220.465 88.3235C226.128 88.3235 232.021 86.2964 237.069 82.6167C242.79 78.9287 247.092 73.6152 249.207 67.6407C250.846 63.4856 252.059 57.3663 250.991 51.6595C253.13 48.9577 254.52 45.9909 255.045 42.9777L255.069 42.8302C255.575 39.134 255.372 34.6702 254.763 33.9462C254.23 33.2725 253.614 32.6686 252.93 32.1487C252.144 31.55 251.165 31.2618 250.18 31.3389C249.195 31.416 248.273 31.853 247.589 32.5667C247.354 32.8098 247.117 33.0639 246.874 33.3261C245.486 34.8122 243.074 36.7655 241.443 37.3446C240.638 37.0351 239.803 36.8125 238.951 36.6808C238.463 36.6107 237.97 36.576 237.476 36.577H237.454C236.476 33.9217 231.944 32.3727 230.81 31.9629L230.649 31.9083C229.095 31.4315 227.478 31.1947 225.852 31.2062C225.486 31.2062 225.112 31.2199 224.738 31.239C224.65 31.239 224.565 31.239 224.464 31.239C224.226 31.2394 223.989 31.2605 223.754 31.3018L223.626 31.3264C222.914 31.4033 222.206 31.5163 221.506 31.6652L221.295 31.7007C221.295 31.7007 221.003 31.7608 220.509 31.8864L220.236 31.9356H220.159C216.691 32.735 213.42 34.2223 210.537 36.3093C207.172 38.7679 203.916 42.3439 200.768 45.8106C200.719 45.8625 200.673 45.9171 200.626 45.969C197.824 37.3255 190.622 35.0417 183.877 35.0417C182.646 35.0369 181.418 35.1661 180.214 35.4269C179.941 35.4815 179.643 35.5498 179.356 35.6263L183.126 19.5085C184.708 12.7117 182.886 8.58113 181.077 6.30004C179.438 4.24843 176.094 0.249023 170.453 0.249023C168.754 0.249023 166.853 0.710703 165.205 1.09316C164.539 1.2079 161.627 2.31429 160.561 4.22384C159.971 5.27287 160.266 6.49127 160.561 7.6605C162.67 16.457 159.488 24.1635 158.575 27.5756C157.167 32.5741 154.744 37.2292 151.459 41.2512C150.54 42.3744 149.499 43.3923 148.355 44.2862C148.066 44.4611 147.79 44.6113 147.536 44.7452C146.028 43.8928 144.362 43.3582 142.64 43.1744C142.479 42.366 142.09 41.6207 141.518 41.0272C141.1 40.5873 137.229 36.7409 130.623 36.7409C128.747 36.7503 126.884 37.0489 125.099 37.626C124.739 37.7408 124.384 37.8746 124.031 38.0112C122.688 38.3881 121.381 38.8826 120.125 39.4891C122.374 35.1905 123.749 30.4885 124.17 25.6551C125.053 16.1838 120.529 6.76719 112.424 5.07345C110.805 4.74372 109.158 4.57987 107.506 4.58445C107.096 4.58445 106.687 4.58445 106.269 4.6145C106.138 4.6145 106.009 4.59538 105.878 4.59538H105.692C95.3386 5.07618 86.9792 11.0316 81.8516 21.1066C81.3789 22.0409 80.7288 23.5653 79.972 25.5349C80.0349 21.011 80.0841 17.5033 77.5953 13.8508C74.5657 9.40341 68.3481 4.07086 55.9537 3.94246H55.4675C46.8676 3.94246 38.6148 6.27819 30.9301 10.8841C18.5358 17.5798 8.346 29.8048 3.66363 43.6006C-0.477837 55.8064 -2.34641 72.9651 4.84105 84.5262C9.37044 91.782 16.6289 95.7732 25.2861 95.7732C31.4847 95.7732 37.9892 92.3256 44.2915 88.5284C43.9965 90.0964 43.7233 91.4951 43.5293 92.3939C41.9476 99.7016 39.5572 106.053 36.1097 108.785C34.8745 109.497 33.5264 109.992 32.1239 110.249L32.0556 110.263C31.2601 110.427 30.4501 110.51 29.6379 110.511C26.9525 110.511 24.972 109.572 24.2016 108.643C23.8464 108.214 25.8079 105.952 25.9117 105.414C26.0204 104.833 25.9999 104.235 25.8515 103.663C25.7031 103.091 25.4306 102.559 25.0532 102.104C24.6759 101.649 24.203 101.283 23.6682 101.032C23.1333 100.78 22.5497 100.65 21.9587 100.65C21.2962 100.683 20.6466 100.845 20.0465 101.128C12.2553 104.337 10.1763 111.145 11.2144 116.756C12.441 123.389 18.1451 128.697 26.1658 129.727C27.6478 129.908 29.1393 129.999 30.6323 130C35.9348 130 40.9887 128.869 45.2504 126.722C47.2041 125.74 49.076 124.602 50.8479 123.321C62.1659 115.926 65.6354 105.474 68.2197 95.4016C69.3288 91.0307 70.4516 85.2365 71.6427 79.109M222.044 63.1714C222.56 60.3194 225.869 53.2767 227.174 50.4247L227.256 50.564C228.423 52.5227 233.19 55.0169 235.151 55.2081C235.132 55.6862 233.291 62.5704 233.141 63.2179C232.111 67.9248 226.164 69.2771 223.396 71.6866C223.059 71.8694 222.686 71.9767 222.304 72.0007C222.223 72.0016 222.142 71.9924 222.063 71.9734C221.828 71.5691 220.924 69.4929 222.063 63.1769M173.111 64.3352C174.051 60.6527 178.744 51.949 181.017 49.657C181.086 49.6353 181.158 49.6233 181.23 49.6215C181.87 50.5859 183.992 59.1338 182.839 63.3108C181.591 67.4249 176.829 73.5333 172.794 72.1865C172.626 72.2663 172.449 72.3259 172.267 72.3641C172.051 71.3833 171.964 68.911 173.087 64.3352M130.47 57.4837C131.238 58.347 133.939 59.366 135.024 59.7266C134.371 63.9664 130.801 72.3777 128.828 74.7517C128.741 74.1179 126.072 73.241 126.159 72.0772C126.498 67.5861 129.323 60.8494 130.47 57.4919M93.3171 71.5992C93.4951 68.8259 93.8814 66.0699 94.4726 63.3545C94.5655 62.8846 95.579 59.784 95.6856 59.2403C99.5703 57.6586 105.171 54.8994 108.618 52.3479C107.932 54.058 107.394 59.8222 106.952 61.6908C103.805 68.2718 101.81 71.6347 99.043 74.0086C98.8245 74.0933 94.7431 74.6151 94.5573 74.6151C94.4342 74.6211 94.3113 74.5997 94.1975 74.5525C94.0836 74.5052 93.9817 74.4333 93.899 74.3419C93.4427 73.8502 93.2215 72.8312 93.3116 71.6101M49.9464 62.1033C49.3208 63.5348 48.9083 65.7394 48.3947 68.6979C48.3019 69.2225 48.209 69.7524 48.1216 70.2114C42.5131 75.1287 37.2406 77.8059 33.1811 77.8059C32.498 77.8088 31.8172 77.7272 31.1541 77.5628C25.7533 76.175 26.2231 63.767 27.6737 57.4318C30.7826 43.7044 37.4783 31.1188 45.6219 23.7264C45.9989 23.3986 46.4142 23.0626 46.895 22.702C49.1269 21.3006 51.3943 20.4974 53.129 20.4974C53.4705 20.4918 53.8113 20.5313 54.1425 20.6149C54.4977 20.705 55.4292 20.9454 55.9018 23.0735C56.847 27.3243 54.8091 33.7577 51.6839 36.506C51.4946 36.6337 51.3164 36.7772 51.1512 36.9349C50.9657 37.0691 50.7713 37.1905 50.5693 37.2982C50.0061 37.5934 49.521 38.018 49.1539 38.5371C48.7868 39.0562 48.5481 39.6551 48.4574 40.2844C48.3667 40.9138 48.4267 41.5556 48.6324 42.1573C48.838 42.7589 49.1835 43.3032 49.6405 43.7453C52.7177 46.7678 56.8555 48.466 61.1688 48.4769C64.8443 48.4665 68.4144 47.2474 71.3285 45.0074C73.3637 43.7727 78.4695 37.5086 79.9666 35.5143C79.0951 38.3718 77.833 46.5263 77.0517 49.5259C76.7949 49.5068 73.6041 48.9358 73.2927 48.9358C72.8146 48.9167 72.3147 48.9058 71.7957 48.9058C61.4147 48.9058 53.6645 53.5909 49.941 62.1005" fill="#095093"/>
<path d="M256.812 79.7832C256.165 78.2233 254.627 76.576 252.906 76.8273C251.354 77.0541 250.346 78.267 249.573 79.6247C248.8 80.9824 247.934 83.3619 242.639 86.9816C238.197 90.0194 231.166 92.06 219.46 93.3194C206.893 94.2291 186.678 95.2317 167.631 95.2317C162.187 95.2317 101.521 94.0871 80.1988 100.999C69.6567 104.419 63.0811 113.415 66.0397 125.479C68.1514 131.431 71.2302 128.21 72.0306 127.497C81.9035 118.693 89.3505 116.668 93.8553 115.33C109.779 110.601 140.428 111.005 146.79 111.112C155.139 111.254 192.783 112.904 202.317 112.904C221.132 112.904 233.206 111.68 241.478 108.937C244.32 108.002 247.008 106.655 249.458 104.938C258.94 98.3132 259.956 87.3695 256.812 79.7832Z" fill="#0F3E67"/>
<path d="M73.708 77.2864C73.7067 77.2746 73.7067 77.2627 73.708 77.2509C74.757 81.1356 76.4398 83.8455 78.0434 85.6868C79.5714 87.4513 81.4639 88.8633 83.5905 89.8255C85.7172 90.7876 88.0272 91.277 90.3612 91.2598C94.5191 91.2598 98.7234 89.8173 102.526 87.0882C104.866 85.6329 106.968 83.8261 108.757 81.7311C108.878 81.5918 108.998 81.4579 109.118 81.3022C113.571 87.8586 120.409 89.6753 123.687 90.1752C124.614 90.3159 125.55 90.3862 126.487 90.3856C131.251 90.3856 136.376 88.5662 140.936 85.2606C142.773 84.0818 144.484 82.7169 146.042 81.1875C146.19 82.2078 146.725 83.1319 147.536 83.769C150.459 86.0665 153.726 87.2795 156.985 87.2795C159.519 87.2837 161.995 86.5219 164.088 85.094C164.361 84.9574 164.602 84.8208 164.85 84.6569C167.377 86.6484 170.516 87.7111 174.002 87.7111C174.488 87.7111 174.98 87.6892 175.469 87.6455C180.351 87.2194 185.257 85.3125 189.658 82.1299C194.412 79.0712 198.324 74.8701 201.036 69.9104L201.192 69.6373C202.443 74.5546 204.981 78.3791 207.489 80.6629C211.584 84.4399 216.962 86.519 222.533 86.479C228.196 86.479 234.086 84.4548 239.137 80.775C244.858 77.087 249.16 71.7599 251.272 65.7963C252.911 61.6439 254.124 55.5219 253.059 49.8178C255.195 47.1133 256.585 44.1465 257.113 41.1333C257.113 41.0868 257.129 41.0377 257.134 40.9885C257.64 37.2923 256.014 34.9621 255.405 34.2354C255.037 33.6831 254.582 33.1934 254.058 32.7848C253.272 32.1859 252.292 31.8976 251.307 31.9747C250.321 32.0518 249.399 32.4889 248.715 33.2028C248.483 33.4459 248.245 33.6999 248.002 33.9622C246.614 35.4483 245.292 36.8661 243.661 37.4453C242.858 37.1352 242.023 36.9118 241.172 36.7787C240.683 36.711 240.189 36.6773 239.694 36.6776H239.675C238.695 34.0196 235.08 32.1865 233.938 31.7767L233.777 31.7221C232.223 31.2458 230.605 31.01 228.98 31.0227C228.617 31.0227 228.243 31.0227 227.866 31.0555C227.781 31.0555 227.693 31.0555 227.609 31.0555C227.371 31.056 227.133 31.077 226.898 31.1184L226.77 31.1429C226.057 31.2198 225.349 31.3329 224.647 31.4817L224.44 31.5172C224.44 31.5172 224.148 31.5773 223.65 31.703L223.377 31.7521L223.298 31.7658C219.83 32.5722 216.559 34.0669 213.679 36.1613C210.316 38.62 207.06 42.196 203.91 45.6627L203.768 45.8211C200.965 37.1776 192.693 33.2301 185.948 33.2301C184.712 33.2279 183.479 33.3607 182.271 33.6262C181.998 33.6808 181.703 33.7464 181.416 33.8256L185.186 17.7078C186.765 10.911 184.943 6.78042 183.137 4.4966C181.498 2.44772 178.384 0 172.756 0C170.914 0.0164507 169.081 0.24748 167.293 0.68842C166.626 0.800425 166.082 0.912436 165.547 1.04356C164.97 1.18662 164.432 1.45551 163.971 1.83098C163.51 2.20644 163.137 2.67919 162.881 3.21537C162.362 4.3081 162.698 5.46368 162.881 6.65476C163.807 13.1483 162.637 31.3888 153.516 39.4368C152.371 40.4449 151.497 41.6223 150.41 42.4719C150.123 42.6467 149.847 42.797 149.59 42.9308C148.084 42.0764 146.417 41.5417 144.695 41.36C144.533 40.5512 144.143 39.8054 143.572 39.2101C143.127 38.7675 139.258 34.9429 132.653 34.9429C130.776 34.951 128.912 35.2496 127.126 35.828C126.768 35.9428 126.413 36.0766 126.061 36.2132C124.717 36.5889 123.41 37.0835 122.154 37.6912C124.418 33.3874 125.805 28.6766 126.233 23.8325C127.113 14.364 122.436 7.15195 114.319 5.45821C112.701 5.12714 111.054 4.96328 109.402 4.96921C108.992 4.96921 108.583 4.96922 108.165 4.99927C108.035 4.98608 107.904 4.9797 107.774 4.98014H107.588C97.2346 5.46095 90.3312 10.1706 85.2035 20.2456C84.7282 21.1799 84.078 22.7043 83.3213 24.674C83.4176 20.1831 82.1353 15.7707 79.647 12.031C76.6146 7.58085 70.3997 2.25103 58.0026 2.12263H57.5164C48.9193 2.12263 40.6637 4.45563 32.9817 9.06151C20.5901 15.749 10.4004 27.974 5.71799 41.7725C1.57925 53.9756 -0.292055 71.137 6.89814 82.6982C11.4248 89.9512 18.686 93.9506 27.3405 93.9506C33.539 93.9506 40.1036 91.9509 46.406 88.1564C46.1082 89.7244 45.835 91.1204 45.6411 92.0219C44.0593 99.3296 41.6116 104.225 38.1668 106.968C36.9325 107.681 35.584 108.176 34.181 108.429H34.11C33.3148 108.595 32.5047 108.68 31.6923 108.681C29.0096 108.681 27.0291 107.741 26.2559 106.809C26.089 106.628 25.9693 106.409 25.9073 106.171C25.8454 105.933 25.8431 105.683 25.9008 105.443C26.0409 104.698 25.9669 103.927 25.6876 103.222C25.4083 102.516 24.935 101.904 24.3224 101.456C23.7098 101.008 22.9829 100.742 22.2258 100.69C21.4686 100.637 20.7121 100.8 20.0437 101.16C14.5172 104.135 11.728 109.467 12.7661 115.079C13.9955 121.712 20.2077 126.861 28.2283 127.891C29.7104 128.071 31.2019 128.162 32.6949 128.164C37.9974 128.164 43.0513 127.033 47.3157 124.886C49.2687 123.913 51.1397 122.784 52.9105 121.509C64.2285 114.112 67.7007 103.662 70.285 93.5873C71.3777 89.2163 72.5169 83.4221 73.708 77.2973M106.149 59.1825C103.001 65.7662 100.005 70.2929 97.2318 72.6532C97.0364 72.7328 96.8281 72.7763 96.6171 72.7816C96.4945 72.7872 96.3721 72.7656 96.2588 72.7184C96.1454 72.6712 96.0439 72.5995 95.9615 72.5084C95.5026 72.014 95.284 70.9977 95.3742 69.7766C95.5541 67.0068 95.9423 64.2544 96.5352 61.5428C96.6281 61.0702 96.7264 60.5703 96.833 60.0239C100.75 58.4237 104.451 56.3376 107.848 53.8145C107.149 55.561 106.581 57.3571 106.149 59.188M128.222 70.2547C128.561 65.7635 129.284 61.8925 130.432 58.5351C131.192 59.3915 132.165 60.033 133.251 60.3955C132.598 64.6298 130.221 70.5579 128.26 72.9155C128.154 72.0277 128.141 71.1314 128.222 70.241M175.168 62.5044C176.111 58.8247 178.28 53.88 180.553 51.5907C180.621 51.5668 180.693 51.5539 180.766 51.5525C181.405 52.5168 181.941 56.1393 180.788 60.319C179.539 64.4331 177.236 68.3151 174.854 70.3585C174.686 70.437 174.509 70.4966 174.327 70.536C174.111 69.5553 174.024 67.083 175.147 62.5044M232.097 56.2513C232.071 56.8229 231.992 57.3909 231.86 57.9477C230.83 62.6547 228.226 67.4709 225.459 69.8722C225.122 70.0566 224.749 70.1639 224.366 70.1864C224.284 70.1866 224.203 70.1783 224.123 70.1618C223.891 69.7575 222.984 67.6785 224.123 61.3625C224.693 58.3483 225.636 55.4165 226.929 52.6343L227.01 52.7764C228.177 54.7351 230.13 56.0546 232.094 56.2458M76.1967 47.1515C75.9399 47.1297 75.664 47.1187 75.3525 47.1187C74.8772 47.0969 74.3745 47.0859 73.8555 47.0859C63.4745 47.0859 55.727 51.7738 52.0144 60.2835C51.3916 61.7122 50.9791 63.9195 50.4628 66.8781C50.3726 67.3999 50.2797 67.9326 50.1896 68.3915C44.5811 73.3088 39.3059 75.986 35.2492 75.986C34.5651 75.9888 33.8834 75.9072 33.2194 75.7429C27.8213 74.3551 28.3021 61.9471 29.7418 55.612C32.8369 41.8818 39.5436 29.2908 47.6872 21.9039C48.0615 21.5788 48.4794 21.2428 48.9575 20.8822C51.1922 19.478 53.4569 18.6776 55.1916 18.6776C55.5338 18.6724 55.8753 18.7109 56.2078 18.7923C56.5602 18.8852 57.4945 19.1229 57.9671 21.251C58.9123 25.5017 56.8744 31.9352 53.7492 34.6834C53.5599 34.8102 53.3817 34.9528 53.2164 35.1096C53.0323 35.2492 52.8388 35.3761 52.6373 35.4893C52.0751 35.785 51.5909 36.2097 51.2245 36.7286C50.8581 37.2475 50.6198 37.8459 50.5292 38.4746C50.4386 39.1033 50.4982 39.7446 50.7032 40.3459C50.9081 40.9471 51.2527 41.4912 51.7085 41.9337C54.786 44.9578 58.9249 46.6571 63.2396 46.668C66.9164 46.6547 70.4866 45.4316 73.3993 43.1876C75.4659 41.9133 77.2687 40.2542 78.71 38.3004C77.8385 41.1579 76.9862 44.1492 76.2049 47.1515" fill="white"/>
<path d="M258.847 77.4197C258.2 75.8571 256.662 74.2098 254.938 74.4611C253.389 74.6878 252.381 75.9035 251.608 77.2585C250.835 78.6135 249.969 80.9984 244.674 84.6181C240.232 87.6668 233.211 89.6938 221.495 90.945C208.914 91.8547 188.713 92.8573 169.666 92.8573C164.222 92.8573 103.556 91.7127 82.2474 98.6242C71.7025 102.044 65.1269 111.04 68.0883 123.104C70.2 129.057 73.2787 125.836 74.0792 125.12C83.952 116.318 91.399 114.291 95.9011 112.955C111.828 108.227 142.476 108.628 148.839 108.737C157.187 108.877 194.832 110.53 204.366 110.53C223.177 110.53 235.255 109.306 243.527 106.56C246.369 105.626 249.058 104.279 251.507 102.561C260.989 95.9361 262.005 84.9924 258.861 77.4088" fill="white"/>
<path d="M54.0468 37.6259C53.9106 37.6978 53.7933 37.8009 53.7046 37.9268C53.6159 38.0526 53.5583 38.1977 53.5364 38.3501C53.5146 38.5026 53.5291 38.658 53.5789 38.8037C53.6287 38.9495 53.7122 39.0813 53.8228 39.1886C56.3382 41.6654 59.7229 43.0597 63.2531 43.0732C69.4215 43.0732 74.8716 38.8225 77.4805 31.982C79.7534 26.0184 79.0485 19.2052 75.6419 14.2032C73.0194 10.354 67.5666 5.73447 56.4863 5.62793H56.0137C31.9735 5.62793 14.5799 24.5869 8.60538 42.2018C4.8655 53.2165 2.86852 69.8698 9.48503 80.5377C13.4899 86.9575 19.6666 90.3504 27.3431 90.3504C34.719 90.3504 42.7615 87.1733 49.9709 81.4064C50.244 81.1796 50.5172 80.9638 50.7522 80.7589C50.1539 84.1082 49.1267 89.7603 48.6186 92.1097C46.9795 99.6687 43.8215 110.328 33.4651 112.271C32.621 112.446 27.0835 113.057 23.7234 109.703C22.5514 108.29 22.1526 106.302 22.4968 104.471C22.5678 104.102 22.729 103.551 22.5268 103.379C22.3753 103.276 22.1996 103.216 22.0173 103.204C21.835 103.191 21.6527 103.227 21.4887 103.308C17.0331 105.537 14.9596 109.662 15.7519 113.989C16.5714 118.423 20.8631 123.34 28.6052 124.334C29.9585 124.498 31.3206 124.58 32.6838 124.58C37.5137 124.58 42.0977 123.561 45.9359 121.638C59.3219 114.904 62.9853 104.392 65.8292 93.3008C66.6679 89.9925 67.6568 85.6516 68.7031 81.0376C71.3611 69.3535 74.6667 54.8119 76.956 51.154C77.0449 51.0113 77.0954 50.848 77.1026 50.68C77.1097 50.5119 77.0734 50.3449 76.9969 50.1951C76.9213 50.0455 76.8079 49.9181 76.668 49.8257C76.5281 49.7332 76.3666 49.6788 76.1992 49.6679C75.4015 49.6105 74.6093 49.5832 73.8444 49.5832C67.4136 49.5832 58.8876 51.5556 54.7871 60.9531C54.2626 62.1579 53.8282 64.652 53.4458 66.8511C53.2682 67.8701 53.0988 68.8399 52.9568 69.4655C49.6786 72.6426 41.677 79.5241 33.9186 79.5241C32.9221 79.5278 31.9291 79.4067 30.9627 79.1635C22.3301 76.9453 23.9228 61.2563 25.2669 55.3965C28.4959 41.0763 35.5577 27.876 44.163 20.0875C47.7526 16.9541 51.864 15.0746 55.1532 15.0746C55.7715 15.0695 56.3878 15.1457 56.9862 15.3014C59.9257 16.0554 60.86 18.9511 61.1277 21.2458C61.7861 26.8734 58.893 35.0744 54.0249 37.6369" fill="#095093"/>
<path d="M90.3749 87.6806C95.5654 87.6806 100.873 84.9487 104.963 80.2172C106.566 78.287 107.993 76.2171 109.227 74.0323C112.333 83.7577 120.564 86.0742 124.154 86.6233C124.934 86.7422 125.722 86.8016 126.512 86.8009C137.078 86.8009 148.014 76.857 150.885 64.6375C151.057 63.9054 152.464 57.6495 151.503 52.5846L151.656 52.5218C153.527 51.7269 155.819 50.7543 158.157 48.3503C156.633 55.3547 155.193 61.821 152.92 70.5929C151.781 74.7098 150.91 77.5591 149.29 79.4304C149.204 79.5301 149.139 79.646 149.099 79.7714C149.059 79.8967 149.045 80.0288 149.058 80.1597C149.07 80.2906 149.109 80.4176 149.172 80.5331C149.235 80.6487 149.32 80.7503 149.424 80.8318C151.811 82.7086 154.431 83.6975 157.004 83.6975C160.083 83.6975 162.799 82.3152 164.785 79.7719C166.984 82.583 170.205 84.1155 173.999 84.1155C174.401 84.1155 174.819 84.0964 175.218 84.0609C183.686 83.3233 192.39 77.2449 196.859 68.9374C197.594 67.5088 198.219 66.0267 198.731 64.5037C200.137 63.4464 201.957 62.269 203.484 60.7447C202.643 71.1967 208.775 77.1357 209.546 77.8542C213.082 81.1149 217.726 82.9089 222.536 82.8725C232.917 82.8725 243.407 75.2589 246.934 65.1648C248.557 61.1216 249.543 53.8249 248.073 48.3804C249.611 46.7085 256.184 40.0455 251.559 34.7212C251.176 34.407 250.944 34.7621 250.857 35.0217C249.928 37.7289 248.281 39.521 243.412 40.0783C242.566 39.6659 241.664 39.3779 240.735 39.2232C240.332 39.1659 239.925 39.1376 239.517 39.1385C237.792 39.1402 236.102 39.6237 234.638 40.5345C232.572 41.8624 230.863 43.6764 229.66 45.8179C228.458 48.0443 229.13 49.8118 229.641 50.6642C230.343 51.847 231.554 52.6693 232.6 52.6693C232.988 52.677 233.367 52.5484 233.671 52.306L233.712 52.2732C233.821 52.1504 233.966 52.0653 234.127 52.0301C234.198 52.0301 234.31 52.1175 234.422 52.2568C235.102 53.1119 235.463 55.3875 234.837 58.0811C233.22 65.4735 227.926 73.7018 222.915 73.7018C222.445 73.7009 221.978 73.6234 221.533 73.4723C219.075 72.6527 218.392 68.219 219.621 61.2883C220.328 57.379 222.487 47.7138 229.182 40.5564C231.816 37.7398 234.646 37.4885 235.72 37.4503C236.993 37.4038 232.198 32.7023 227.251 33.0793C221.394 33.511 218.274 35.0954 215.171 37.7508C212.248 40.2531 201.856 53.5954 200.083 55.169C199.982 55.2591 200.146 50.0468 199.637 48.0853C197.687 40.6329 191.606 36.699 185.541 36.6963C184.481 36.6963 183.14 36.5351 181.219 37.0787C179.054 37.723 177.059 38.843 175.382 40.3569L180.722 17.4587C181.774 12.932 181.195 8.98998 179.083 6.33737C177.256 4.03989 174.42 2.82422 170.888 2.82422C169.333 2.84522 167.787 3.0525 166.282 3.44162C166.045 3.499 165.839 3.6431 165.703 3.84544C165.567 4.04778 165.513 4.29362 165.55 4.53435C166.916 13.4511 164.394 22.895 163.572 25.9984C162.063 31.4289 159.433 36.4831 155.852 40.835C152.847 44.4574 149.88 46.1075 147.774 46.8587C147.522 46.6557 147.259 46.4669 146.987 46.2932C145.427 45.3085 143.619 44.7901 141.774 44.7989C137.505 44.7989 133.524 47.4515 132.09 51.2488C131.503 52.8059 131.634 54.4341 132.44 55.5979C132.78 56.0848 133.234 56.4807 133.763 56.7508C134.291 57.021 134.878 57.1569 135.472 57.1468H135.745C135.984 57.128 136.22 57.0793 136.447 57.002C136.827 62.0778 133.333 71.4179 130.282 74.7071C128.643 76.5074 127.309 77.4143 126.266 77.4143C125.955 77.4136 125.651 77.3245 125.389 77.1575C123.567 76.0184 122.316 71.8468 122.466 69.8471C123.217 59.9032 126.017 51.369 130.842 45.9763C133.093 43.4347 135.918 41.4678 139.084 40.2395C135.372 38.0121 130.951 37.2815 126.719 38.1961C117.77 40.3679 111.544 48.7054 109.05 59.6519C107.596 62.7252 103.346 71.6283 98.1607 75.2616C97.283 75.9124 96.226 76.2768 95.1338 76.3052C94.5905 76.3089 94.0527 76.1976 93.5555 75.9787C93.0583 75.7597 92.6131 75.4381 92.249 75.0349C91.1918 73.8985 90.6973 72.1146 90.853 70.011C91.0416 67.1181 91.447 64.2434 92.0659 61.4112C92.2271 60.5917 92.4101 59.6683 92.6123 58.581C92.9128 56.636 93.1587 56.2508 93.522 56.0432C99.5785 53.6583 105.367 49.8692 110.689 44.4274C116.896 38.0841 119.977 31.5222 121.715 24.0042C123.378 6.24721 107.758 7.46288 107.744 7.46288C98.4912 7.89178 92.5659 11.9622 87.9327 21.0674C85.4522 25.9274 78.0707 47.457 76.1311 61.8483C74.5439 73.6662 77.5435 79.9549 80.3382 83.1566C81.5824 84.5926 83.1234 85.7415 84.8548 86.5239C86.5862 87.3064 88.4668 87.7038 90.3667 87.6888M95.3277 48.6289C97.4613 41.0918 101.461 28.6319 103.796 23.3731C104.458 21.8897 105.903 18.8956 108.227 18.8273C109.238 18.8 109.654 21.1904 109.667 21.4827C109.735 22.8486 109.506 24.3129 109.222 25.8099C107.504 34.8987 102.439 41.5863 95.3223 48.6289M170.721 62.2472C172.24 56.3163 176.349 47.9569 180.725 47.9542C181.113 47.9568 181.497 48.0176 181.867 48.1345C184.451 48.9049 185.331 54.863 183.725 60.6354C181.49 68.0387 176.521 74.0788 172.652 74.0788C172.109 74.0791 171.572 73.9538 171.084 73.7127C169.718 73.0024 168.899 69.6149 170.721 62.239" fill="#095093"/>
<path d="M257.023 89.1123C258.195 83.0722 257.023 79.357 256.569 77.8517C255.72 76.1088 254.504 76.4667 254.023 78.5073C253.712 79.835 252.633 82.8783 245.959 86.8285C233.324 94.1854 196.57 97.1002 133.626 96.0102C100.991 95.6114 84.9606 99.0617 77.4016 104.651C70.6185 109.249 70.43 117.146 72.1046 121.236C72.2303 121.539 72.4898 122.329 73.3066 121.782C73.853 121.236 76.8389 118.709 77.6994 118.086C89.154 109.781 113.508 105.577 138.201 105.577C144.422 105.577 234.6 105.547 242.394 102.487C253.594 97.9252 256.168 93.527 257.023 89.1233" fill="#095093"/>
<path d="M105.717 78.5649C107.656 76.3166 109.5 73.2952 111.049 70.4377C113.123 80.4444 120.392 83.8237 125.801 84.6433C135.933 86.1922 148.317 76.6718 151.439 63.3978C151.855 61.6221 152.89 56.3633 151.767 51.8585C154.742 50.495 157.39 48.5089 159.531 46.0342C160.221 45.2494 160.87 44.4287 161.473 43.5756C159.586 52.2683 158.061 59.4202 155.362 69.8313C154.223 73.9454 153.565 77.4449 151.784 79.4992C157.083 83.6653 162.984 82.4496 166.287 77.057C168.68 81.0017 172.668 82.4305 176.632 82.0863C185.418 81.3186 193.488 74.9343 197.504 67.4709C198.261 66.0952 198.901 64.6576 199.416 63.1738C201.082 61.9335 203.377 60.1005 205.052 58.2565C205.44 57.833 205.912 57.2429 206.439 56.5381C204.238 66.8918 209.136 73.776 211.704 76.1199C223.56 86.9462 242.631 77.8164 247.518 63.8267C249.187 59.6633 250.269 53.3938 248.674 48.1896C250.993 45.7528 252.64 42.8817 253.162 39.8848C253.493 37.4617 252.277 36.1586 252.247 36.1723C252.274 36.1996 249.567 41.5403 243.265 41.0896C237.719 38.4315 233.851 41.8518 232.009 45.2556C230.127 48.736 233.375 51.1619 234.315 50.3423C236.449 48.5011 238.396 52.4622 237.279 57.273C235.367 65.963 228.718 75.4015 222.713 73.3663C219.659 72.3527 218.834 67.5228 220.161 60.0895C221.254 54.0795 224.235 47.2881 228.177 42.3107C229.551 40.4896 231.369 39.0507 233.457 38.131C234.243 37.786 235.069 37.5427 235.916 37.4071C235.051 36.3102 233.901 35.4727 232.591 34.9867C230.324 34.2709 227.783 34.2955 225.229 34.8938L225.251 34.8774C222.809 35.42 220.468 36.3418 218.312 37.6092C212.873 40.953 207.417 49.6047 203.03 53.4785C202.309 54.1177 201.615 54.6805 200.976 55.1722C201.112 52.5159 200.847 49.8543 200.189 47.2772C198.088 39.2538 189.535 35.503 183.093 36.9727C179.941 37.5519 176.706 40.4394 175.083 42.685L181.279 16.208C183.489 6.70122 178.154 1.56536 168.022 4.06226C169.371 6.94434 166.858 21.9913 166.003 25.2067C164.456 30.7796 161.759 35.9668 158.086 40.4339C154.685 44.5317 151.303 46.2336 149.041 46.9384C148.703 46.6256 148.337 46.3439 147.948 46.097C143.162 43.051 136.414 45.4551 134.488 50.5718C133.559 53.0304 134.838 55.2951 137.171 55.1476C137.955 55.0984 138.687 54.3499 138.81 55.1094C139.673 60.3327 135.775 70.7901 132.48 74.3415C131.114 75.8659 128.571 78.3355 126.358 76.9559C124.203 75.6091 124.017 72.0167 124.214 69.3941C124.76 62.2122 126.446 53.0687 132.729 46.0287C136.66 41.6223 140.651 41.442 140.651 41.442C140.651 41.442 136.065 36.6422 128.358 39.0953C120.163 41.7015 113.497 50.2795 111.322 59.9666C109.334 64.1654 105.359 71.4403 100.217 75.0327C95.9666 78.0104 90.8991 75.3605 91.3772 68.9215C91.7569 63.7857 92.1967 62.4061 93.1528 57.3823C93.2676 56.7676 94.1746 56.2021 94.8657 55.9289C101.354 53.3719 106.886 49.4982 111.65 44.6218C117.483 38.661 121.43 31.6238 122.241 22.8955C122.922 15.6043 119.698 10.1187 113.5 8.82932C110.677 8.24094 107.762 8.25864 104.946 8.88122C98.3242 10.4411 94.8384 13.7494 90.7652 20.5899C87.9951 25.234 80.9661 46.9903 79.0784 61.0593C75.527 87.5964 94.5652 91.5029 105.719 78.5649M171.283 60.9938C172.671 55.5738 177.4 44.2394 183.661 46.1872C187.098 47.2144 187.789 54.0549 186.169 59.8792C183.593 68.4107 177.154 76.0134 172.163 73.5711C170.019 72.4511 169.491 68.2249 171.283 61.0047M104.635 22.1033C105.367 20.4642 105.913 19.3715 107.093 18.1203C107.834 17.3281 109.049 16.8992 110.003 17.1997C111.732 17.746 111.915 19.6447 112.022 20.2894C112.24 21.4777 111.907 23.8244 111.691 24.969C109.779 35.0905 103.894 42.4937 96.666 49.5036C96.4147 49.7495 95.2154 50.7002 95.0269 50.6128C96.5977 44.0045 101.884 28.3046 104.643 22.1033" fill="#006DB6"/>
<path d="M57.5955 60.7563C56.8716 62.5074 55.9892 66.6352 55.5357 68.3645C50.9134 72.8939 40.9914 81.3161 32.2249 79.0869C22.5925 76.6119 24.5375 59.7537 25.8188 54.1616C29.5586 37.5849 37.5001 25.1495 45.0126 18.3473C49.8453 14.1266 55.1532 12.3755 58.7429 13.3425C67.1405 15.4979 63.9634 33.2849 55.9919 37.4701C62.4773 43.7533 73.7024 42.0541 78.0624 30.6187C81.7641 20.9125 77.8084 5.789 57.967 5.58138C35.5086 5.34917 17.7271 22.9094 11.2745 41.9148C7.17669 54.0059 5.96103 69.6102 12.0612 79.4257C20.3469 92.7024 39.3441 89.4843 50.8533 79.6169C51.826 78.7322 52.8426 77.897 53.8993 77.1145C53.8993 77.1145 52.0499 87.6348 51.2959 91.1152C49.542 99.2124 45.5809 109.817 34.9212 111.817C27.7993 113.284 20.896 109.73 21.9477 104.168C14.0719 109.692 17.8281 120.761 30.2307 122.351C36.1205 123.067 42.177 122.171 47.0014 119.75C60.5076 112.959 63.8268 102.026 66.3975 92.044C69.4025 80.1278 72.8637 55.8909 76.1501 50.6403C73.1178 50.1376 60.5978 53.0553 57.6037 60.7618" fill="#006DB6"/>
<path d="M255.842 78.551C251.57 97.1657 217.87 95.1961 155.466 95.4091C117.305 95.5403 99.48 94.5431 83.1108 100.977C75.3032 104.044 69.1784 111.631 72.4566 119.662C83.9604 108.019 109.424 105.52 149.456 106.194C189.584 106.872 225.582 108.771 243.593 103.239C255.211 99.6872 260.328 87.3939 255.842 78.54" fill="#006DB6"/>
</svg>
