<svg width="42" height="42" viewBox="0 0 42 42" fill="none" xmlns="http://www.w3.org/2000/svg">
<path d="M22.3027 12.3516V20.1865H30.2666V22.7129H22.3027V30.5049H19.6055V22.7129H11.6426V20.1865H19.6055V12.3516H22.3027Z" fill="white"/>
<path fill-rule="evenodd" clip-rule="evenodd" d="M20.9131 0C32.463 4.74201e-05 41.8261 9.36313 41.8262 20.9131C41.8262 32.4631 32.4631 41.8261 20.9131 41.8262C9.36317 41.826 0 32.463 0 20.9131C4.74203e-05 9.36318 9.3632 0.000131942 20.9131 0ZM20.9131 3.29297C11.1821 3.2931 3.29302 11.1821 3.29297 20.9131C3.29297 30.6441 11.1821 38.5331 20.9131 38.5332C30.6442 38.5332 38.5332 30.6442 38.5332 20.9131C38.5332 11.182 30.6441 3.29302 20.9131 3.29297Z" fill="white"/>
</svg>
