<svg width="87" height="99" viewBox="0 0 87 99" fill="none" xmlns="http://www.w3.org/2000/svg">
<path d="M3.58199 26.3452C1.37259 22.6721 0.807383 19.3612 0.29357 16.6711V16.516C-0.220242 13.7742 -0.0660998 12.4291 0.807383 11.7048C1.3212 11.291 2.14329 10.9288 4.66098 11.7048C8.51457 12.8947 11.7002 14.4984 14.5262 18.4818C15.6052 19.9821 16.3245 21.8961 16.7356 23.8619C17.1466 22.31 17.7118 20.965 18.1743 19.8269V19.6716C18.9964 17.861 19.7157 16.6194 20.8461 16.4642C21.4113 16.4125 22.182 16.5677 23.6207 18.2749C25.8301 20.9132 27.3715 23.4999 27.6284 27.6902C27.6284 28.1041 27.6284 28.5696 27.6284 29.0352C27.8339 28.8283 27.9881 28.5696 28.1936 28.3627L28.2964 28.2593C29.8378 26.3452 30.8654 25.6727 31.8417 25.8279C32.4069 25.9313 33.1262 26.2934 34.1025 28.4662C35.1815 30.9493 36.6715 33.6911 36.3632 36.433C37.7505 35.2949 38.4699 35.2431 38.9323 35.3983C39.9086 35.657 40.4738 36.6918 40.9876 39.0715V39.2266C41.45 41.2442 41.9638 43.6756 41.7583 46.7795C43.0428 45.2793 43.9163 44.7103 44.7898 44.8655C45.355 44.9689 46.0229 45.3311 46.9478 47.4004C48.3865 50.6078 49.1572 53.6083 48.2323 57.7469C47.5644 60.7474 44.9953 63.9031 42.8887 65.8689C42.8887 66.0758 42.8887 66.2827 42.94 66.4379C48.1809 74.4047 53.2163 81.3887 55.0147 91.9938C55.3743 94.2701 55.2202 97.6845 52.9594 98.7708C51.7776 99.3399 49.9793 99.133 47.8726 94.7875C44.4815 88.114 43.7622 76.5259 40.5765 71.2491C40.4224 70.9905 39.8058 70.0592 39.4461 69.5936C38.213 70.7318 36.6715 72.0252 34.9246 72.9563C33.64 73.6806 32.3555 74.1979 31.071 74.4048C26.9091 75.0773 23.9803 74.0945 20.8975 72.3873C18.8936 71.3009 18.5853 70.5766 18.5339 70.0075C18.4312 69.0246 19.2019 68.0934 21.103 66.7483L21.2058 66.6449C21.8223 66.2311 23.4152 65.3515 24.1859 64.8859C21.0516 64.3686 17.7632 62.7649 15.3997 60.8508C13.4986 59.3506 13.293 58.6263 13.293 58.1089C13.293 57.2295 14.1665 56.6087 16.3245 55.8845H16.4787C16.4787 55.8845 16.9411 55.6776 17.1466 55.6258C16.8383 55.5741 16.5301 55.4707 16.2218 55.3672C11.803 54.0739 9.43945 51.7458 7.17867 48.6419C5.74 46.676 5.73998 45.7967 5.94551 45.2276C6.30517 44.2447 7.43558 43.6756 10.0046 43.2618H10.1588C10.1588 43.2618 10.4157 43.21 10.5185 43.1583C10.3643 43.1065 10.2102 43.003 10.056 42.8995C6.15106 40.675 4.40406 37.9333 2.96539 34.5189C2.04053 32.2944 2.24607 31.5185 2.55436 31.0012C3.11956 30.1217 4.3013 29.863 6.81898 30.0182H6.97313C6.97313 30.0182 7.02451 30.0182 7.07589 30.0182C5.58584 28.7766 4.30132 27.3798 3.58199 26.19M25.3677 27.8454C25.0594 24.7932 24.2887 22.5687 21.9251 19.8269C21.6168 19.4648 21.3599 19.206 21.2058 19.0508C21.0516 19.3094 20.7947 19.7751 20.435 20.6028V20.7063C19.5102 22.7756 18.1743 25.0001 18.0715 28.2075C18.0715 29.656 18.4826 31.9323 19.3047 33.8464C20.2295 35.9157 22.4903 38.5541 22.6444 38.5541C22.7986 38.5541 25.6246 30.7942 25.3677 27.8454ZM23.0555 38.9679C23.0555 38.9679 23.0555 39.0197 23.0555 39.0715V38.9679C23.0555 38.9679 23.0555 38.9679 23.0041 38.9679H23.0555ZM31.9958 29.3973C31.7903 28.88 31.5848 28.518 31.4306 28.2593C31.1737 28.4662 30.7627 28.88 30.0947 29.7078L29.992 29.8112C28.5019 31.6219 26.498 33.536 25.4704 36.7952C25.008 38.2954 24.0317 44.0895 28.7588 49.0558C28.9129 49.211 32.561 41.1407 33.229 38.3471C33.9997 35.1397 33.5886 32.9152 31.9958 29.3456M38.7782 39.8474V39.6922C38.5213 38.6576 38.3157 38.1401 38.213 37.8297C37.9561 37.9849 37.6478 38.2437 37.1853 38.6059C34.2052 41.2442 32.9721 43.5204 32.0986 46.7795C31.1737 50.0387 34.4621 57.6434 35.1301 57.6951C35.4384 57.6951 35.4898 57.6434 36.7229 54.9016C37.6992 52.7806 39.0351 49.7283 39.292 48.1246C39.8058 44.7103 39.292 42.0719 38.7782 39.7957M44.6356 76.8362C46.3826 83.3545 47.3588 87.9587 50.2362 94.2701C50.339 94.5288 51.5207 96.7533 52.2914 96.0808C53.1649 95.3048 52.8053 92.7181 52.7025 92.0973C51.3152 85.2169 48.6434 79.1642 44.9953 73.008C44.276 71.663 42.0152 68.3521 41.861 68.8177C41.6041 69.542 44.4301 75.8533 44.687 76.8362M40.2682 65.0412C40.5251 65.7137 40.782 65.7654 41.1931 65.2481C42.9914 63.0236 45.4063 60.0749 46.0743 57.1779C46.7936 54.0739 46.4854 51.6424 44.9439 48.2281C44.7384 47.7625 44.5329 47.4003 44.3787 47.1416C44.1218 47.3486 43.7108 47.7108 43.0942 48.5385L42.9914 48.6419C41.5527 50.4008 39.9599 52.4185 38.9837 55.5741C38.5213 57.0227 38.7268 59.1954 39.0864 61.3682C39.1892 62.0407 39.8572 64.0065 40.2682 64.9894M22.5417 68.5073L22.4389 68.6107C21.6168 69.1797 21.2058 69.5937 20.9489 69.8006C21.1544 69.9558 21.514 70.2144 21.9765 70.4213C25.2649 72.1802 27.6284 72.6975 30.7627 72.1802C33.7428 71.7146 37.1853 68.9211 38.8295 67.0587C39.292 66.4897 39.4975 66.4896 37.8019 65.8171C37.2881 65.6102 36.5688 65.3515 35.6439 65.1446C33.4859 64.679 31.1737 64.6273 29.7351 64.9377C26.5494 65.7137 24.4428 67.1622 22.593 68.5073M15.7593 58.6263C15.7593 58.6263 16.2732 59.1436 16.7356 59.454C19.8185 61.8855 22.2334 62.6097 25.4704 63.0236C28.7074 63.4374 35.1301 61.1095 35.1301 61.0578C35.0273 60.7474 33.5887 59.5058 31.2765 58.4194C29.1699 57.4365 26.8063 56.764 25.2649 56.6605C21.9251 56.5053 19.6129 57.2296 17.5577 57.9021H17.4035C16.4787 58.2642 16.0162 58.4711 15.7593 58.6263ZM8.41181 46.2622C8.30905 46.5209 8.61735 47.2451 8.97702 47.7107C11.3406 50.9699 13.7041 51.9528 16.8897 53.1944C19.9212 54.3843 28.5019 55.574 29.9406 53.9703C30.3002 53.6082 26.9605 50.1422 24.9052 48.5902C23.0041 47.1417 20.7947 46.0036 19.2019 45.6415C15.7079 44.9172 13.0361 44.555 10.5185 45.331C10.5185 45.331 8.51458 45.9519 8.41181 46.2622ZM6.81898 32.553H6.66486C5.58585 32.4495 4.96926 32.553 4.66098 32.553C4.71236 32.8116 4.8665 33.2256 5.07203 33.7429C6.61347 37.3642 8.25768 39.33 11.1864 41.0372C14.0638 42.6926 23.4665 44.8136 23.5179 44.7619C23.7234 44.5032 21.4627 40.4164 19.8185 38.4506C18.3284 36.64 16.4787 35.0362 15.04 34.3637C14.7317 34.2085 14.372 34.0533 14.0638 33.9499C13.1903 33.536 12.5737 33.3808 11.5461 33.1738C9.8505 32.76 8.25766 32.6565 6.81898 32.553ZM10.724 29.7078C12.9847 31.208 14.9373 31.6737 15.2969 31.5702C16.0163 30.639 14.629 22.879 12.4709 20.0337C10.2616 17.1367 8.05215 15.4813 3.94165 14.2397C3.37646 14.0845 2.96541 13.981 2.65712 13.9293C2.65712 14.2914 2.65711 14.964 2.86263 16.0504V16.2056C3.32506 18.7922 3.83887 21.741 5.79136 24.9484C6.66484 26.4486 8.61733 28.2593 10.724 29.6561" fill="white"/>
<path d="M56.8649 46.1074C55.2207 43.1069 55.1693 40.6237 55.5804 37.8302C55.8373 36.0195 56.2997 35.6057 56.7107 35.3987C57.3787 35.0883 58.1494 35.347 59.4339 36.2264C58.5605 33.8985 58.4577 31.8809 58.355 30.2254V30.1221C58.2008 28.1562 58.4577 27.2249 59.1257 26.8111C59.4853 26.6041 59.9992 26.5006 61.3351 27.0697C60.4616 25.0004 61.0268 22.6207 61.3351 20.448C61.592 18.5856 62.0544 18.1201 62.4655 17.9132C63.1848 17.551 64.1096 17.9131 65.7538 18.9995H65.8566C65.8566 18.9995 66.2163 19.3098 66.4218 19.465C66.2677 19.1029 66.1649 18.7926 66.1135 18.4304C65.3942 15.1713 66.0107 12.8434 67.1411 10.3085C67.9119 8.65302 68.4257 8.3943 68.8881 8.29084C69.813 8.13564 70.6351 8.96334 71.6113 10.1532V10.2567C72.3307 11.0327 72.9986 11.9638 73.6666 13.0502C73.5638 11.4465 73.6666 9.79099 74.1804 8.39421C75.5163 4.66946 77.6229 2.75547 80.3461 0.996561C82.0931 -0.141557 82.8125 -0.0898627 83.3263 0.117068C84.1484 0.479196 84.5594 1.51385 84.8163 3.68662V3.84179C85.0732 6.01456 85.3301 8.70467 84.4052 12.0156C84.097 13.1019 83.429 14.447 82.5555 15.7403C82.5555 15.7403 82.6069 15.7403 82.6583 15.7403H82.7611C84.6622 15.016 85.6384 14.9643 86.255 15.4816C86.6146 15.792 86.9743 16.3611 86.7174 18.2752C86.3577 21.2239 85.587 23.7588 83.0693 26.3455C82.9666 26.4489 82.8638 26.5524 82.7611 26.6559C82.8638 26.6559 82.9666 26.6559 83.0693 26.6559H83.1721C85.2274 26.3972 86.2036 26.6042 86.7174 27.2767C87.0257 27.6906 87.2312 28.3114 86.5119 30.1738C85.4329 33.0708 84.0969 35.347 81.0141 37.3646C80.8085 37.5198 80.5517 37.6233 80.3461 37.7785C80.5517 37.7785 80.7572 37.7785 80.9113 37.7785H81.0141C82.8124 37.8302 83.6346 38.1406 83.8401 38.8131C83.9942 39.227 83.9428 39.796 82.8124 41.3997C81.3737 43.4173 79.2158 45.3831 76.9036 46.4695C77.5716 46.6764 79.0102 46.9351 79.5754 47.1421H79.6782C81.4765 47.8146 82.2472 48.3319 82.4014 49.1079C82.5041 49.5735 82.4014 50.1943 81.1169 51.4358C79.113 53.4017 77.0577 54.7985 73.7179 55.2123C72.6903 55.3158 71.5599 55.2123 70.4295 54.9536C68.8881 54.5915 67.3981 53.9707 66.2163 53.3499C66.0108 53.8155 65.7539 54.6433 65.7025 54.9019C64.4179 59.6613 66.3704 68.7662 65.24 74.6637C64.5207 78.492 63.1848 79.0611 62.1572 78.8542C60.1533 78.492 59.2798 75.9054 59.0743 74.0948C58.1494 65.5072 60.4616 58.9888 62.7737 51.6945C62.7737 51.5393 62.7737 51.3841 62.7224 51.2289C60.6671 50.1942 57.9953 48.3319 56.8135 46.1591M64.829 20.5514H64.7262C64.0069 19.9824 63.5958 19.7755 63.3903 19.672C63.3389 19.879 63.2362 20.2411 63.1848 20.6549C62.7737 23.7589 62.9279 25.5178 64.2124 27.8458C65.3428 29.8634 69.9157 35.2435 69.9671 35.0883C72.5875 30.2254 70.5323 25.9834 69.8643 24.897C68.3229 22.6208 66.4218 21.5861 64.829 20.4998M73.6666 16.7232C72.8959 14.2918 71.3544 12.8434 70.2754 11.4466V11.343C69.7616 10.774 69.4533 10.4637 69.2992 10.3085C69.1964 10.4637 69.0423 10.7222 68.8881 11.0844C67.7063 13.7227 67.5522 15.5851 68.0146 18.0165C68.4257 20.3962 72.3306 25.7248 72.4334 25.673C72.5362 25.673 73.718 23.0864 73.9749 21.3275C74.2318 19.672 74.0262 17.8096 73.7179 16.7232M72.1765 26.0868C72.1765 26.0868 72.1765 26.1386 72.1765 26.1903C72.1765 26.1903 72.1765 26.1386 72.1765 26.0868ZM82.7611 4.10042V3.94526C82.6583 3.01407 82.5555 2.54846 82.4528 2.23807C82.2473 2.34153 81.8876 2.49678 81.5279 2.75544C78.6505 4.61782 77.3146 6.37671 76.2356 9.11854C75.1566 11.8086 75.8246 18.1201 76.5953 18.6374C76.9036 18.6374 78.2909 17.8096 79.7295 16.1542C81.0655 14.6022 82.1445 12.7916 82.5042 11.4466C83.3263 8.49783 83.0693 6.11804 82.8638 4.04874M84.9191 18.0683C84.9704 17.6027 84.9704 17.2922 84.9704 17.0336C84.7135 17.0336 84.2511 17.1888 83.429 17.4475H83.3263C82.2473 17.8613 81.0141 18.327 79.7809 18.9995C79.0616 19.4134 78.5992 19.672 78.034 20.1893C77.8285 20.3445 77.5715 20.5514 77.366 20.7066C76.3898 21.5343 75.3108 23.1898 74.5914 24.897C73.7693 26.7594 72.8959 30.4324 73.1528 30.5876C73.1528 30.5876 79.9865 26.8629 81.8362 24.9488C83.7373 23.0347 84.5594 21.1205 84.9704 17.9649M84.9704 29.6564C85.1246 29.2425 85.2274 28.6218 85.0732 28.4149C84.9191 28.208 83.2235 28.1561 83.2235 28.1561C81.1169 28.1561 79.113 28.9839 76.5953 30.3289C75.4649 30.9497 73.9749 32.3464 72.8445 33.8467C71.6113 35.5539 69.813 38.9165 70.1726 39.1234C71.6113 40.0546 77.9826 37.2094 80.0378 35.6057C82.2472 33.9502 83.8401 32.6569 84.9704 29.6047M81.5793 40.4685C81.8362 40.1064 82.0417 39.796 82.1445 39.589C81.939 39.5373 81.5279 39.4856 80.7572 39.4339H80.6544C78.9075 39.3821 76.955 39.3304 74.4373 40.2099C73.2555 40.6238 71.6113 41.6584 70.1726 42.9C68.6312 44.245 67.8091 45.5383 67.7577 45.797C67.7577 45.797 73.2555 46.1591 75.6191 45.1762C78.034 44.1416 79.7295 43.0551 81.5793 40.5202M66.2163 51.2289C67.9119 52.2635 71.1489 53.7121 73.5638 53.4017C76.0815 53.0913 77.8285 52.2118 79.9351 50.0908C80.2434 49.7804 80.4489 49.5735 80.603 49.3665C80.3975 49.2631 79.9865 49.0561 79.2158 48.7975H79.113C77.4174 48.1767 75.4649 47.5042 72.7931 47.6076C71.6113 47.6076 69.813 48.2284 68.2715 49.0561C67.6036 49.4182 67.1412 49.7287 66.7301 50.0391C65.5483 50.9703 65.7539 50.9185 66.2163 51.2289ZM66.9356 43.2104C67.4494 43.0034 68.3229 36.4334 66.9356 34.1054C65.5483 31.7775 64.0583 30.3289 61.2323 28.9322C60.8212 28.7252 60.5129 28.6217 60.3074 28.5183C60.3074 28.7769 60.256 29.2426 60.3074 30.0703V30.1738C60.4102 32.0361 60.5643 34.1571 61.7461 36.692C62.2599 37.8301 63.9555 39.8995 65.1887 41.348C66.7301 43.1587 66.7815 43.1586 67.0384 43.1586M62.7224 57.1264C61.2837 62.6618 60.513 67.9385 60.924 73.5774C60.924 74.0947 61.2837 76.164 62.1058 76.5261C62.8251 76.8882 63.2362 74.9225 63.2875 74.7155C64.1096 69.1801 63.8527 65.4554 63.8014 60.0235C63.8014 59.1958 64.5721 53.712 64.2124 53.1947C63.9555 52.8326 62.9793 55.8848 62.671 57.1264M63.9555 50.4012C64.3666 50.7116 64.5721 50.6081 64.6235 50.0391C64.7262 49.2113 64.829 47.5559 64.7262 46.9869C64.5207 45.228 64.2124 43.5208 63.5444 42.5378C62.1058 40.3133 60.4102 39.1235 58.9201 38.0371H58.8174C58.1494 37.5198 57.7384 37.2611 57.5328 37.1576C57.4815 37.3645 57.3787 37.6749 57.3273 38.0888C56.8649 41.0376 57.1732 43.0034 58.4063 45.2279C59.5367 47.3489 62.0544 49.0561 63.9555 50.4012Z" fill="white"/>
</svg>
