<svg width="42" height="42" viewBox="0 0 42 42" fill="none" xmlns="http://www.w3.org/2000/svg">
<path fill-rule="evenodd" clip-rule="evenodd" d="M20.9131 0C9.36335 0.000311316 4.57764e-05 9.36329 0 20.9131C0 32.4629 9.36332 41.8259 20.9131 41.8262C32.4631 41.8262 41.8262 32.4631 41.8262 20.9131C41.8261 9.3631 32.4631 0 20.9131 0ZM20.9131 3.29297C30.6442 3.29297 38.5332 11.182 38.5332 20.9131C38.5332 30.6442 30.6442 38.5332 20.9131 38.5332C11.1822 38.5329 3.29297 30.644 3.29297 20.9131C3.29301 11.1822 11.1823 3.29328 20.9131 3.29297ZM25.9326 10.8066C25.3468 10.2211 24.3972 10.2209 23.8115 10.8066L14.2656 20.3525C13.6802 20.9383 13.6802 21.8879 14.2656 22.4736L23.8115 32.0195C24.3972 32.6052 25.3468 32.6051 25.9326 32.0195C26.5184 31.4337 26.5184 30.4842 25.9326 29.8984L17.4473 21.4131L25.9326 12.9277C26.5184 12.3419 26.5184 11.3924 25.9326 10.8066Z" fill="#A8A8A8"/>
</svg>
