<svg width="27" height="27" viewBox="0 0 27 27" fill="none" xmlns="http://www.w3.org/2000/svg">
<path d="M13.3845 0C5.99229 0 0 5.89826 0 13.1744C0 20.4506 5.99229 26.3489 13.3845 26.3489C20.7767 26.3489 26.769 20.4506 26.769 13.1744C26.769 5.89826 20.7767 0 13.3845 0ZM19.7507 11.0883C19.7507 11.2302 19.6314 11.3469 19.4873 11.343C16.7845 11.2674 16.0367 10.0413 16.0367 10.0413V16.3082C16.0367 18.7597 14.0177 20.747 11.5272 20.747C8.86685 20.747 6.74479 18.4799 7.04592 15.8016C7.27429 13.7712 8.93826 12.1287 11.0004 11.8986C11.2793 11.8675 11.5541 11.8615 11.8222 11.8787C11.9556 11.8874 12.0573 12.0007 12.0573 12.132V13.9814C12.0573 14.1353 11.9199 14.2493 11.765 14.2321C11.5898 14.2128 11.4079 14.2148 11.222 14.24C10.2869 14.368 9.53513 15.1233 9.42061 16.0456C9.25893 17.3513 10.322 18.4553 11.6296 18.395C12.7735 18.342 13.6486 17.3612 13.6486 16.234V5.85582C13.6486 5.7159 13.7637 5.60185 13.9066 5.60185H16.0441C16.1816 5.60185 16.3008 5.70397 16.3096 5.83858C16.4072 7.2901 17.4029 8.87225 19.4994 8.98962C19.6388 8.99758 19.75 9.10566 19.75 9.24358V11.0883H19.7507Z" fill="#FFAC06"/>
</svg>
