<svg width="11" height="11" viewBox="0 0 11 11" fill="none" xmlns="http://www.w3.org/2000/svg">
<path d="M6.52077e-05 0.999876C0.000291831 0.447784 0.447813 -1.69184e-05 0.999958 -1.7108e-05L9.99969 0.000673595C10.552 0.000673173 10.9996 0.448281 10.9996 1.00057L11.0003 10.0003C11.0003 10.5524 10.5525 11 10.0004 11.0002C9.44809 11.0002 9.00048 10.5526 9.00048 10.0003L8.99979 3.41467L1.70706 10.7074C1.31654 11.0979 0.683376 11.0979 0.292852 10.7074C-0.0976725 10.3169 -0.0976725 9.68371 0.292852 9.29319L7.58558 2.00046L0.999958 1.99977C0.447674 1.99977 6.52077e-05 1.55216 6.52077e-05 0.999876Z" fill="#FFAC06"/>
</svg>
