<svg width="148" height="74" viewBox="0 0 148 74" fill="none" xmlns="http://www.w3.org/2000/svg">
<path d="M40.6336 44.871V44.8524C41.227 47.0541 42.183 48.5911 43.0909 49.6369C43.9577 50.6372 45.0312 51.4377 46.2373 51.9831C47.4433 52.5285 48.7534 52.8059 50.077 52.796C52.4351 52.796 54.8196 51.978 56.9778 50.4301C58.2716 49.6338 59.1609 47.8876 60.2129 46.6683C60.2795 46.5893 60.3492 46.5134 60.4174 46.425C62.9429 50.1435 66.8829 51.1785 68.8227 51.6572C69.3454 51.7604 69.8786 51.8004 70.4108 51.7765C73.1129 51.7765 76.176 51.2683 78.7618 49.3936C79.8048 48.7263 80.7762 47.9532 81.6607 47.0866C81.7453 47.6656 82.0493 48.1898 82.5098 48.5508C84.166 49.8538 86.0206 50.5432 87.869 50.5432C89.3061 50.5463 90.7105 50.1142 91.8973 49.3038C92.0445 49.2263 92.1886 49.1488 92.3311 49.0559C93.7643 50.1853 95.543 50.788 97.5215 50.788C97.7957 50.788 98.0746 50.7757 98.352 50.7509C101.122 50.5107 104.192 49.8212 106.689 48.01C109.381 46.2742 111.597 43.8923 113.133 41.0813C113.164 41.0271 113.193 40.9728 113.223 40.9264C113.932 43.7152 115.082 45.4939 116.506 46.7938C118.828 48.9355 121.878 50.1146 125.037 50.0924C128.248 50.0924 131.59 48.9428 134.454 46.8558C137.698 44.7641 140.138 41.7506 141.337 38.3622C142.267 36.0056 142.955 32.535 142.349 29.2984C143.562 27.7661 144.351 26.0835 144.648 24.3745L144.662 24.2909C144.949 22.1946 144.834 19.6629 144.489 19.2524C144.186 18.8703 143.837 18.5277 143.449 18.2329C143.003 17.8934 142.448 17.7299 141.889 17.7736C141.331 17.8173 140.808 18.0652 140.42 18.4699C140.287 18.6078 140.152 18.7519 140.014 18.9007C139.227 19.7435 137.859 20.8513 136.934 21.1798C136.478 21.0042 136.004 20.878 135.521 20.8033C135.244 20.7635 134.964 20.7438 134.684 20.7444H134.672C134.117 19.2384 131.547 18.3599 130.904 18.1275L130.813 18.0965C129.931 17.8261 129.014 17.6918 128.092 17.6983C127.884 17.6983 127.672 17.7061 127.46 17.7169C127.41 17.7169 127.362 17.7169 127.305 17.7169C127.17 17.7172 127.035 17.7291 126.902 17.7526L126.829 17.7665C126.425 17.8101 126.024 17.8742 125.627 17.9586L125.508 17.9788C125.508 17.9788 125.342 18.0129 125.061 18.0841L124.906 18.112H124.863C122.896 18.5654 121.041 19.4089 119.406 20.5926C117.497 21.987 115.651 24.0151 113.866 25.9812C113.838 26.0107 113.811 26.0417 113.785 26.0711C112.195 21.1689 108.111 19.8736 104.286 19.8736C103.588 19.8709 102.891 19.9442 102.208 20.0921C102.053 20.1231 101.885 20.1618 101.722 20.2052L103.86 11.064C104.757 7.20918 103.724 4.86654 102.698 3.57282C101.768 2.40925 99.8719 0.140991 96.6725 0.140991C95.7088 0.140991 94.6304 0.402833 93.6961 0.619743C93.3181 0.684816 91.6665 1.31231 91.0622 2.39531C90.7276 2.99026 90.8949 3.68128 91.0622 4.34441C92.2583 9.33335 90.4533 13.7041 89.9358 15.6392C89.1369 18.4742 87.763 21.1143 85.8997 23.3953C85.3784 24.0324 84.7881 24.6097 84.1397 25.1167C83.9754 25.2158 83.819 25.3011 83.6749 25.377C82.8199 24.8936 81.875 24.5904 80.8984 24.4861C80.807 24.0276 80.586 23.6049 80.2616 23.2683C80.0246 23.0189 77.8291 20.8374 74.0828 20.8374C73.0189 20.8427 71.9622 21.012 70.95 21.3393C70.7455 21.4044 70.544 21.4803 70.3442 21.5578C69.5824 21.7715 68.841 22.052 68.1286 22.396C69.4044 19.958 70.1843 17.2913 70.4232 14.55C70.9236 9.17841 68.3579 3.83777 63.7609 2.87716C62.8432 2.69016 61.9087 2.59723 60.9721 2.59983C60.7397 2.59983 60.5073 2.59983 60.2702 2.61687C60.1959 2.61687 60.123 2.60602 60.0487 2.60602H59.9433C54.0712 2.87871 49.3302 6.25632 46.422 11.9704C46.154 12.5002 45.7853 13.3648 45.3561 14.4819C45.3917 11.9161 45.4196 9.92675 44.0081 7.85526C42.2899 5.3329 38.7636 2.30855 31.7341 2.23573H31.4583C26.5809 2.23573 21.9003 3.56043 17.542 6.17265C10.5125 9.97013 4.7334 16.9035 2.07779 24.7278C-0.27104 31.6503 -1.3308 41.3819 2.74557 47.9388C5.31441 52.0539 9.43106 54.3175 14.341 54.3175C17.8565 54.3175 21.5455 52.3622 25.1199 50.2086C24.9526 51.0979 24.7976 51.8912 24.6876 52.4009C23.7905 56.5455 22.4348 60.1477 20.4795 61.6971C19.779 62.1011 19.0145 62.382 18.219 62.5275L18.1803 62.5353C17.7291 62.6282 17.2697 62.6754 16.8091 62.6763C15.2861 62.6763 14.1628 62.1433 13.7259 61.6165C13.5245 61.3733 14.6369 60.0904 14.6958 59.7852C14.7574 59.4557 14.7458 59.1168 14.6616 58.7923C14.5775 58.4679 14.4229 58.166 14.2089 57.908C13.9949 57.6501 13.7267 57.4425 13.4234 57.2999C13.12 57.1573 12.789 57.0833 12.4539 57.0831C12.0781 57.1019 11.7097 57.194 11.3693 57.3542C6.95053 59.1747 5.77147 63.0357 6.36022 66.2181C7.05589 69.98 10.291 72.9904 14.8399 73.5745C15.6804 73.6768 16.5263 73.7286 17.3731 73.7294C20.3804 73.7294 23.2467 73.088 25.6637 71.8702C26.7718 71.3131 27.8334 70.668 28.8384 69.9412C35.2574 65.7471 37.225 59.8193 38.6907 54.1068C39.3198 51.6278 39.9566 48.3416 40.6321 44.8664M125.932 35.8274C126.225 34.2099 128.101 30.2156 128.842 28.5981L128.888 28.6771C129.55 29.788 132.254 31.2026 133.366 31.311C133.355 31.5822 132.311 35.4866 132.226 35.8538C131.642 38.5233 128.269 39.2902 126.699 40.6568C126.508 40.7605 126.296 40.8213 126.079 40.835C126.033 40.8354 125.988 40.8302 125.943 40.8195C125.81 40.5901 125.297 39.4126 125.943 35.8305M98.18 36.4874C98.713 34.3989 101.375 29.4626 102.664 28.1627C102.703 28.1504 102.744 28.1436 102.785 28.1426C103.147 28.6895 104.351 33.5375 103.697 35.9064C102.989 38.2398 100.289 41.7041 98.0003 40.9403C97.9049 40.9856 97.8045 41.0194 97.7012 41.041C97.5788 40.4848 97.5293 39.0826 98.166 36.4874M73.996 32.6017C74.4314 33.0912 75.9637 33.6692 76.5788 33.8737C76.2085 36.2783 74.1835 41.0488 73.0649 42.3952C73.0153 42.0357 71.5015 41.5384 71.5511 40.8783C71.7432 38.3312 73.3453 34.5105 73.996 32.6063M52.9247 40.6072C53.0257 39.0343 53.2448 37.4713 53.5801 35.9312C53.6328 35.6647 54.2076 33.9062 54.268 33.5979C56.4712 32.7008 59.6474 31.136 61.6027 29.6888C61.2138 30.6587 60.9086 33.9279 60.6576 34.9877C58.8727 38.7201 57.7417 40.6273 56.1722 41.9737C56.0482 42.0218 53.7335 42.3177 53.6281 42.3177C53.5583 42.3211 53.4886 42.309 53.424 42.2822C53.3594 42.2554 53.3016 42.2146 53.2547 42.1628C52.996 41.8839 52.8705 41.306 52.9216 40.6134M28.3271 35.2216C27.9723 36.0335 27.7383 37.2838 27.447 38.9618C27.3943 39.2593 27.3417 39.5598 27.2921 39.8201C24.1112 42.609 21.121 44.1273 18.8186 44.1273C18.4312 44.129 18.0451 44.0827 17.669 43.9895C14.6059 43.2024 14.8724 36.1652 15.6951 32.5722C17.4583 24.7867 21.2558 17.6488 25.8744 13.4562C26.0882 13.2703 26.3237 13.0797 26.5964 12.8752C27.8623 12.0804 29.1482 11.6249 30.1321 11.6249C30.3258 11.6217 30.519 11.6441 30.7069 11.6915C30.9083 11.7426 31.4366 11.8789 31.7047 13.0859C32.2407 15.4967 31.0849 19.1455 29.3125 20.7041C29.2051 20.7766 29.104 20.8579 29.0103 20.9474C28.9052 21.0235 28.7949 21.0923 28.6803 21.1534C28.3609 21.3208 28.0858 21.5616 27.8776 21.8561C27.6694 22.1505 27.534 22.4901 27.4826 22.8471C27.4311 23.204 27.4651 23.568 27.5818 23.9092C27.6984 24.2505 27.8944 24.5592 28.1535 24.8099C29.8988 26.5241 32.2456 27.4873 34.6918 27.4934C36.7764 27.4875 38.8012 26.7961 40.4539 25.5257C41.6082 24.8254 44.5039 21.2727 45.353 20.1417C44.8587 21.7623 44.1429 26.3872 43.6998 28.0884C43.5542 28.0775 41.7445 27.7537 41.5679 27.7537C41.2968 27.7429 41.0132 27.7367 40.7188 27.7367C34.8313 27.7367 30.4357 30.3938 28.324 35.2201" fill="#095093"/>
<path d="M145.651 45.2491C145.284 44.3644 144.411 43.4302 143.435 43.5727C142.555 43.7013 141.983 44.3892 141.545 45.1593C141.106 45.9293 140.615 47.2788 137.613 49.3317C135.093 51.0546 131.105 52.212 124.466 52.9262C117.339 53.4422 105.874 54.0108 95.0719 54.0108C91.984 54.0108 57.5774 53.3616 45.4846 57.2815C39.5056 59.2213 35.7763 64.3233 37.4543 71.1653C38.6519 74.5413 40.3981 72.7146 40.852 72.3103C46.4514 67.3167 50.675 66.1686 53.2299 65.4094C62.2611 62.7275 79.6434 62.9568 83.2518 63.0172C87.9867 63.0978 109.337 64.0336 114.744 64.0336C125.415 64.0336 132.263 63.3395 136.954 61.7839C138.566 61.2537 140.091 60.4894 141.48 59.5156C146.858 55.7584 147.434 49.5517 145.651 45.2491Z" fill="#0F3E67"/>
<path d="M41.8034 43.833C41.8027 43.8263 41.8027 43.8195 41.8034 43.8128C42.3984 46.016 43.3528 47.553 44.2622 48.5972C45.1288 49.598 46.2022 50.3988 47.4083 50.9445C48.6144 51.4902 49.9245 51.7677 51.2483 51.7579C53.6064 51.7579 55.9909 50.9399 58.1476 49.3921C59.4746 48.5667 60.6666 47.5419 61.6817 46.3538C61.7499 46.2748 61.818 46.1988 61.8862 46.1105C64.4117 49.829 68.2897 50.8593 70.1489 51.1428C70.6745 51.2226 71.2054 51.2625 71.737 51.2621C74.4391 51.2621 77.3457 50.2303 79.9316 48.3555C80.9736 47.687 81.944 46.9128 82.8274 46.0454C82.9117 46.6241 83.2151 47.1482 83.6749 47.5096C85.3327 48.8126 87.1857 49.5005 89.0341 49.5005C90.4711 49.5029 91.8753 49.0709 93.0624 48.261C93.2174 48.1836 93.3537 48.1061 93.4947 48.0131C94.9279 49.1426 96.7081 49.7453 98.6851 49.7453C98.9609 49.7453 99.2397 49.7329 99.5171 49.7081C102.286 49.4664 105.068 48.385 107.564 46.58C110.261 44.8452 112.479 42.4626 114.018 39.6497L114.106 39.4947C114.815 42.2836 116.255 44.4527 117.677 45.748C120 47.8901 123.05 49.0692 126.209 49.0466C129.421 49.0466 132.762 47.8985 135.626 45.8115C138.871 43.7199 141.311 40.6986 142.509 37.3163C143.438 34.9613 144.126 31.4892 143.522 28.2541C144.734 26.7203 145.522 25.0377 145.821 23.3287C145.821 23.3024 145.831 23.2745 145.834 23.2466C146.12 21.1503 145.198 19.8287 144.853 19.4166C144.644 19.1034 144.386 18.8256 144.089 18.5939C143.643 18.2542 143.088 18.0907 142.529 18.1344C141.97 18.1781 141.446 18.4261 141.059 18.8309C140.927 18.9688 140.792 19.1129 140.654 19.2617C139.867 20.1045 139.117 20.9086 138.192 21.2371C137.737 21.0612 137.263 20.9345 136.781 20.859C136.503 20.8207 136.223 20.8015 135.943 20.8017H135.932C135.375 19.2942 133.326 18.2546 132.678 18.0222L132.587 17.9912C131.705 17.7211 130.788 17.5873 129.866 17.5945C129.66 17.5945 129.448 17.5945 129.234 17.6131C129.186 17.6131 129.136 17.6131 129.088 17.6131C128.953 17.6134 128.818 17.6253 128.685 17.6488L128.613 17.6627C128.208 17.7063 127.806 17.7704 127.409 17.8548L127.291 17.875C127.291 17.875 127.125 17.9091 126.843 17.9803L126.688 18.0082L126.643 18.016C124.676 18.4733 122.821 19.321 121.188 20.5089C119.281 21.9033 117.434 23.9314 115.647 25.8976L115.567 25.9874C113.977 21.0852 109.286 18.8464 105.46 18.8464C104.759 18.8452 104.06 18.9205 103.375 19.0711C103.22 19.1021 103.053 19.1393 102.89 19.1842L105.028 10.043C105.924 6.18815 104.89 3.84551 103.866 2.55025C102.937 1.38823 101.17 0 97.9786 0C96.934 0.00933002 95.8941 0.140358 94.8798 0.390437C94.5018 0.453961 94.1935 0.517488 93.8898 0.591857C93.5625 0.672991 93.2572 0.825492 92.9958 1.03844C92.7344 1.25138 92.5233 1.5195 92.3776 1.8236C92.0832 2.44334 92.2738 3.09872 92.3776 3.77424C92.9029 7.45707 92.2397 17.8022 87.0664 22.3666C86.4172 22.9383 85.9214 23.6061 85.3048 24.0879C85.1421 24.1871 84.9856 24.2723 84.84 24.3482C83.9855 23.8636 83.0404 23.5604 82.0635 23.4573C81.9715 22.9986 81.7506 22.5756 81.4267 22.238C81.1742 21.987 78.9803 19.8179 75.234 19.8179C74.1695 19.8225 73.1122 19.9918 72.0996 20.3199C71.8966 20.3849 71.6952 20.4609 71.4953 20.5383C70.7334 20.7514 69.9919 21.0319 69.2798 21.3765C70.5638 18.9356 71.3501 16.2639 71.593 13.5166C72.0919 8.14654 69.4393 4.05623 64.8362 3.09562C63.9185 2.90786 62.984 2.81492 62.0473 2.81829C61.8149 2.81829 61.5825 2.81829 61.3455 2.83533C61.2719 2.82786 61.1979 2.82423 61.1239 2.82449H61.0186C55.1465 3.09717 51.2313 5.76827 48.3231 11.4823C48.0535 12.0122 47.6848 12.8767 47.2556 13.9938C47.3102 11.4469 46.5829 8.94433 45.1717 6.82338C43.4519 4.29948 39.9271 1.27667 32.8961 1.20385H32.6203C27.7445 1.20385 23.0623 2.52701 18.7055 5.13923C11.6776 8.93207 5.89851 15.8655 3.24291 23.6913C0.895628 30.6123 -0.165684 40.3453 3.91223 46.9022C6.47952 51.0158 10.5977 53.2841 15.5061 53.2841C19.0216 53.2841 22.7447 52.1499 26.3191 49.9979C26.1502 50.8872 25.9953 51.6789 25.8853 52.1902C24.9882 56.3347 23.6 59.1112 21.6462 60.6668C20.9462 61.0715 20.1814 61.352 19.3857 61.4957H19.3454C18.8944 61.5899 18.435 61.6376 17.9742 61.6382C16.4528 61.6382 15.3295 61.1052 14.891 60.5769C14.7963 60.4743 14.7284 60.3499 14.6933 60.2148C14.6581 60.0797 14.6569 59.938 14.6896 59.8022C14.769 59.3792 14.7271 58.9423 14.5687 58.542C14.4103 58.1418 14.1418 57.7946 13.7944 57.5405C13.447 57.2864 13.0347 57.1358 12.6053 57.1061C12.1759 57.0765 11.7468 57.1689 11.3678 57.3728C8.2334 59.0601 6.6515 62.0844 7.24026 65.2668C7.93747 69.0287 11.4607 71.9492 16.0096 72.5333C16.8502 72.6356 17.6961 72.6873 18.5428 72.6882C21.5502 72.6882 24.4165 72.0468 26.835 70.829C27.9427 70.2773 29.0038 69.6369 30.0081 68.914C36.4271 64.7183 38.3964 58.792 39.862 53.078C40.4818 50.599 41.1279 47.3128 41.8034 43.8391M60.2021 33.5653C58.4172 37.2993 56.7175 39.8666 55.1449 41.2052C55.0341 41.2504 54.916 41.2751 54.7963 41.2781C54.7268 41.2812 54.6574 41.269 54.5931 41.2422C54.5288 41.2154 54.4712 41.1748 54.4245 41.1231C54.1642 40.8427 54.0402 40.2663 54.0914 39.5738C54.1935 38.0029 54.4136 36.4419 54.7499 34.904C54.8025 34.636 54.8583 34.3524 54.9187 34.0425C57.1404 33.135 59.2392 31.9518 61.1658 30.5208C60.7694 31.5114 60.4472 32.5301 60.2021 33.5684M72.7209 39.8449C72.913 37.2978 73.3236 35.1023 73.9743 33.1981C74.4057 33.6838 74.9571 34.0477 75.5733 34.2533C75.203 36.6548 73.855 40.0169 72.7426 41.354C72.6826 40.8505 72.6753 40.3421 72.7209 39.8372M99.3467 35.4494C99.8812 33.3624 101.111 30.558 102.4 29.2597C102.439 29.2461 102.48 29.2388 102.521 29.238C102.884 29.7849 103.188 31.8394 102.534 34.2099C101.826 36.5432 100.52 38.7449 99.1685 39.9038C99.0728 39.9483 98.9726 39.9821 98.8694 40.0045C98.747 39.4483 98.6975 38.0461 99.3343 35.4494M131.634 31.9029C131.619 32.2271 131.574 32.5492 131.499 32.865C130.915 35.5346 129.438 38.2661 127.869 39.628C127.678 39.7326 127.466 39.7934 127.249 39.8062C127.203 39.8063 127.157 39.8016 127.111 39.7922C126.979 39.5629 126.465 38.3839 127.111 34.8017C127.435 33.0922 127.969 31.4294 128.702 29.8515L128.749 29.9321C129.41 31.043 130.518 31.7913 131.632 31.8998M43.2149 26.742C43.0692 26.7296 42.9127 26.7234 42.7361 26.7234C42.4665 26.711 42.1814 26.7048 41.8871 26.7048C35.9995 26.7048 31.6055 29.3635 29.4999 34.1897C29.1467 35.0001 28.9127 36.2519 28.6199 37.9299C28.5688 38.2258 28.5161 38.5279 28.465 38.7882C25.2841 41.5771 22.2923 43.0955 19.9915 43.0955C19.6036 43.097 19.2169 43.0507 18.8403 42.9576C15.7788 42.1705 16.0515 35.1333 16.868 31.5403C18.6234 23.7532 22.4271 16.6122 27.0457 12.4228C27.258 12.2384 27.4951 12.0478 27.7662 11.8433C29.0336 11.0469 30.318 10.593 31.3018 10.593C31.4959 10.59 31.6896 10.6119 31.8782 10.6581C32.0781 10.7107 32.6079 10.8455 32.876 12.0525C33.4121 14.4633 32.2562 18.112 30.4838 19.6707C30.3764 19.7426 30.2754 19.8235 30.1816 19.9124C30.0772 19.9916 29.9674 20.0635 29.8532 20.1277C29.5343 20.2955 29.2597 20.5363 29.0519 20.8306C28.8441 21.1249 28.709 21.4643 28.6576 21.8209C28.6062 22.1774 28.64 22.5411 28.7562 22.8821C28.8725 23.2231 29.0679 23.5317 29.3264 23.7827C31.0718 25.4978 33.4192 26.4616 35.8662 26.4677C37.9515 26.4602 39.9764 25.7665 41.6283 24.4938C42.8004 23.7711 43.8229 22.8302 44.6403 21.722C44.146 23.3427 43.6626 25.0392 43.2195 26.742" fill="white"/>
<path d="M146.805 43.9089C146.438 43.0227 145.566 42.0884 144.588 42.2309C143.709 42.3595 143.138 43.049 142.699 43.8175C142.261 44.586 141.77 45.9386 138.767 47.9915C136.248 49.7205 132.266 50.8702 125.621 51.5798C118.486 52.0957 107.028 52.6643 96.2262 52.6643C93.1383 52.6643 58.7316 52.0151 46.6466 55.935C40.6661 57.8748 36.9368 62.9769 38.6163 69.8188C39.814 73.1949 41.5601 71.3682 42.014 70.9623C47.6134 65.9702 51.837 64.8206 54.3903 64.063C63.4231 61.381 80.8054 61.6088 84.4139 61.6708C89.1487 61.7498 110.499 62.6871 115.906 62.6871C126.575 62.6871 133.425 61.993 138.116 60.4359C139.728 59.9064 141.253 59.1421 142.642 58.1677C148.02 54.4105 148.596 48.2037 146.813 43.9027" fill="white"/>
<path d="M30.6526 21.3393C30.5754 21.3801 30.5089 21.4385 30.4586 21.5099C30.4083 21.5813 30.3756 21.6636 30.3632 21.75C30.3508 21.8365 30.3591 21.9247 30.3873 22.0073C30.4155 22.0899 30.4629 22.1647 30.5256 22.2255C31.9522 23.6303 33.8719 24.4211 35.874 24.4287C39.3724 24.4287 42.4634 22.0179 43.9431 18.1383C45.2321 14.7561 44.8324 10.892 42.9003 8.05509C41.413 5.87204 38.3204 3.25208 32.0362 3.19165H31.7682C18.1338 3.19165 8.26903 13.9442 4.88058 23.9345C2.7595 30.1815 1.62692 39.6264 5.37947 45.6767C7.65084 49.3177 11.1539 51.242 15.5076 51.242C19.6909 51.242 24.2522 49.4401 28.341 46.1694C28.4959 46.0408 28.6509 45.9184 28.7841 45.8022C28.4448 47.7017 27.8622 50.9073 27.5741 52.2398C26.6444 56.5268 24.8534 62.5724 18.9798 63.674C18.501 63.7732 15.3605 64.1203 13.4547 62.2176C12.7901 61.4166 12.5639 60.2887 12.7591 59.2506C12.7994 59.0415 12.8908 58.7285 12.7761 58.6309C12.6902 58.5729 12.5905 58.5387 12.4872 58.5316C12.3838 58.5246 12.2804 58.5449 12.1874 58.5906C9.66036 59.8549 8.48439 62.1944 8.93371 64.6486C9.39852 67.1632 11.8326 69.952 16.2234 70.516C16.991 70.6089 17.7635 70.6554 18.5366 70.6555C21.2759 70.6555 23.8757 70.0776 26.0526 68.9868C33.6445 65.1676 35.7222 59.2057 37.335 52.9153C37.8107 51.039 38.3716 48.5771 38.965 45.9602C40.4725 39.3336 42.3472 31.0863 43.6456 29.0117C43.696 28.9308 43.7247 28.8382 43.7287 28.7429C43.7328 28.6476 43.7122 28.5529 43.6688 28.4679C43.6259 28.383 43.5616 28.3108 43.4823 28.2584C43.403 28.2059 43.3113 28.1751 43.2164 28.1689C42.764 28.1364 42.3147 28.1209 41.8809 28.1209C38.2337 28.1209 33.3981 29.2395 31.0725 34.5693C30.775 35.2526 30.5287 36.6671 30.3118 37.9144C30.2111 38.4923 30.115 39.0423 30.0345 39.3971C28.1752 41.199 23.6371 45.1019 19.237 45.1019C18.6718 45.1039 18.1086 45.0352 17.5605 44.8973C12.6646 43.6393 13.5678 34.7413 14.3301 31.4179C16.1615 23.2962 20.1666 15.8096 25.0471 11.3924C27.0829 9.6153 29.4147 8.54934 31.2801 8.54934C31.6308 8.54641 31.9804 8.58965 32.3198 8.67794C33.9869 9.10556 34.5167 10.7479 34.6686 12.0493C35.042 15.241 33.4012 19.8922 30.6402 21.3455" fill="#095093"/>
<path d="M51.256 49.7283C54.1998 49.7283 57.2102 48.1789 59.5296 45.4954C60.4389 44.4008 61.2483 43.2268 61.9482 41.9877C63.7098 47.5034 68.378 48.8173 70.4139 49.1287C70.8564 49.1961 71.3034 49.2298 71.751 49.2294C77.7439 49.2294 83.946 43.5897 85.5744 36.6594C85.672 36.2442 86.4699 32.6962 85.9245 29.8237L86.0113 29.788C87.0726 29.3372 88.3725 28.7856 89.6988 27.4221C88.8342 31.3947 88.0177 35.062 86.7286 40.037C86.0826 42.3719 85.5883 43.9879 84.6695 45.0492C84.6209 45.1057 84.5841 45.1715 84.5615 45.2426C84.5389 45.3137 84.5309 45.3886 84.538 45.4628C84.5451 45.5371 84.5671 45.6091 84.6028 45.6746C84.6384 45.7402 84.687 45.7978 84.7455 45.844C86.0996 46.9085 87.5854 47.4693 89.0449 47.4693C90.7911 47.4693 92.3311 46.6853 93.4575 45.2429C94.7048 46.8372 96.5314 47.7064 98.6835 47.7064C98.9113 47.7064 99.1483 47.6955 99.3745 47.6754C104.178 47.2571 109.114 43.8097 111.649 39.0981C112.065 38.2879 112.42 37.4473 112.71 36.5835C113.508 35.9839 114.54 35.3161 115.406 34.4516C114.929 40.3795 118.407 43.7478 118.844 44.1552C120.849 46.0046 123.483 47.022 126.211 47.0014C132.099 47.0014 138.048 42.6834 140.048 36.9585C140.969 34.6654 141.528 30.5271 140.694 27.4392C141.567 26.491 145.294 22.7121 142.671 19.6924C142.454 19.5142 142.323 19.7156 142.273 19.8628C141.746 21.3982 140.812 22.4146 138.051 22.7307C137.571 22.4968 137.06 22.3335 136.533 22.2457C136.304 22.2132 136.073 22.1972 135.842 22.1977C134.864 22.1986 133.905 22.4729 133.075 22.9894C131.903 23.7425 130.934 24.7714 130.252 25.9859C129.57 27.2486 129.951 28.2511 130.241 28.7345C130.639 29.4053 131.325 29.8717 131.919 29.8717C132.139 29.876 132.354 29.8031 132.526 29.6656L132.549 29.647C132.611 29.5774 132.694 29.5291 132.785 29.5091C132.825 29.5091 132.889 29.5587 132.952 29.6377C133.338 30.1227 133.543 31.4133 133.188 32.941C132.271 37.1335 129.268 41.8002 126.426 41.8002C126.16 41.7997 125.895 41.7558 125.642 41.6701C124.248 41.2053 123.861 38.6907 124.558 34.7599C124.959 32.5428 126.183 27.0611 129.981 23.0018C131.474 21.4044 133.079 21.2619 133.688 21.2402C134.41 21.2139 131.691 18.5474 128.885 18.7612C125.563 19.006 123.794 19.9046 122.034 21.4106C120.376 22.8298 114.482 30.3969 113.477 31.2894C113.419 31.3405 113.512 28.3843 113.224 27.2719C112.118 23.0452 108.669 20.8141 105.23 20.8126C104.628 20.8126 103.868 20.7212 102.778 21.0295C101.55 21.3949 100.419 22.0301 99.4675 22.8887L102.496 9.90198C103.093 7.33469 102.765 5.09896 101.567 3.59453C100.53 2.29152 98.9221 1.60205 96.9188 1.60205C96.0372 1.61396 95.1602 1.73152 94.3066 1.95221C94.1723 1.98475 94.0552 2.06648 93.9783 2.18124C93.9014 2.29599 93.8704 2.43542 93.8913 2.57195C94.666 7.62907 93.236 12.9852 92.7696 14.7453C91.9139 17.8252 90.4224 20.6917 88.3911 23.1599C86.6868 25.2143 85.0042 26.1501 83.8096 26.5762C83.667 26.461 83.518 26.354 83.3634 26.2555C82.4789 25.697 81.4533 25.403 80.4072 25.408C77.9856 25.408 75.7282 26.9124 74.9148 29.066C74.5817 29.9492 74.656 30.8726 75.1131 31.5326C75.3058 31.8088 75.5634 32.0333 75.8633 32.1865C76.1632 32.3397 76.4962 32.4168 76.8329 32.4111H76.9878C77.1234 32.4004 77.2572 32.3728 77.386 32.329C77.6014 35.2077 75.6197 40.505 73.8891 42.3704C72.9595 43.3914 72.2034 43.9058 71.6115 43.9058C71.4353 43.9054 71.2628 43.8549 71.1142 43.7602C70.0808 43.1141 69.3712 40.7482 69.4564 39.6141C69.8824 33.9744 71.4705 29.1342 74.2067 26.0758C75.4834 24.6343 77.086 23.5188 78.8811 22.8221C76.7758 21.5588 74.2685 21.1445 71.8687 21.6632C66.793 22.8949 63.262 27.6236 61.8475 33.8319C61.0232 35.5749 58.6124 40.6243 55.6717 42.6849C55.1739 43.054 54.5745 43.2607 53.955 43.2768C53.6469 43.2788 53.3419 43.2157 53.0599 43.0916C52.7779 42.9674 52.5254 42.785 52.3189 42.5563C51.7193 41.9118 51.4389 40.9 51.5272 39.707C51.6341 38.0663 51.8641 36.4359 52.2151 34.8296C52.3065 34.3648 52.4103 33.8412 52.525 33.2245C52.6954 32.1214 52.8348 31.9029 53.0409 31.7851C56.4758 30.4326 59.7589 28.2836 62.7771 25.1973C66.2972 21.5997 68.0449 17.8781 69.0303 13.6142C69.9739 3.5434 61.1146 4.23287 61.1069 4.23287C55.8592 4.47612 52.4986 6.78466 49.8709 11.9487C48.4641 14.705 44.2777 26.9155 43.1777 35.0775C42.2775 41.7801 43.9787 45.3467 45.5637 47.1626C46.2693 47.977 47.1433 48.6285 48.1253 49.0723C49.1072 49.5161 50.1738 49.7415 51.2514 49.7329M54.065 27.5802C55.2751 23.3055 57.5433 16.2389 58.868 13.2563C59.243 12.415 60.0626 10.7169 61.3811 10.6782C61.9544 10.6627 62.1899 12.0184 62.1976 12.1842C62.2363 12.9589 62.1062 13.7893 61.9451 14.6384C60.9705 19.7931 58.098 23.5859 54.0619 27.5802M96.8243 35.3037C97.6857 31.9401 100.016 27.199 102.498 27.1975C102.718 27.199 102.936 27.2335 103.146 27.2998C104.611 27.7367 105.11 31.1158 104.199 34.3896C102.932 38.5884 100.114 42.014 97.9197 42.014C97.6112 42.0142 97.3068 41.9432 97.0303 41.8064C96.2557 41.4036 95.7909 39.4824 96.8243 35.2991" fill="#095093"/>
<path d="M145.77 50.5401C146.435 47.1145 145.77 45.0073 145.513 44.1537C145.031 43.1652 144.342 43.3681 144.069 44.5255C143.892 45.2785 143.28 47.0045 139.495 49.2448C132.33 53.4173 111.484 55.0704 75.7857 54.4522C57.277 54.226 48.1854 56.1829 43.8983 59.3529C40.0512 61.9604 39.9443 66.4397 40.8941 68.759C40.9653 68.931 41.1125 69.3788 41.5758 69.0689C41.8857 68.759 43.5791 67.3259 44.0672 66.9726C50.5636 62.2626 64.3762 59.8781 78.3808 59.8781C81.9087 59.8781 133.053 59.8611 137.473 58.1258C143.826 55.5384 145.285 53.0439 145.77 50.5463" fill="#095093"/>
<path d="M59.9572 44.558C61.0572 43.2829 62.103 41.5693 62.9815 39.9487C64.1575 45.624 68.2803 47.5406 71.3481 48.0054C77.0947 48.8839 84.1179 43.4843 85.8888 35.956C86.1243 34.9489 86.7115 31.9664 86.0747 29.4115C87.762 28.6382 89.2636 27.5117 90.478 26.1082C90.8695 25.6632 91.2372 25.1977 91.5796 24.7138C90.509 29.6439 89.6445 33.7001 88.1137 39.6047C87.4676 41.9381 87.0942 43.9228 86.084 45.0879C89.0898 47.4507 92.4364 46.7612 94.3096 43.7028C95.6668 45.9401 97.9289 46.7504 100.177 46.5552C105.16 46.1198 109.737 42.4989 112.014 38.2661C112.444 37.4858 112.807 36.6705 113.099 35.8289C114.044 35.1255 115.345 34.0859 116.295 33.0401C116.515 32.7999 116.783 32.4653 117.082 32.0655C115.833 37.9376 118.611 41.842 120.068 43.1714C126.792 49.3115 137.608 44.1335 140.38 36.1992C141.326 33.838 141.94 30.2822 141.035 27.3307C142.351 25.9487 143.285 24.3203 143.581 22.6206C143.768 21.2464 143.079 20.5073 143.062 20.5151C143.077 20.5305 141.542 23.5595 137.967 23.3039C134.822 21.7964 132.628 23.7362 131.584 25.6667C130.517 27.6406 132.359 29.0164 132.892 28.5516C134.102 27.5073 135.207 29.7539 134.573 32.4823C133.488 37.4108 129.717 42.7639 126.312 41.6096C124.579 41.0348 124.112 38.2955 124.865 34.0797C125.484 30.6711 127.175 26.8194 129.41 23.9965C130.19 22.9636 131.221 22.1476 132.405 21.6259C132.851 21.4303 133.319 21.2923 133.8 21.2154C133.309 20.5933 132.657 20.1183 131.914 19.8426C130.628 19.4367 129.187 19.4506 127.739 19.79L127.751 19.7807C126.366 20.0884 125.038 20.6112 123.816 21.33C120.731 23.2264 117.637 28.1333 115.148 30.3303C114.739 30.6928 114.346 31.012 113.983 31.2909C114.061 29.7844 113.91 28.2748 113.537 26.8132C112.346 22.2627 107.495 20.1355 103.841 20.969C102.053 21.2975 100.219 22.9352 99.2985 24.2087L102.812 9.19233C104.066 3.80055 101.04 0.887752 95.2934 2.30387C96.0588 3.93844 94.6334 12.4723 94.1485 14.2959C93.2713 17.4566 91.7418 20.3985 89.6584 22.9321C87.7295 25.2561 85.8114 26.2214 84.5285 26.6211C84.3367 26.4436 84.1293 26.2839 83.9087 26.1439C81.1943 24.4163 77.3673 25.7798 76.275 28.6817C75.7483 30.0762 76.4734 31.3606 77.7965 31.2769C78.2412 31.249 78.6564 30.8245 78.7261 31.2552C79.2157 34.2176 77.0048 40.1486 75.1363 42.1627C74.3616 43.0273 72.9191 44.4279 71.6641 43.6455C70.4417 42.8816 70.3363 40.8442 70.4479 39.3568C70.7578 35.2836 71.7137 30.0978 75.2772 26.1051C77.5068 23.606 79.7704 23.5038 79.7704 23.5038C79.7704 23.5038 77.169 20.7815 72.7983 22.1729C68.1502 23.651 64.3698 28.516 63.1365 34.01C62.0085 36.3913 59.7542 40.5173 56.8383 42.5547C54.4275 44.2435 51.5534 42.7406 51.8246 39.0888C52.0399 36.176 52.2894 35.3936 52.8317 32.5443C52.8967 32.1957 53.4111 31.875 53.8031 31.72C57.4828 30.2698 60.6203 28.0728 63.3224 25.3072C66.6303 21.9265 68.8691 17.9354 69.3293 12.9852C69.715 8.84992 67.8868 5.7388 64.3713 5.0075C62.7704 4.67381 61.117 4.68384 59.5203 5.03694C55.7646 5.92163 53.7876 7.7979 51.4775 11.6775C49.9065 14.3114 45.92 26.6505 44.8494 34.6297C42.8352 49.6802 53.6327 51.8958 59.9587 44.558M97.1434 34.5925C97.9305 31.5186 100.612 25.0903 104.164 26.195C106.113 26.7776 106.505 30.6572 105.586 33.9604C104.125 38.7991 100.473 43.1109 97.6423 41.7258C96.426 41.0906 96.127 38.6937 97.1434 34.5987M59.3436 12.5358C59.7589 11.6062 60.0687 10.9865 60.738 10.2769C61.1579 9.82757 61.8474 9.58431 62.3881 9.75474C63.3689 10.0646 63.4727 11.1414 63.5331 11.5071C63.657 12.181 63.468 13.5119 63.3456 14.1611C62.2611 19.9015 58.9237 24.1003 54.8241 28.0759C54.6816 28.2154 54.0014 28.7546 53.8945 28.705C54.7854 24.9571 57.7834 16.0529 59.3483 12.5358" fill="#006DB6"/>
<path d="M32.6653 34.4578C32.2547 35.4509 31.7543 37.792 31.4971 38.7728C28.8756 41.3416 23.2483 46.1183 18.2764 44.854C12.8133 43.4503 13.9165 33.8892 14.6431 30.7176C16.7642 21.3161 21.2682 14.2634 25.5289 10.4055C28.2698 8.01176 31.2802 7.01861 33.316 7.56709C38.0788 8.78953 36.2768 18.8774 31.7558 21.251C35.434 24.8146 41.8003 23.8509 44.2731 17.3652C46.3725 11.8604 44.129 3.28311 32.876 3.16535C20.1387 3.03366 10.0539 12.9929 6.39433 23.7718C4.07029 30.6293 3.38082 39.4793 6.84055 45.0461C11.5398 52.576 22.314 50.7509 28.8415 45.1546C29.3931 44.6528 29.9697 44.1791 30.569 43.7354C30.569 43.7354 29.5201 49.702 29.0925 51.6758C28.0978 56.2681 25.8512 62.2828 19.8056 63.4169C15.7664 64.2489 11.8512 62.2332 12.4477 59.0787C7.98088 62.2115 10.1112 68.4895 17.1453 69.3912C20.4858 69.7972 23.9207 69.289 26.6569 67.9162C34.3169 64.0645 36.1994 57.864 37.6573 52.2026C39.3616 45.4443 41.3247 31.6984 43.1885 28.7205C41.4688 28.4354 34.368 30.0901 32.6699 34.4609" fill="#006DB6"/>
<path d="M145.101 44.5504C142.678 55.1077 123.565 53.9906 88.1727 54.1115C66.5296 54.1859 56.4201 53.6203 47.1363 57.2691C42.7082 59.009 39.2346 63.3116 41.0938 67.8667C47.6182 61.2633 62.0597 59.8457 84.7641 60.2284C107.523 60.6126 127.939 61.6894 138.153 58.552C144.743 56.5378 147.645 49.5657 145.101 44.5442" fill="#006DB6"/>
</svg>
