<svg width="525" height="514" viewBox="0 0 525 514" fill="none" xmlns="http://www.w3.org/2000/svg">
<g clip-path="url(#clip0_75_690)">
<path d="M108.807 417.341C103.748 414.682 94.9167 415.24 90.4152 418.37C82.9128 415.326 76.4821 415.025 66.4503 414.682C39.3557 413.739 25.4655 422.83 23.1504 424.031C23.1504 424.031 17.6629 427.247 20.5353 430.035C25.294 434.709 27.5662 439.898 28.8523 444.915C31.2102 454.049 32.9251 491.015 33.0965 493.931C33.3966 499.849 36.3119 504.609 40.3418 507.653C43.3856 509.926 46.5581 511.47 49.902 512.456C53.7176 513.528 57.9189 514 62.1632 514C66.4074 514 70.7374 513.314 75.5818 512.328C83.7273 510.655 88.7004 504.909 89.9865 496.675C90.7153 491.872 92.173 474.676 92.3016 472.318C92.3873 470.388 95.5598 433.594 95.6027 432.736C95.7741 428.491 96.503 425.746 97.6605 433.422C98.0463 435.995 99.6325 454.178 100.318 456.279C100.962 458.338 102.119 459.238 104.177 459.238C104.348 459.238 107.306 458.981 108.55 458.724C111.122 458.252 112.151 456.88 112.194 454.092C112.194 453.449 113.051 423.645 113.051 423.345C112.88 419.871 112.022 418.07 108.893 417.341M27.4376 424.717C35.8832 420.643 43.6428 419.528 51.0167 418.156C55.5181 417.298 72.5809 416.398 85.8709 419.657C93.9307 421.844 93.8021 425.317 88.6147 427.376C67.7364 433.294 50.7595 433.551 31.1673 428.834C22.3359 427.033 26.5801 425.146 27.4376 424.717ZM92.816 431.964C91.8729 439.769 89.9437 460.782 89.6864 464.899C89.4721 467.858 87.5429 489.128 86.9427 494.317C85.9567 502.85 82.2697 507.568 73.524 509.026C56.8471 511.77 48.3587 509.026 41.928 504.008C38.927 501.65 37.2979 498.433 36.9978 494.488C36.7835 491.058 34.8114 454.349 32.4106 444.658C31.296 440.155 30.5243 436.853 27.5233 433.637C21.1784 426.818 26.8802 430.764 28.5093 431.278C35.3258 433.894 63.6637 439.769 90.158 429.906C94.5738 427.719 93.0733 429.177 92.816 432.007M96.3315 423.388C94.2737 423.473 92.2587 421.972 92.6017 420.815C92.6874 418.628 106.063 416.912 107.049 419.657C107.435 421.029 100.876 423.002 96.3743 423.388M110.007 430.935C110.007 430.935 109.493 447.274 109.407 449.461C109.407 450.576 109.279 454.564 109.279 454.564C109.279 457.008 104.263 456.665 104.091 456.665C103.105 456.665 102.762 455.807 102.676 455.293C102.676 455.293 101.519 449.504 101.305 446.845C100.447 433.508 99.5039 428.962 97.7462 426.518C96.3743 424.588 99.1181 425.36 100.833 425.06C103.963 424.503 105.935 424.031 108.207 422.401C109.879 421.201 110.007 421.158 110.05 422.401C110.136 425.232 110.05 428.148 109.964 430.978" fill="#D9D9D9"/>
<path d="M79.6974 444.872C80.512 444.572 80.3834 443.972 80.0404 443.714C79.6546 443.371 78.3256 443.371 77.8968 443.328C77.511 443.285 77.2109 443.243 76.9537 443.243C76.8679 442.771 76.6964 442.256 76.3963 441.827C76.2677 441.656 75.9248 441.056 75.4103 441.442C74.853 441.913 74.853 442.642 74.8101 443.157C74.1242 443.157 73.181 443.243 72.7094 443.457C71.9806 443.757 72.0235 444.358 72.3665 444.615C72.7523 444.958 73.4382 444.958 73.867 445.001C74.2099 445.044 74.4672 445.087 74.7244 445.129C74.6815 446.545 74.5958 448.646 74.51 451.262C73.8241 451.262 72.838 451.348 72.3665 451.562C71.6377 451.862 71.6805 452.463 72.0235 452.72C72.4093 453.063 73.0953 453.063 73.524 453.106C73.867 453.149 74.1671 453.192 74.4243 453.234C74.3385 455.121 74.2957 457.18 74.2099 459.367C73.524 459.367 72.4951 459.453 72.0235 459.667C71.2947 459.967 71.3376 460.567 71.6805 460.825C72.0664 461.168 72.7523 461.125 73.181 461.211C73.5669 461.254 73.867 461.297 74.1242 461.339C74.0384 463.312 73.9956 465.37 73.9098 467.429C73.2239 467.429 72.195 467.515 71.6805 467.729C70.9517 468.029 70.9946 468.63 71.3376 468.887C71.7234 469.23 72.4093 469.187 72.838 469.273C73.2239 469.316 73.5669 469.359 73.867 469.401C73.7812 471.417 73.7383 473.475 73.6526 475.491C72.9667 475.491 71.852 475.577 71.3376 475.791C70.6087 476.091 70.6516 476.692 70.9946 476.949C71.3804 477.292 72.0664 477.292 72.4951 477.335C72.9238 477.378 73.2668 477.421 73.5669 477.464C73.4811 479.522 73.4382 481.58 73.3525 483.553C72.6666 483.553 71.509 483.639 70.9517 483.853C70.2229 484.153 70.2658 484.754 70.6087 485.011C70.9946 485.354 71.6805 485.354 72.1092 485.397C72.5808 485.44 72.9667 485.483 73.2668 485.526C73.181 487.713 73.1381 489.728 73.0953 491.615C72.4522 491.615 71.2089 491.658 70.6087 491.915C69.8799 492.215 69.9228 492.816 70.2658 493.073C70.6516 493.416 71.3376 493.416 71.7663 493.459C72.2807 493.545 72.6666 493.588 73.0095 493.631C72.9238 496.204 72.8809 498.305 72.838 499.677C72.195 499.72 70.8231 499.72 70.2658 500.02C69.537 500.32 69.5798 500.921 69.9228 501.178C70.3086 501.521 70.9946 501.521 71.4233 501.564C72.0664 501.65 72.4951 501.693 72.8809 501.736C73.0095 502.422 73.1381 503.236 73.5669 503.88C73.6955 504.051 74.0384 504.652 74.5529 504.266C75.196 503.751 75.0673 502.893 75.1531 502.379C75.1531 502.293 75.1531 502.036 75.196 501.736C75.8819 501.693 76.7822 501.607 77.2538 501.435C78.0683 501.135 77.9397 500.535 77.5967 500.277C77.2109 499.934 75.8819 499.934 75.4532 499.892C75.4103 499.892 75.3674 499.892 75.2817 499.892C75.3674 498.348 75.4532 496.246 75.5389 493.673C76.2249 493.631 77.1252 493.545 77.5967 493.373C78.4113 493.073 78.2827 492.473 77.9397 492.215C77.5539 491.872 76.2249 491.872 75.7962 491.829C75.7104 491.829 75.6675 491.829 75.6247 491.829C75.7104 489.9 75.7533 487.841 75.839 485.611C76.525 485.568 77.4681 485.483 77.9397 485.311C78.7543 485.011 78.6257 484.411 78.2827 484.153C77.8968 483.81 76.5678 483.81 76.1391 483.767C76.0534 483.767 76.0105 483.767 75.9248 483.767C76.0105 481.752 76.0534 479.693 76.1391 477.592C76.8251 477.549 77.8111 477.464 78.3256 477.292C79.1401 476.992 79.0115 476.391 78.6685 476.134C78.2827 475.791 76.9537 475.791 76.525 475.748C76.3964 475.748 76.3535 475.748 76.2249 475.748C76.3106 473.69 76.3535 471.631 76.4392 469.573C77.1252 469.53 78.1541 469.444 78.6685 469.273C79.4831 468.973 79.3545 468.372 79.0115 468.115C78.6257 467.772 77.2966 467.772 76.8679 467.729C76.6965 467.729 76.6107 467.729 76.4821 467.729C76.5678 465.628 76.6107 463.569 76.6536 461.554C77.3395 461.511 78.4542 461.425 79.0115 461.254C79.826 460.953 79.6974 460.353 79.3545 460.096C78.9686 459.753 77.6396 459.753 77.2109 459.71C77.0394 459.71 76.9108 459.71 76.7393 459.667C76.8251 457.437 76.8679 455.379 76.9108 453.535C77.5539 453.492 78.7971 453.406 79.3545 453.234C80.169 452.934 80.0404 452.334 79.6974 452.077C79.3116 451.733 77.9826 451.734 77.5539 451.691C77.3395 451.691 77.168 451.648 76.9537 451.605C77.0394 448.775 77.0823 446.63 77.0823 445.473C77.7254 445.43 79.0544 445.387 79.6546 445.172" fill="#D9D9D9"/>
<path d="M145.29 306.187C145.719 311.977 148.163 317.294 151.892 321.711C156.094 326.643 161.367 330.631 166.254 334.876C171.013 339.036 175.686 343.239 180.273 347.57C184.432 351.472 193.735 360.949 193.992 361.25C193.992 361.25 194.121 361.378 194.163 361.421C194.163 361.421 194.163 361.421 194.206 361.464C194.292 361.593 194.421 361.678 194.506 361.807C194.721 362.021 194.892 362.236 195.107 362.45C195.921 363.351 196.736 364.209 197.507 365.152C198.922 366.739 200.251 368.368 201.537 370.084C202.052 370.898 202.695 371.627 203.381 372.271C203.638 372.485 203.895 372.699 204.152 372.914C202.909 374.415 201.88 376.773 202.523 379.99C203.252 383.42 205.567 385.993 208.182 386.208C209.94 386.379 211.483 385.35 212.255 383.463C213.198 381.19 213.155 377.931 212.941 375.358C214.913 377.845 217.657 380.847 219.8 381.491C221.944 382.134 224.173 381.362 225.416 379.561C226.145 378.446 227.174 375.873 225.245 371.413C227.431 372.871 229.618 373.471 232.147 373.171C233.433 372.914 235.877 371.756 236.692 369.14C237.335 367.082 236.863 364.637 235.277 361.807C238.792 364.251 240.721 364.509 243.165 362.622C243.508 362.365 243.808 362.064 244.065 361.721C245.009 360.563 245.437 359.02 245.18 357.433C244.923 355.803 244.065 354.26 242.694 352.887C245.523 353.316 248.395 353.145 250.968 351.258C253.283 349.071 253.883 345.083 252.297 342.381C251.568 341.137 249.339 338.521 243.937 339.851C243.851 339.636 243.765 339.379 243.637 339.165C243.379 338.736 243.036 338.307 242.694 337.964C241.579 336.763 240.378 335.691 239.135 334.576C237.249 332.904 235.405 331.188 233.605 329.43C233.048 328.873 232.49 328.315 231.933 327.758C231.676 327.5 231.376 327.2 231.118 326.943C231.033 326.857 230.947 326.771 230.861 326.686C230.861 326.686 230.818 326.643 230.775 326.6C230.604 326.428 230.475 326.257 230.347 326.085C229.704 325.399 229.103 324.67 228.546 323.941C225.073 319.524 222.201 314.678 219.543 309.747C216.628 304.386 213.884 298.554 211.398 292.851C210.111 289.849 208.954 286.761 207.239 283.974C205.653 281.401 203.424 278.999 200.508 277.927C197.893 276.984 194.978 276.941 192.491 278.27C189.705 279.771 188.504 282.816 188.547 285.818C188.547 288.991 190.048 291.907 191.505 294.609C191.505 294.652 191.677 294.909 191.677 294.952C191.763 295.081 191.805 295.209 191.891 295.338C192.02 295.595 192.106 295.895 192.191 296.153C192.191 296.238 192.191 296.281 192.191 296.324C192.191 296.453 192.191 296.581 192.191 296.71C192.191 296.453 192.191 296.667 192.191 296.796C192.191 296.796 192.148 296.796 192.106 296.796H192.02C191.891 296.753 191.763 296.667 191.634 296.624C191.891 296.753 191.72 296.667 191.591 296.581C191.505 296.496 191.377 296.41 191.291 296.324C191.077 296.153 190.905 295.981 190.691 295.767C190.691 295.767 190.648 295.681 190.605 295.638C190.476 295.509 190.391 295.381 190.262 295.252C189.791 294.695 189.276 294.137 188.762 293.58C187.69 292.422 186.618 291.307 185.503 290.192C183.317 288.091 180.959 286.161 178.344 284.617C175.815 283.073 173.028 282.001 170.07 281.529C167.369 281.101 164.625 281.272 161.967 281.915C156.865 283.159 152.193 286.418 149.192 290.749C146.062 295.252 144.776 300.741 145.205 306.187M238.449 349.671C238.449 349.671 238.364 349.671 238.321 349.671C238.492 349.5 238.706 349.328 238.878 349.156C239.95 348.127 241.064 347.141 242.05 346.026C242.865 345.125 243.637 344.139 243.98 342.981C244.108 342.638 244.151 342.295 244.194 341.995C247.195 341.18 249.424 341.695 250.453 343.453C251.525 345.297 251.096 348.256 249.596 349.628C246.466 351.987 242.351 350.829 238.406 349.714M231.418 356.104C231.418 356.104 231.547 355.975 231.59 355.932C233.219 354.431 234.805 352.93 236.434 351.386C240.293 352.973 242.779 355.289 243.122 357.733C243.294 359.02 242.865 360.135 241.879 360.907C239.778 362.536 238.578 361.936 231.376 356.104M221.301 365.023C224.13 362.622 226.874 360.178 229.618 357.69C234.719 363.394 235.191 366.696 234.634 368.497C234.119 370.169 232.49 370.941 231.804 371.07C228.589 371.456 225.974 369.955 221.301 365.066M213.027 371.928C215.213 370.169 217.4 368.368 219.5 366.567C219.5 366.567 219.586 366.481 219.629 366.438C225.674 373.943 224.216 377.417 223.616 378.317C222.93 379.389 221.644 379.775 220.401 379.432C218.514 378.875 215.17 374.929 212.984 371.928M206.039 373.943C206.81 374.243 207.582 374.415 208.397 374.372C209.211 374.329 209.94 374.072 210.626 373.686C210.969 376.173 211.312 380.204 210.283 382.648C209.983 383.335 209.425 384.149 208.354 384.064C206.982 383.935 205.181 382.305 204.581 379.518C203.981 376.645 205.138 374.844 205.996 373.943M197.036 359.963C200.766 358.505 207.839 355.246 214.827 349.414C220.358 344.782 225.717 338.479 229.832 330.073C229.961 330.245 230.732 330.974 230.775 331.06C232.747 333.032 233.691 333.89 235.748 335.777C237.035 336.935 238.364 338.05 239.564 339.25C239.693 339.379 239.821 339.465 239.907 339.593C239.907 339.593 239.993 339.679 239.993 339.722C240.164 339.894 240.293 340.065 240.464 340.28C240.593 340.451 240.721 340.666 240.85 340.837C240.85 340.837 240.85 340.923 240.893 340.966V341.052C240.893 341.052 240.893 341.051 240.893 341.009C240.893 341.009 240.893 341.009 240.893 341.052C240.893 341.052 240.893 341.094 240.893 341.137C240.893 341.18 240.893 341.266 240.893 341.309C240.893 341.352 240.893 341.395 240.893 341.437C240.893 341.437 240.893 341.523 240.893 341.609C240.893 341.652 240.807 341.823 240.807 341.866C240.764 341.995 240.721 342.081 240.636 342.209C240.55 342.338 240.507 342.467 240.421 342.595C240.55 342.338 240.421 342.552 240.378 342.681C240.207 342.896 240.078 343.11 239.907 343.324C239.092 344.311 238.149 345.211 237.206 346.112C232.79 350.357 228.46 354.345 223.83 358.462C220.529 361.378 217.228 364.251 213.798 367.039C212.769 367.896 211.741 368.711 210.712 369.569C210.412 369.826 210.069 370.084 209.768 370.341C209.597 370.47 209.468 370.555 209.297 370.684C209.168 370.77 209.04 370.855 208.954 370.898C208.74 370.984 208.568 371.027 208.354 371.113C208.354 371.113 208.354 371.113 208.311 371.113C208.225 371.113 208.139 371.113 208.011 371.113C208.011 371.113 207.968 371.113 207.925 371.113C207.882 371.113 207.796 371.113 207.754 371.113C207.754 371.113 207.411 371.07 207.239 371.027C207.325 371.027 207.411 371.113 207.239 371.027H207.196C207.11 371.027 207.025 370.984 206.982 370.941C206.81 370.855 206.639 370.77 206.467 370.684C206.467 370.684 206.339 370.598 206.296 370.555C205.996 370.341 205.696 370.126 205.438 369.869C205.31 369.74 205.181 369.612 205.053 369.483C205.053 369.483 205.053 369.44 205.01 369.44C204.838 369.226 204.667 369.011 204.495 368.797C204.367 368.626 204.238 368.454 204.152 368.282C204.152 368.24 204.109 368.197 204.067 368.154C204.024 368.068 203.981 368.025 203.895 367.939C202.738 366.438 201.537 364.98 200.294 363.522C199.522 362.622 198.579 361.593 196.993 359.92M148.377 303.529C148.377 303.529 148.377 303.529 148.377 303.486C148.377 303.4 148.377 303.314 148.377 303.271C148.377 303.1 148.377 302.971 148.377 302.8C148.377 302.757 148.377 302.671 148.377 302.628V301.985C148.377 301.985 148.42 301.942 148.42 301.899C148.506 301.256 148.591 300.655 148.677 300.055C148.806 299.455 148.934 298.811 149.106 298.211V298.125V297.954C149.106 297.954 149.234 297.654 149.277 297.525C149.363 297.225 149.492 296.925 149.62 296.624C149.835 296.024 150.092 295.466 150.392 294.909C150.392 294.909 151.164 293.494 151.206 293.451C151.721 292.679 152.278 291.95 152.878 291.221L153.307 290.749C153.307 290.749 153.436 290.621 153.479 290.535C153.693 290.278 153.907 290.063 154.165 289.849C154.165 289.849 154.336 289.677 154.379 289.634C154.422 289.591 154.593 289.463 154.593 289.42C155.065 288.991 155.536 288.605 156.051 288.262C156.48 287.919 158.666 286.59 158.666 286.59C158.752 286.547 158.88 286.461 158.966 286.418C159.738 286.032 160.552 285.732 161.41 285.432L162.224 285.174C162.224 285.174 162.396 285.132 162.482 285.089C162.653 285.046 162.825 285.003 162.996 284.96C163.039 284.96 163.125 284.96 163.168 284.96C163.468 284.917 163.768 284.831 164.025 284.789C164.625 284.703 165.268 284.617 165.868 284.574C166.169 284.574 166.511 284.574 166.812 284.574C166.983 284.574 167.112 284.574 167.24 284.574C167.283 284.574 172.428 284.531 176.972 287.662C176.972 287.662 177.101 287.747 177.144 287.79C177.186 287.79 177.229 287.876 177.229 287.876C177.358 287.962 177.529 288.048 177.658 288.133C177.958 288.305 178.215 288.519 178.515 288.691C178.987 289.034 179.501 289.42 179.973 289.763L181.688 291.221C182.288 291.736 182.931 292.25 183.488 292.808C183.874 293.151 184.217 293.537 184.603 293.923L185.075 294.394C185.289 294.609 185.632 294.995 185.761 295.081C185.846 295.166 186.189 295.552 186.361 295.767C186.79 296.238 189.105 298.769 189.147 298.811C190.091 299.626 191.248 300.956 192.534 300.698C192.877 300.655 193.992 300.484 194.249 300.312C194.764 299.926 195.192 299.369 195.578 298.039C195.578 298.039 196.393 296.024 193.949 292.636C193.606 292.164 193.349 291.521 193.049 290.835C192.749 290.149 192.449 289.463 192.191 288.777C191.934 288.091 191.805 287.576 191.72 286.89C191.634 286.204 191.591 285.603 191.634 285.089C191.634 284.703 191.72 284.317 191.805 283.974C191.805 283.888 191.805 283.802 191.848 283.716C191.891 283.545 191.934 283.416 192.02 283.245C192.106 283.073 192.148 282.902 192.234 282.73C192.234 282.73 192.234 282.687 192.277 282.644L192.62 282.13C192.62 282.13 192.792 281.872 192.877 281.787C192.92 281.744 193.092 281.572 193.134 281.529C193.22 281.487 193.306 281.401 193.349 281.358C193.563 281.186 193.778 281.058 194.035 280.929C194.078 280.929 194.163 280.886 194.206 280.843C194.335 280.8 194.463 280.757 194.592 280.672C194.721 280.629 194.849 280.586 194.978 280.543C195.021 280.543 195.192 280.5 195.192 280.5C195.45 280.457 195.707 280.414 196.007 280.372C196.135 280.372 196.307 280.372 196.436 280.372C196.436 280.372 196.65 280.372 196.736 280.372C196.779 280.372 196.864 280.372 196.907 280.372C196.993 280.372 197.036 280.372 197.121 280.372C197.25 280.372 197.422 280.372 197.55 280.414C197.85 280.414 198.108 280.5 198.408 280.586C198.493 280.586 198.579 280.629 198.708 280.672C198.708 280.672 198.708 280.672 198.793 280.672C198.836 280.672 199.051 280.757 199.094 280.757C199.351 280.843 199.651 280.972 199.908 281.101C200.165 281.229 200.423 281.358 200.68 281.487C200.68 281.487 200.808 281.572 200.894 281.615C201.023 281.701 201.108 281.787 201.237 281.872C201.966 282.387 202.523 282.945 203.038 283.545L203.466 284.06C203.681 284.36 203.938 284.703 204.152 285.046C204.838 286.075 205.438 287.233 205.953 288.348L206.382 289.206C206.982 290.535 207.496 291.864 208.096 293.194C208.439 294.051 209.254 295.81 210.026 297.525L210.369 298.254C211.14 299.969 211.826 301.47 211.955 301.685C212.469 302.757 213.155 304.129 213.927 305.587L214.399 306.488C215.256 308.16 216.199 309.918 217.057 311.505L217.4 312.191C218.9 314.936 220.058 317.08 220.1 317.037C220.272 317.294 220.443 317.594 220.615 317.852C221.301 318.967 223.059 321.368 224.859 323.77L226.231 325.571C226.831 326.343 226.96 326.943 227.474 327.586C225.931 330.931 221.687 336.892 221.687 336.892C217.099 344.782 205.396 352.115 202.052 353.917C200.251 354.86 195.064 357.69 194.935 357.733C192.406 355.074 189.962 352.501 189.576 352.158C188.547 351.129 187.518 350.143 186.489 349.156L182.031 344.825C180.445 343.367 178.387 341.48 177.101 340.28L176.629 339.851C174.786 338.178 170.799 334.662 167.54 331.832L167.069 331.403C164.797 329.43 162.996 327.843 162.739 327.629C161.11 326.257 159.523 324.842 157.98 323.384L157.509 322.912C156.908 322.354 156.308 321.797 155.751 321.197C155.365 320.811 154.808 320.167 154.336 319.61C154.036 319.267 153.736 318.881 153.479 318.495L152.707 317.466C152.321 316.908 151.935 316.394 151.592 315.836C151.378 315.493 151.206 315.193 151.035 314.85C151.035 314.807 150.992 314.764 150.949 314.721C150.864 314.592 150.821 314.464 150.735 314.335C150.563 313.949 150.135 312.834 149.792 311.977L149.492 311.162C149.492 311.162 149.363 310.819 149.363 310.776C149.277 310.476 149.192 310.133 149.106 309.832C149.106 309.704 149.02 309.532 148.977 309.404C148.977 309.361 148.977 309.318 148.977 309.318C148.977 309.318 148.977 309.318 148.977 309.232C148.849 308.632 148.72 307.988 148.634 307.345C148.463 306.102 148.377 304.815 148.42 303.571" fill="#D9D9D9"/>
<path d="M422.367 122.26C418.465 124.19 413.278 119.988 413.063 119.645C408.605 115.185 407.362 113.212 405.818 109.91C402.474 102.148 403.46 97.0022 407.962 95.0295C414.478 92.1992 418.165 97.6883 420.009 101.29C421.123 103.478 424.038 96.4447 429.097 97.0022C440.029 98.2029 436.514 115.27 422.367 122.26Z" fill="#D9D9D9"/>
<path d="M422.367 79.9348C418.465 81.8645 413.278 77.662 413.063 77.3189C408.605 72.859 407.362 70.8864 405.818 67.5844C402.474 59.8225 403.46 54.6765 407.962 52.7038C414.478 49.8735 418.165 55.3626 420.009 58.9648C421.123 61.1519 424.038 54.119 429.097 54.6765C440.029 55.8772 436.514 72.9448 422.367 79.9348Z" fill="#D9D9D9"/>
<path d="M422.367 37.9089C418.465 39.8386 413.278 35.6361 413.063 35.293C408.605 30.8331 407.362 28.8605 405.818 25.5585C402.474 17.7966 403.46 12.6506 407.962 10.678C414.478 7.84766 418.165 13.3367 420.009 16.9389C421.123 19.126 424.038 12.0931 429.097 12.6506C440.029 13.8513 436.514 30.9189 422.367 37.9089Z" fill="#D9D9D9"/>
<path d="M467.124 122.26C463.223 124.19 458.035 119.988 457.821 119.645C453.362 115.185 452.119 113.212 450.576 109.91C447.232 102.148 448.218 97.0022 452.719 95.0295C459.236 92.1992 462.923 97.6883 464.766 101.29C465.881 103.478 468.796 96.4447 473.855 97.0022C484.787 98.2029 481.271 115.27 467.124 122.26Z" fill="#D9D9D9"/>
<path d="M467.124 79.9348C463.223 81.8645 458.035 77.662 457.821 77.3189C453.362 72.859 452.119 70.8864 450.576 67.5844C447.232 59.8225 448.218 54.6765 452.719 52.7038C459.236 49.8735 462.923 55.3626 464.766 58.9648C465.881 61.1519 468.796 54.119 473.855 54.6765C484.787 55.8772 481.271 72.9448 467.124 79.9348Z" fill="#D9D9D9"/>
<path d="M467.124 37.9089C463.223 39.8386 458.035 35.6361 457.821 35.293C453.362 30.8331 452.119 28.8605 450.576 25.5585C447.232 17.7966 448.218 12.6506 452.719 10.678C459.236 7.84766 462.923 13.3367 464.766 16.9389C465.881 19.126 468.796 12.0931 473.855 12.6506C484.787 13.8513 481.271 30.9189 467.124 37.9089Z" fill="#D9D9D9"/>
<path d="M511.881 122.26C507.98 124.19 502.793 119.988 502.578 119.645C498.12 115.185 496.877 113.212 495.333 109.91C491.989 102.148 492.975 97.0022 497.477 95.0295C503.993 92.1992 507.68 97.6883 509.524 101.29C510.638 103.478 513.553 96.4447 518.612 97.0022C529.544 98.2029 526.029 115.27 511.881 122.26Z" fill="#D9D9D9"/>
<path d="M511.881 79.9348C507.98 81.8645 502.793 77.662 502.578 77.3189C498.12 72.859 496.877 70.8864 495.333 67.5844C491.989 59.8225 492.975 54.6765 497.477 52.7038C503.993 49.8735 507.68 55.3626 509.524 58.9648C510.638 61.1519 513.553 54.119 518.612 54.6765C529.544 55.8772 526.029 72.9448 511.881 79.9348Z" fill="#D9D9D9"/>
<path d="M511.881 37.9089C507.98 39.8386 502.793 35.6361 502.578 35.293C498.12 30.8331 496.877 28.8605 495.333 25.5585C491.989 17.7966 492.975 12.6506 497.477 10.678C503.993 7.84766 507.68 13.3367 509.524 16.9389C510.638 19.126 513.553 12.0931 518.612 12.6506C529.544 13.8513 526.029 30.9189 511.881 37.9089Z" fill="#D9D9D9"/>
<path d="M60.7913 208.585C61.6059 212.101 64.564 215.746 67.0934 218.062C67.0934 218.319 67.0934 218.534 67.0076 218.748C60.8342 228.011 54.9608 236.159 52.8601 248.595C52.3886 251.211 52.6029 255.199 55.2609 256.528C56.6328 257.214 58.7335 256.914 61.2629 251.854C65.2499 244.092 66.0645 230.584 69.8371 224.409C70.0086 224.108 70.6945 223.036 71.1661 222.479C72.5809 223.808 74.4672 225.309 76.4393 226.424C77.9398 227.239 79.4831 227.882 80.9836 228.097C85.8709 228.869 89.3006 227.711 92.9447 225.781C95.2597 224.537 95.6455 223.68 95.6884 223.036C95.7742 221.879 94.9167 220.849 92.6446 219.22L92.5159 219.134C91.7871 218.619 89.9008 217.633 89.0434 217.118C92.7303 216.518 96.5887 214.631 99.3753 212.444C101.562 210.686 101.862 209.871 101.819 209.271C101.776 208.242 100.79 207.513 98.2607 206.698H98.0892C97.832 206.569 97.5747 206.483 97.2746 206.398C97.6605 206.312 98.0463 206.226 98.3893 206.14C103.577 204.639 106.363 201.938 109.021 198.336C110.736 196.02 110.693 195.034 110.436 194.347C110.007 193.19 108.678 192.546 105.72 192.032H105.549C105.549 192.032 105.249 191.946 105.12 191.946C105.292 191.86 105.506 191.774 105.677 191.646C110.222 189.03 112.322 185.857 113.994 181.825C115.109 179.252 114.852 178.309 114.466 177.709C113.78 176.679 112.365 176.379 109.45 176.594H109.279C109.279 176.594 109.193 176.594 109.15 176.594C110.908 175.136 112.408 173.506 113.266 172.091C115.881 167.803 116.567 163.943 117.081 160.813V160.641C117.681 157.468 117.51 155.881 116.481 155.023C115.881 154.509 114.895 154.166 111.937 155.023C107.392 156.396 103.662 158.283 100.318 162.914C99.0752 164.629 98.2178 166.902 97.7034 169.218C97.2318 167.374 96.5887 165.83 95.9885 164.501L95.9028 164.329C95.0025 162.228 94.145 160.77 92.816 160.598C92.1301 160.512 91.2298 160.684 89.515 162.699C86.8998 165.787 85.0992 168.789 84.842 173.678C84.842 174.192 84.842 174.707 84.842 175.221C84.6277 174.964 84.4133 174.707 84.1989 174.45L84.0703 174.321C82.2269 172.091 81.0693 171.276 79.9118 171.491C79.2259 171.619 78.4113 172.048 77.2967 174.578C76.0106 177.494 74.2528 180.668 74.6387 183.841C73.0096 182.512 72.195 182.469 71.5948 182.597C70.4802 182.898 69.7942 184.098 69.194 186.886V187.057C68.6367 189.416 68.0365 192.289 68.2937 195.848C66.7933 194.09 65.7644 193.447 64.7354 193.618C64.0924 193.704 63.2778 194.133 62.1632 196.534C60.4483 200.265 59.548 203.782 60.6627 208.585M73.7384 186.328C77.211 189.416 78.6686 192.032 79.7403 195.848C80.8121 199.622 76.9966 208.499 76.1392 208.585C75.7533 208.542 75.7105 208.499 74.2528 205.368C73.0953 202.881 71.552 199.322 71.2519 197.478C70.6088 193.447 71.2519 190.445 71.8521 187.743V187.572C72.1522 186.371 72.3665 185.728 72.538 185.385C72.8381 185.556 73.2239 185.857 73.7384 186.328ZM87.5429 184.227C88.1002 185.985 89.2577 192.761 83.6416 198.507C83.4701 198.679 79.183 189.244 78.4113 186.028C77.511 182.254 78.0255 179.681 79.869 175.565C80.1262 174.964 80.3834 174.535 80.5549 174.278C80.855 174.492 81.3694 175.007 82.1411 175.95L82.2697 176.079C84.0275 178.223 86.3425 180.453 87.5858 184.27M90.3295 186.714C90.3295 186.714 90.3724 186.714 90.4153 186.714C90.4153 186.714 90.4153 186.8 90.3724 186.8C90.3724 186.757 90.3724 186.714 90.3724 186.671M96.2029 174.235C96.2029 175.908 95.7313 178.566 94.7452 180.796C93.6735 183.198 90.9726 186.285 90.844 186.242C90.6725 186.242 87.3285 177.194 87.6715 173.721C88.0145 170.118 88.9576 167.588 91.7014 164.372C92.0444 163.986 92.3445 163.686 92.5588 163.471C92.7732 163.772 93.0733 164.329 93.4591 165.273V165.444C94.5309 167.846 96.1171 170.461 96.2029 174.192M104.863 175.908C102.205 177.666 99.9327 178.223 99.5039 178.095C98.6465 177.023 100.276 167.974 102.848 164.629C105.463 161.241 108.078 159.312 112.88 157.854C113.523 157.639 114.037 157.553 114.423 157.511C114.423 157.939 114.423 158.711 114.166 159.998V160.169C113.609 163.171 113.008 166.602 110.693 170.376C109.664 172.091 107.392 174.235 104.906 175.865M104.306 189.116C100.919 191.045 89.8579 193.533 89.8579 193.49C89.6007 193.19 92.3016 188.43 94.1879 186.114C95.9028 184.013 98.0892 182.126 99.804 181.354C100.19 181.182 100.576 181.011 100.962 180.839C101.948 180.367 102.719 180.153 103.92 179.896C105.935 179.424 107.778 179.295 109.493 179.21H109.664C110.908 179.124 111.636 179.167 112.022 179.21C111.937 179.553 111.808 180.024 111.551 180.625C109.75 184.87 107.821 187.143 104.391 189.116M71.8949 219.477C71.3805 218.834 71.1232 218.834 73.0953 218.019C73.7384 217.762 74.5529 217.504 75.6247 217.247C78.1541 216.69 80.855 216.604 82.5698 217.033C86.2996 217.933 88.7862 219.649 90.9726 221.15L91.1012 221.235C92.0872 221.921 92.5588 222.35 92.816 222.608C92.5588 222.779 92.173 223.079 91.6157 223.337C87.8001 225.395 84.9706 225.952 81.3266 225.395C77.854 224.837 73.8241 221.578 71.8521 219.434M68.3366 221.535C68.6367 222.35 65.3356 229.769 65.0355 230.884C62.9349 238.517 61.8631 243.835 58.4763 251.211C58.3476 251.511 56.9758 254.084 56.0755 253.312C55.0894 252.411 55.4324 249.367 55.6039 248.681C57.233 240.619 60.4055 233.586 64.6497 226.381C65.5071 224.795 68.1651 220.935 68.3366 221.535ZM80.7264 209.442C83.2129 208.285 85.9567 207.513 87.7572 207.384C91.7014 207.17 94.4023 208.07 96.8459 208.842H97.0174C98.0892 209.228 98.6465 209.485 98.9466 209.657C98.7323 209.914 98.3464 210.257 97.832 210.643C94.1879 213.516 91.3584 214.331 87.5429 214.803C83.7702 215.275 76.2249 212.573 76.2249 212.53C76.3535 212.187 78.0255 210.729 80.7693 209.442M82.2697 204.253C81.8839 203.825 85.7423 199.836 88.186 197.95C90.4153 196.277 93.0304 194.905 94.9167 194.519C98.9895 193.661 102.162 193.275 105.12 194.176C105.12 194.176 107.435 194.862 107.607 195.248C107.735 195.591 107.349 196.363 106.964 196.92C104.177 200.737 101.39 201.895 97.6176 203.31C94.0593 204.682 83.9417 206.097 82.3126 204.211M63.3207 207.984C62.5061 204.339 62.8491 201.552 64.6497 197.564C64.9069 197.006 65.1213 196.577 65.3356 196.32C65.6357 196.534 66.1073 197.006 66.8361 197.95L66.9219 198.078C68.5938 200.137 70.4802 202.495 71.5948 206.183C72.1093 207.856 71.8949 210.386 71.5091 212.916C71.3805 213.688 70.6088 216.004 70.1372 217.118C69.7942 217.89 69.537 217.976 69.0226 217.376C66.9219 214.803 64.0495 211.372 63.2778 207.941" fill="#D9D9D9"/>
<path d="M17.7915 145.589V145.761C17.4914 148.291 17.1913 151.421 18.2631 155.324C18.6061 156.61 19.4206 158.154 20.4495 159.698C20.4495 159.698 20.4067 159.698 20.3638 159.698H20.2352C18.0059 158.84 16.8484 158.797 16.1195 159.441C15.6908 159.784 15.305 160.47 15.5622 162.7C15.9909 166.173 16.8912 169.089 19.8493 172.091C19.9779 172.22 20.0637 172.306 20.1923 172.434C20.0637 172.434 19.9779 172.434 19.8493 172.434H19.7207C17.3199 172.134 16.1624 172.348 15.5622 173.163C15.2193 173.635 15.0049 174.407 15.7766 176.551C17.0198 179.896 18.6061 182.598 22.2501 184.913C22.5073 185.085 22.7646 185.213 23.0647 185.385C22.8503 185.385 22.5931 185.385 22.3787 185.385H22.2501C20.1066 185.471 19.2063 185.771 18.949 186.586C18.7776 187.057 18.8204 187.744 20.1494 189.588C21.8214 191.903 24.3937 194.219 27.0946 195.463C26.3229 195.677 24.6509 196.02 23.965 196.277H23.8363C21.7357 197.049 20.8354 197.693 20.6639 198.593C20.5781 199.108 20.6639 199.837 22.1644 201.338C24.5223 203.653 26.9231 205.283 30.8672 205.755C32.0676 205.883 33.3966 205.755 34.7256 205.454C36.5262 205.026 38.2839 204.297 39.6558 203.568C39.913 204.082 40.1703 205.068 40.256 205.369C41.7994 210.943 39.4414 221.536 40.8133 228.397C41.6279 232.857 43.2141 233.543 44.4145 233.329C46.7295 232.9 47.8013 229.898 48.0157 227.754C49.1303 217.719 46.3866 210.129 43.6428 201.638C43.6428 201.466 43.6428 201.295 43.7286 201.08C46.1722 199.88 49.2589 197.693 50.6737 195.162C52.6029 191.689 52.6458 188.773 52.1742 185.514C51.8741 183.412 51.3167 182.898 50.8452 182.683C50.0735 182.34 49.1732 182.598 47.6298 183.627C48.6159 180.925 48.7874 178.567 48.916 176.637V176.508C49.0875 174.235 48.8302 173.12 48.0157 172.649C47.587 172.391 46.9868 172.263 45.4005 172.906C46.3866 170.504 45.7435 167.717 45.4005 165.187C45.1004 163 44.5431 162.485 44.0715 162.228C43.2141 161.842 42.1423 162.185 40.2131 163.514L40.0845 163.6C39.8702 163.772 39.6558 163.9 39.4414 164.072C39.6129 163.686 39.7415 163.257 39.8273 162.871C40.6847 159.055 39.9559 156.31 38.6269 153.394C37.7695 151.464 37.0835 151.121 36.5691 151.035C35.4973 150.864 34.5113 151.807 33.3537 153.222L33.268 153.308C32.5392 154.252 31.6818 155.281 30.9101 156.567C30.9958 154.681 30.8672 152.751 30.267 151.121C28.7237 146.79 26.2371 144.56 23.0647 142.459C21.0069 141.129 20.1494 141.215 19.5921 141.472C18.6061 141.901 18.1345 143.059 17.8773 145.632M32.4106 171.233C32.4106 171.233 30.9101 168.232 30.61 166.173C30.3528 164.244 30.5242 162.056 30.9101 160.77C31.8104 157.897 33.611 156.224 34.8971 154.595L34.9828 154.509C35.4973 153.866 35.8403 153.48 36.0975 153.308C36.2261 153.523 36.3976 153.823 36.5691 154.209C37.9838 157.296 38.1553 159.441 37.6409 162.314C37.1264 165.058 32.5821 171.319 32.4535 171.276M32.6678 171.791C32.6678 171.791 32.6678 171.748 32.6678 171.705C32.6678 171.705 32.6678 171.705 32.7107 171.705V171.791M35.2401 182.255C32.1962 176.594 34.5541 171.619 35.3687 170.376C37.1693 167.717 39.4414 166.516 41.242 165.23L41.3706 165.144C42.1852 164.587 42.6568 164.329 42.9569 164.201C43.0426 164.458 43.1284 164.844 43.2141 165.358C43.7286 168.961 43.5571 171.062 42.0137 173.764C40.6847 176.079 35.3258 182.426 35.2401 182.255ZM40.9848 189.588C39.1842 191.689 39.1413 191.732 38.8413 191.689C38.1982 191.432 37.2121 183.755 38.8413 181.054C40.5132 178.352 42.1852 176.68 45.572 175.05C46.0436 174.836 46.4294 174.664 46.6867 174.578C46.7295 174.879 46.7724 175.436 46.6867 176.38V176.508C46.5152 178.695 46.3866 181.182 45.0147 184.141C44.3716 185.514 42.3996 187.872 40.9848 189.545M41.9708 203.396C42.2281 203.01 43.4285 206.569 43.7714 207.942C45.4863 214.417 46.3866 220.549 45.8721 227.111C45.8292 227.668 45.4434 230.112 44.4574 230.584C43.5999 231.013 43.0855 228.697 43.0855 228.44C42.0995 222.007 42.4424 217.633 42.4853 211.287C42.4853 210.343 41.585 203.911 42.0137 203.353M41.5421 199.579C41.4135 198.593 41.3278 196.663 41.4135 196.02C41.6707 194.005 42.0566 191.989 42.8283 190.788C44.5431 188.215 46.4723 186.8 48.23 185.557L48.3586 185.471C49.1303 184.913 49.6019 184.656 49.8591 184.527C49.9449 184.785 50.0306 185.128 50.1164 185.642C50.6308 189.116 50.2878 191.346 48.8731 193.962C47.5012 196.406 44.586 198.464 42.3996 199.965C41.8851 200.308 41.7136 200.18 41.6279 199.537M31.9819 196.792C33.3966 196.835 35.4973 197.521 37.2979 198.464C38.0696 198.893 38.6698 199.279 39.0985 199.622C40.4704 200.694 40.256 200.651 39.6987 201.037C37.7266 202.281 33.8682 203.911 31.0816 203.568C28.1235 203.224 26.1085 202.152 23.5791 199.708C23.2362 199.365 22.9789 199.065 22.8074 198.85C23.0647 198.722 23.5363 198.464 24.4365 198.164H24.5652C26.5801 197.435 28.8523 196.663 31.939 196.792M22.6788 187.315H22.8074C24.8224 187.229 27.1374 187.186 30.1384 188.215C31.5103 188.687 33.4395 189.888 35.1115 191.346C36.912 192.932 37.8981 194.433 37.941 194.734C37.941 194.734 31.5103 195.162 28.6808 194.005C25.8513 192.804 23.8364 191.56 21.6499 188.558C21.3498 188.13 21.1355 187.786 21.0069 187.572C21.2641 187.486 21.7357 187.443 22.6788 187.401M19.6778 174.192C22.1644 174.15 24.5223 175.136 27.4804 176.68C28.8523 177.409 30.5671 178.995 31.8961 180.796C33.3537 182.769 35.4544 186.672 35.0686 186.929C33.3966 188.001 25.8942 184.699 23.4505 182.855C20.8782 180.925 18.9919 179.424 17.6629 175.865C17.4914 175.35 17.3628 174.664 17.5343 174.45C17.7058 174.192 19.6778 174.15 19.6778 174.15M19.4635 161.671H19.5921C20.8782 162.185 22.293 162.7 23.7506 163.472C24.608 163.943 25.1654 164.244 25.8084 164.844C26.0656 165.058 26.3229 165.273 26.5801 165.487C27.6948 166.473 28.9809 168.403 29.8383 170.376C30.7815 172.563 31.8104 176.808 31.5532 177.023C31.5532 177.023 23.5363 172.692 21.3498 170.462C19.1205 168.189 18.1345 166.002 17.7058 162.357C17.62 161.842 17.62 161.413 17.62 161.156C17.9201 161.156 18.4775 161.327 19.4206 161.671M20.5781 143.874C20.8354 144.003 21.2212 144.174 21.6928 144.474C25.0796 146.661 26.6658 148.677 27.9091 151.893C29.1524 155.024 28.4236 162.4 27.5233 163C27.1374 163 25.5512 162.056 23.8792 160.127C22.3359 158.326 21.0497 156.181 20.621 154.638C19.6778 151.207 19.9779 148.462 20.2352 146.018V145.847C20.3638 144.774 20.4924 144.174 20.5781 143.874Z" fill="#D9D9D9"/>
<path d="M0 132.681H132.643V0H0V132.681ZM38.0267 35.5932C49.6448 32.5485 59.6338 31.1333 69.4513 31.1333C78.4542 31.1333 87.6715 32.3769 97.6176 34.9499C102.462 36.1936 108.764 38.595 112.194 42.9691C94.488 50.9883 77.3395 55.0622 61.1771 55.0622C54.8751 55.0622 48.7874 54.419 43.0855 53.2183C30.9958 50.6024 23.2362 45.971 20.2352 43.8697C23.4505 41.168 30.3956 37.5658 38.0267 35.5503M17.0198 60.7657C17.0627 55.4053 17.4057 50.9883 18.0916 47.6005C21.7357 50.0449 29.7097 54.5905 41.928 57.2493C48.0157 58.5787 54.4892 59.2648 61.22 59.2648H61.4343C78.197 59.2648 95.9885 55.0194 114.209 46.7429C114.595 47.9007 114.766 49.1443 114.766 50.388L114.938 55.7055C114.938 55.7055 114.595 55.7055 114.38 55.7055C112.194 55.7055 109.922 55.7055 107.95 56.6489C105.206 57.9354 103.662 60.3798 102.119 62.7384C100.876 64.711 99.6754 66.555 97.8748 67.7986C95.5598 69.4282 92.9018 70.2429 90.0723 70.2429C86.171 70.2429 81.7981 68.6563 77.7254 65.7402C74.7244 63.596 72.1093 62.1809 68.9797 62.1809C67.9936 62.1809 67.0076 62.3095 66.0216 62.6097C62.8491 63.5103 60.5341 65.6544 58.3048 67.6699C57.6188 68.3132 56.9329 68.9136 56.2469 69.5139C53.6747 71.6581 51.4454 72.6873 49.3876 72.6873C45.7435 72.6873 42.9569 69.3853 39.9559 65.8688C38.8413 64.5395 37.6837 63.2101 36.4833 61.9665C34.3827 59.8652 32.4535 59.0075 30.0098 59.0075C29.4525 59.0075 28.938 59.0504 28.3378 59.1362C26.7516 59.3506 25.294 60.0367 23.9221 60.6371C23.0218 61.0659 22.1644 61.4519 21.2641 61.7092C19.8065 62.138 18.4346 62.3953 17.1056 62.3953C17.1056 61.752 17.1056 61.1946 17.1056 60.7657M104.477 95.3726C92.7732 100.433 77.6396 101.462 67.0076 101.462C55.1752 101.462 42.8283 100.133 34.0397 97.9027C24.608 95.5013 19.2491 90.4839 18.1774 82.8935C18.0059 81.7786 17.5343 76.9756 17.2342 71.0148C17.1056 69.4282 17.0627 67.3269 17.0198 65.3971C19.2063 65.2256 21.3498 64.4537 23.4505 63.7247C25.6369 62.9099 27.6948 62.1809 29.6668 62.1809C31.3817 62.1809 32.7964 62.7384 34.1683 63.9391C35.7545 65.3114 36.9549 66.9838 38.1553 68.6134C40.3846 71.6581 42.6997 74.8315 47.4584 75.7749C48.23 75.9464 48.9588 75.9893 49.6448 75.9893C53.6318 75.9893 56.2898 73.5878 59.0336 71.0148C59.3765 70.7147 59.6766 70.4145 60.0196 70.1143C62.5919 67.7557 65.6786 65.2685 69.2369 65.2685C70.1801 65.2685 71.1232 65.44 72.0664 65.7831C73.6955 66.3834 75.0674 67.4555 76.525 68.6134C77.8111 69.6426 79.1401 70.6718 80.6835 71.3579C83.513 72.6444 86.5568 73.3306 89.5578 73.3306C91.6585 73.3306 93.6734 72.9875 95.5169 72.3442C99.9326 70.8433 101.819 68.0559 103.834 65.0969C104.82 63.6389 105.849 62.138 107.221 60.7228C109.279 58.5787 112.022 58.4071 114.895 58.1927V59.3935C115.152 61.5805 114.938 62.867 115.066 64.2822L115.452 76.7183V76.8899C115.452 76.8899 116.952 89.9693 104.434 95.3726" fill="#D9D9D9"/>
<path d="M225.288 106.48C227.346 108.238 228.932 110.768 229.832 112.097C229.832 112.054 230.132 112.355 230.261 112.655C230.304 112.783 230.347 112.955 230.39 113.084C230.518 113.555 230.389 114.027 230.089 114.456C229.875 114.842 229.403 115.099 228.975 115.185C228.589 115.271 227.946 115.185 227.646 114.885C226.703 114.027 225.845 113.169 225.073 112.14C224.302 111.154 223.659 110.082 223.059 108.924C222.587 108.023 223.059 106.994 223.873 106.522C224.259 106.308 224.902 106.179 225.245 106.437" fill="#D9D9D9"/>
<path d="M171.184 105.064C171.442 105.064 171.656 105.064 171.913 105.15C172.299 105.322 172.728 105.665 172.899 106.094C173.071 106.522 173.157 107.037 172.942 107.509C172.771 107.895 171.699 110.253 169.298 111.754C168.912 111.969 168.441 112.226 167.969 112.14C167.498 112.054 167.026 111.883 166.769 111.497C166.512 111.111 166.297 110.639 166.383 110.168C166.597 109.053 167.026 107.981 167.798 107.123C168.526 106.265 169.427 105.579 170.541 105.236C170.756 105.107 170.97 105.064 171.227 105.107" fill="#D9D9D9"/>
<path d="M163.468 101.162C160.853 105.15 157.509 109.567 158.366 114.67C159.138 119.087 163.125 121.617 167.455 120.76C172.428 119.73 175.557 115.013 178.558 111.368C183.831 105.064 191.763 95.8873 197.379 88.9831C203.681 97.3025 210.369 105.279 217.485 112.826C220.401 115.914 223.53 118.83 227.088 121.146C229.746 122.861 233.176 124.962 236.477 124.233C244.623 122.389 235.405 110.253 233.262 106.951C225.202 94.6008 214.913 84.0087 204.924 73.3307C204.924 72.6446 204.838 71.9155 204.795 71.2294C204.71 70.629 204.667 70.0287 204.538 69.4283C216.756 65.1829 227.431 57.1637 236.649 48.2439C240.121 44.8561 243.422 41.2539 246.466 37.4802C249.639 33.5778 252.811 28.9035 252.468 23.6718C252.168 18.8688 250.796 12.2219 245.523 10.7639C240.507 9.34872 234.634 9.30584 229.918 11.6215C220.229 16.3387 213.884 26.7165 209.597 36.1508C205.439 45.285 201.066 54.848 199.222 64.754C199.179 64.7969 199.136 64.8827 199.094 64.9256C198.579 64.9684 198.108 65.0971 197.636 65.2257C196.907 64.3681 196.135 63.5533 195.407 62.7385C196.693 61.5378 198.022 60.337 199.308 59.1363C200.208 58.3215 200.251 57.1637 199.394 56.306C191.891 48.8872 184.946 40.9109 178.601 32.42C175.472 28.2174 172.471 23.8862 169.684 19.4692C168.269 17.2393 166.897 15.0093 165.568 12.7365C164.539 10.9354 163.511 8.877 161.324 8.40529C157.123 7.50474 153.307 12.7794 151.121 15.7383C148.291 19.5978 146.191 24.1435 146.019 28.9893C145.633 39.024 153.179 47.3434 158.623 54.848C162.439 60.0797 166.254 65.3115 170.07 70.5862C171.399 72.3873 172.685 74.9174 175.214 74.8316C176.586 74.7887 177.872 73.9739 179.03 73.4165C180.487 72.7303 181.945 72.0013 183.36 71.2723C183.617 71.1436 183.789 71.2723 183.874 71.3581C184.132 71.6154 185.418 72.9447 185.846 73.5022C185.032 74.2741 184.517 74.8316 183.746 75.5606C179.844 79.3773 176.286 83.494 172.942 87.8253C169.598 92.1565 166.512 96.6592 163.511 101.205M243.208 15.0522C243.208 15.0522 243.208 15.1809 243.208 15.2666C243.208 15.4382 243.122 15.5668 243.122 15.7383C242.994 16.3816 242.822 16.982 242.651 17.5823C240.764 23.7146 236.477 28.6462 232.104 33.2348C226.703 38.8954 221.344 44.5988 216.071 50.3881C213.798 52.8753 211.483 55.3197 209.211 57.8498C213.112 52.7467 216.971 47.6436 220.701 42.4118C223.444 38.5952 226.145 34.6928 228.718 30.7475C230.861 27.4455 232.576 24.2292 235.363 21.4847C236.82 20.0267 238.364 18.6544 239.864 17.2393C240.85 16.3387 241.879 15.4382 243.208 15.0522ZM208.611 63.9392C213.155 58.3644 218.3 53.1755 223.144 47.9009C225.331 45.4994 227.517 43.1408 229.746 40.7822C234.291 35.9364 239.307 31.3479 242.822 25.6444C243.722 24.1435 246.209 19.6407 246.852 16.0385C247.967 17.8825 248.395 20.7986 248.653 22.5568C249.081 25.3871 248.524 27.4884 247.152 29.9327C242.908 37.6089 235.963 44.17 229.446 49.8735C223.144 55.4054 216.199 60.4228 208.568 63.9392M204.538 57.8927C206.725 50.774 209.983 43.8698 212.984 37.2658C216.885 28.6891 222.758 19.1261 231.547 14.8378C233.648 13.8086 235.748 13.4226 238.063 13.5084C238.192 13.5084 238.321 13.5084 238.449 13.5084C236.349 15.138 234.462 17.2393 233.048 18.6544C230.047 21.5705 228.16 24.8725 225.888 28.3889C223.059 32.763 220.058 37.0514 217.014 41.2968C212.984 46.9145 208.782 52.4465 204.538 57.9356M169.813 49.7448C167.669 47.2147 163.725 43.7841 163.468 40.2247C163.382 38.9811 163.854 37.2229 165.225 36.8798C166.983 36.4081 169.598 38.5094 170.927 39.4957C176.415 43.5696 180.145 49.5304 184.26 54.9337C187.39 59.0505 190.734 62.9529 194.163 66.8124C192.277 67.9274 190.434 69.3425 188.719 70.8435C188.719 71.3152 186.79 68.8279 184.646 66.4265C179.587 61.0232 174.614 55.4483 169.813 49.7448ZM193.006 60.0797C190.605 57.2494 188.247 54.3334 185.975 51.3315C181.302 45.0706 176.758 38.295 169.77 34.5641C166.426 32.763 162.439 32.7202 160.595 36.6654C158.795 40.5678 160.895 44.4273 163.253 47.4291C168.955 54.6335 175.171 61.4949 181.431 68.2276C179.759 69.1281 177.915 70.3717 176.158 70.7577C174.657 71.1436 174.1 70.3717 173.242 69.1281L170.627 65.5688C167.669 61.5378 164.754 57.4639 161.796 53.4328C156.994 46.8288 150.049 39.4957 149.363 30.8762C149.02 26.4592 150.778 22.1708 153.221 18.6115C154.465 16.8104 155.879 15.0951 157.423 13.5942C158.28 12.7794 159.181 11.836 160.338 12.179C161.496 12.5221 161.924 13.8515 162.524 14.8807C167.069 22.5997 172.042 29.9756 177.487 37.0514C183.06 44.2987 189.147 51.16 195.535 57.6354C194.635 58.4502 193.778 59.265 192.877 60.0797M199.694 86.067C201.709 83.494 203.209 81.4356 203.767 80.3207C204.109 79.5917 204.324 78.8198 204.538 78.0479C204.595 77.7906 204.595 77.7906 204.538 78.0479C211.826 85.8098 219.072 93.5287 225.502 102.063C227.603 104.85 229.575 107.68 231.418 110.639C232.319 112.054 233.176 113.512 233.991 114.97C234.462 115.828 236.992 119.387 236.306 120.46C234.977 122.604 228.46 117.886 227.431 117.157C224.43 114.97 221.73 112.355 219.2 109.61C212.298 102.148 205.867 94.2578 199.694 86.1099V86.067ZM161.881 112.183C162.353 108.109 165.826 104.164 168.012 100.862C170.37 97.3025 172.856 93.7861 175.472 90.3554C179.33 85.2952 183.531 80.5351 188.247 76.2468C189.105 75.4749 190.048 74.7458 190.948 73.9739C191.763 73.2878 192.577 72.5588 193.477 71.8727C194.506 71.1008 195.578 70.2002 196.736 69.557C197.293 69.2139 197.893 68.9137 198.536 68.6993C200.851 68.0132 201.023 69.7285 201.28 71.6582C201.409 72.6874 201.494 73.6738 201.451 74.6601C201.409 77.0187 200.68 79.463 197.979 82.5935C197.85 82.765 197.722 82.8937 197.593 83.0652C196.821 84.0087 195.921 85.0378 195.149 85.9813C189.791 92.3709 184.432 98.8034 179.073 105.193C177.358 107.251 175.6 109.353 173.885 111.411C172.513 113.084 171.099 114.885 169.255 116.085C165.697 118.444 161.41 116.772 161.967 112.14" fill="#D9D9D9"/>
<path d="M273.646 57.7212C274.375 61.1947 276.133 63.8106 277.676 71.4867C278.319 74.703 278.877 78.391 279.305 81.6501C279.563 83.4941 280.72 85.5954 283.464 87.4822C291.609 93.0571 294.739 95.2012 305.285 98.3746C319.433 102.62 334.609 102.534 348.971 99.704C361.275 97.2596 372.679 93.0999 383.482 83.88C390.427 77.9621 390.299 77.5762 389.184 66.5551C388.841 63.1674 388.67 59.7367 388.584 56.306C388.584 55.2339 389.141 54.1619 389.57 53.1755C391.028 49.6162 390.299 46.014 387.812 43.1837C384.554 39.4957 380.096 37.3945 375.551 35.8507C365.519 32.42 350.214 31.2193 343.055 31.0048C326.935 30.5331 310.944 33.0204 295.554 38.0806C289.723 40.0103 283.978 42.4118 279.177 46.4429C275.876 49.1874 272.575 53.0469 273.604 57.7641M299.112 90.0552C300.955 90.9129 302.156 91.4275 303.442 92.2423C304.599 92.9713 305.8 94.172 306.872 94.9868C308.158 95.9731 309.701 95.5443 309.873 93.9147C309.915 93.3144 309.787 92.4996 309.701 91.9421C309.187 88.9403 308.972 88.0397 308.372 85.0808C308.372 83.0652 302.799 84.4804 300.269 81.5214C299.412 80.0634 303.999 78.2623 306.657 78.3481C311.63 78.5196 314.417 80.6209 315.789 85.3381C316.26 86.9247 316.475 87.8253 316.818 89.412C317.675 92.8855 314.245 98.6748 307.815 96.4877C305.971 96.016 304.171 95.3299 302.37 94.7724C300.269 94.0863 299.669 92.3709 299.069 90.0123M304.342 85.3809C305.5 85.4238 306.186 85.5954 306.271 86.5817C306.743 88.5543 306.957 90.2696 307.343 92.2852C302.542 89.1118 297.569 86.5817 292.167 84.8663C290.109 84.2231 288.523 82.9795 287.665 81.0068C286.765 78.9484 287.665 77.5762 289.895 77.6191C292.681 77.6191 294.653 78.9913 296.368 81.2213C298.469 83.9658 300.955 84.8663 304.342 85.4238M279.563 65.9977C280.334 65.6546 281.492 66.5123 282.778 67.1555C291.095 71.2723 300.527 72.859 309.615 73.6309C327.364 75.1747 344.984 73.8882 362.261 69.2997C368.863 67.5415 375.38 65.6546 380.91 61.6236C384.211 59.2221 384.897 57.9356 385.969 58.3215C386.526 58.4931 386.526 60.4228 386.526 60.8088C386.783 65.7404 386.912 67.4986 387.212 72.6446C387.255 76.3754 386.44 77.7048 384.683 79.2486C383.011 80.7067 370.364 92.4138 350.214 96.5735C339.282 98.8463 328.436 100.004 317.418 98.5033C316.903 98.4175 316.218 98.3317 315.746 98.246C315.317 98.2031 315.36 97.9458 315.489 97.8171C316.346 96.8737 317.204 95.9303 318.104 94.9439C318.275 94.7724 318.533 94.558 319.39 95.287C322.219 97.3454 327.15 96.1876 327.621 93.0571C328.35 88.683 328.136 84.3946 326.035 80.4494C324.835 78.2623 321.791 76.8043 319.561 77.5762C318.747 77.8335 317.847 78.2194 317.075 78.8198C316.646 79.1629 316.046 80.578 314.546 78.5196C312.573 77.0616 310.173 76.2039 307.558 75.9037C304.042 75.5178 300.655 76.7185 298.255 79.3773C296.025 76.89 293.753 75.7751 290.581 75.432C288.694 75.2605 286.979 75.6464 285.865 77.3189C284.793 78.9913 285.093 80.7495 285.95 82.422C287.537 85.4238 290.195 86.7961 293.367 87.5251C296.797 88.3399 297.14 88.8545 297.44 92.714C296.797 92.4567 296.154 92.2852 295.639 91.9421C292.038 89.7979 289.166 88.5114 285.822 86.1528C283.85 84.7806 281.878 82.036 281.535 79.4202C280.892 74.5315 278.319 66.6838 279.606 66.0405M320.29 79.6346C322.305 79.3773 323.506 80.578 324.234 82.2505C325.349 84.6519 325.649 90.141 325.563 90.527C325.563 92.0708 325.092 93.7003 323.377 93.9576C321.919 94.172 320.376 93.6145 319.647 91.4275C319.218 90.141 318.79 88.8116 318.447 87.4822C318.061 85.8955 317.504 84.266 317.547 82.6793C317.547 81.2213 318.575 79.9348 320.247 79.7203M380.053 59.3936C372.85 64.025 365.176 66.1263 356.945 68.0561C348.885 69.9429 340.74 70.9292 332.466 71.401C320.805 72.0871 309.315 71.4867 297.869 69.0853C294.096 68.2705 292.295 67.8417 288.308 66.6838C285.822 65.9119 285.95 65.6117 287.365 63.8964C292.124 59.0934 294.267 58.0214 299.198 55.4912C308.844 51.16 319.004 49.2303 329.508 48.5441C342.583 47.6865 355.402 48.6728 367.963 52.5752C372.636 53.8617 375.98 55.3626 380.31 57.3781C381.853 58.1071 381.853 58.4073 380.096 59.4365M278.362 50.7741C278.92 50.1308 279.477 49.4876 280.12 48.9301C285.222 44.5131 291.309 42.0259 297.611 40.0103C307.558 36.7512 317.847 35.1645 328.264 34.3069C340.354 33.3205 352.401 33.5778 364.319 35.7649C371.093 37.0085 377.738 38.7238 383.482 42.7978C388.713 46.5286 388.884 50.3881 385.712 54.5907C384.34 56.306 383.182 56.4347 381.982 55.9201C377.352 53.8617 372.679 51.6746 367.877 50.1737C356.774 46.7001 345.327 45.8854 333.709 46.2713C322.52 46.6573 311.673 47.9009 301.213 52.0606C295.425 54.3334 289.852 57.5496 285.479 62.3526C284.793 63.1245 283.421 64.2394 282.349 64.1537C280.206 64.025 279.648 63.8106 278.448 62.4383C275.361 58.8361 275.233 54.5907 278.319 50.817" fill="#D9D9D9"/>
<path d="M162.653 246.365C168.441 248.338 217.314 255.199 219.5 255.199C231.804 255.328 230.861 250.182 233.862 217.976C238.707 166.045 241.75 165.573 238.749 162.828C233.305 157.854 197.979 145.589 191.248 143.188C186.875 141.644 187.133 143.059 185.761 159.655C163.596 157.425 175.472 149.106 160.081 226.982C158.752 233.672 156.094 244.092 162.61 246.322M189.019 160.169C189.276 155.452 189.49 150.907 190.605 146.49C191.077 146.447 191.377 146.618 191.677 146.704C252.94 168.703 247.752 167.931 189.062 160.127M162.053 233.543C163.425 226.167 174.228 161.885 174.228 161.842C177.186 160.984 212.298 167.974 236.692 167.888C236.734 169.775 235.105 174.107 234.034 183.498C227.131 243.964 230.175 251.125 222.415 251.854C214.784 252.54 169.127 244.735 167.112 244.264C163.939 243.535 160.081 243.878 162.01 233.586" fill="#D9D9D9"/>
<path d="M194.206 192.375C199.094 193.79 199.136 201.38 200.98 199.794C204.024 197.135 209.554 193.49 214.484 198.593C217.914 202.152 216.842 207.255 210.797 213.173C208.097 215.617 206.167 216.99 200.38 219.391C200.08 219.606 193.692 221.535 190.819 218.233C180.402 206.398 183.66 189.244 194.206 192.332" fill="#D9D9D9"/>
<path d="M24.265 387.58C20.3638 389.51 15.1764 385.307 14.962 384.964C10.5034 380.504 9.26014 378.531 7.71678 375.229C4.37283 367.468 5.35887 362.321 9.86034 360.349C16.3768 357.519 20.0637 363.008 21.9071 366.61C23.0218 368.797 25.937 361.764 30.9958 362.321C41.928 363.522 38.4125 380.59 24.265 387.58Z" fill="#D9D9D9"/>
<path d="M24.265 345.254C20.3638 347.184 15.1764 342.981 14.962 342.638C10.5034 338.178 9.26014 336.206 7.71678 332.904C4.37283 325.142 5.35887 319.996 9.86034 318.023C16.3768 315.193 20.0637 320.682 21.9071 324.284C23.0218 326.471 25.937 319.438 30.9958 319.996C41.928 321.197 38.4125 338.264 24.265 345.254Z" fill="#D9D9D9"/>
<path d="M24.265 303.228C20.3638 305.158 15.1764 300.955 14.962 300.612C10.5034 296.152 9.26014 294.18 7.71678 290.878C4.37283 283.116 5.35887 277.97 9.86034 275.997C16.3768 273.167 20.0637 278.656 21.9071 282.258C23.0218 284.445 25.937 277.412 30.9958 277.97C41.928 279.171 38.4125 296.238 24.265 303.228Z" fill="#D9D9D9"/>
<path d="M68.9796 387.58C65.0784 389.51 59.891 385.307 59.6766 384.964C55.218 380.504 53.9747 378.531 52.4314 375.229C49.0874 367.468 50.0735 362.321 54.5749 360.349C61.0914 357.519 64.7783 363.008 66.6217 366.61C67.7364 368.797 70.6516 361.764 75.7104 362.321C86.6426 363.522 83.1271 380.59 68.9796 387.58Z" fill="#D9D9D9"/>
<path d="M68.9796 345.254C65.0784 347.184 59.891 342.981 59.6766 342.638C55.218 338.178 53.9747 336.206 52.4314 332.904C49.0874 325.142 50.0735 319.996 54.5749 318.023C61.0914 315.193 64.7783 320.682 66.6217 324.284C67.7364 326.471 70.6516 319.438 75.7104 319.996C86.6426 321.197 83.1271 338.264 68.9796 345.254Z" fill="#D9D9D9"/>
<path d="M68.9796 303.228C65.0784 305.158 59.891 300.955 59.6766 300.612C55.218 296.152 53.9747 294.18 52.4314 290.878C49.0874 283.116 50.0735 277.97 54.5749 275.997C61.0914 273.167 64.7783 278.656 66.6217 282.258C67.7364 284.445 70.6516 277.412 75.7104 277.97C86.6426 279.171 83.1271 296.238 68.9796 303.228Z" fill="#D9D9D9"/>
<path d="M113.737 387.58C109.836 389.51 104.648 385.307 104.434 384.964C99.9755 380.504 98.7323 378.531 97.1889 375.229C93.8449 367.468 94.831 362.321 99.3324 360.349C105.849 357.519 109.536 363.008 111.379 366.61C112.494 368.797 115.409 361.764 120.468 362.321C131.4 363.522 127.885 380.59 113.737 387.58Z" fill="#D9D9D9"/>
<path d="M113.737 345.254C109.836 347.184 104.648 342.981 104.434 342.638C99.9755 338.178 98.7323 336.206 97.1889 332.904C93.8449 325.142 94.831 319.996 99.3324 318.023C105.849 315.193 109.536 320.682 111.379 324.284C112.494 326.471 115.409 319.438 120.468 319.996C131.4 321.197 127.885 338.264 113.737 345.254Z" fill="#D9D9D9"/>
<path d="M113.737 303.228C109.836 305.158 104.648 300.955 104.434 300.612C99.9755 296.152 98.7323 294.18 97.1889 290.878C93.8449 283.116 94.831 277.97 99.3324 275.997C105.849 273.167 109.536 278.656 111.379 282.258C112.494 284.445 115.409 277.412 120.468 277.97C131.4 279.171 127.885 296.238 113.737 303.228Z" fill="#D9D9D9"/>
<path d="M326.464 234.315C326.464 232.943 326.378 230.927 326.292 228.354C326.635 228.354 327.021 228.268 327.536 228.183C327.964 228.14 328.65 228.183 329.036 227.797C329.336 227.496 329.379 226.939 328.693 226.639C328.136 226.381 326.935 226.381 326.249 226.339C326.207 224.495 326.121 222.522 326.078 220.378C326.378 220.378 326.764 220.292 327.235 220.249C327.664 220.206 328.35 220.249 328.736 219.863C329.036 219.563 329.079 219.006 328.393 218.705C327.879 218.448 326.721 218.448 326.035 218.405C325.992 216.475 325.906 214.46 325.821 212.444C326.121 212.444 326.464 212.359 326.892 212.316C327.321 212.273 328.007 212.316 328.393 211.93C328.693 211.63 328.736 211.072 328.05 210.772C327.536 210.558 326.464 210.515 325.778 210.472C325.692 208.499 325.649 206.484 325.563 204.468C325.864 204.468 326.164 204.382 326.55 204.339C326.978 204.297 327.664 204.339 328.05 203.954C328.35 203.653 328.393 203.096 327.707 202.796C327.193 202.581 326.164 202.538 325.521 202.495C325.435 200.437 325.392 198.422 325.306 196.492C325.563 196.492 325.864 196.406 326.249 196.363C326.678 196.32 327.364 196.363 327.75 195.977C328.05 195.677 328.093 195.12 327.407 194.819C326.935 194.605 325.949 194.562 325.263 194.519C325.178 192.375 325.135 190.359 325.049 188.515C325.306 188.515 325.606 188.43 325.949 188.387C326.378 188.344 327.064 188.387 327.45 188.001C327.75 187.701 327.793 187.143 327.107 186.843C326.635 186.629 325.692 186.586 325.006 186.543C324.92 183.97 324.835 181.911 324.792 180.539C325.049 180.539 325.306 180.453 325.649 180.411C326.078 180.368 326.764 180.411 327.15 180.025C327.45 179.724 327.493 179.167 326.807 178.867C326.335 178.652 325.392 178.609 324.706 178.567C324.706 178.052 324.706 177.323 324.149 176.894C323.634 176.508 323.334 177.066 323.206 177.237C322.905 177.666 322.734 178.138 322.648 178.609C322.348 178.609 322.091 178.652 321.705 178.695C321.276 178.738 319.99 178.695 319.562 179.081C319.261 179.381 319.09 179.939 319.905 180.239C320.505 180.453 321.834 180.496 322.434 180.539C322.434 181.654 322.52 183.798 322.562 186.543C322.391 186.543 322.22 186.543 322.005 186.586C321.576 186.629 320.29 186.586 319.862 186.972C319.562 187.272 319.39 187.829 320.205 188.13C320.762 188.344 321.962 188.387 322.605 188.43C322.648 190.274 322.734 192.289 322.777 194.476C322.605 194.476 322.477 194.476 322.305 194.519C321.877 194.562 320.59 194.519 320.162 194.905C319.862 195.205 319.69 195.763 320.505 196.063C321.062 196.234 322.134 196.32 322.82 196.363C322.863 198.293 322.948 200.351 322.991 202.41C322.863 202.41 322.777 202.41 322.605 202.41C322.177 202.453 320.891 202.41 320.462 202.796C320.162 203.096 319.99 203.653 320.805 203.954C321.319 204.125 322.348 204.211 322.991 204.254C323.034 206.269 323.12 208.285 323.163 210.3C323.077 210.3 322.991 210.3 322.863 210.3C322.434 210.343 321.148 210.3 320.719 210.686C320.419 210.986 320.247 211.544 321.062 211.844C321.534 212.016 322.52 212.101 323.206 212.144C323.291 214.203 323.334 216.261 323.42 218.234C323.334 218.234 323.291 218.234 323.206 218.234C322.777 218.277 321.491 218.234 321.062 218.62C320.762 218.92 320.59 219.477 321.405 219.777C321.877 219.949 322.777 219.992 323.463 220.078C323.549 222.265 323.591 224.28 323.677 226.167C323.634 226.167 323.591 226.167 323.506 226.167C323.077 226.21 321.791 226.167 321.362 226.553C321.062 226.853 320.891 227.411 321.705 227.711C322.177 227.882 323.034 227.925 323.72 228.011C323.806 230.498 323.892 232.6 323.977 234.101C323.934 234.101 323.892 234.101 323.806 234.101C323.377 234.143 322.091 234.101 321.662 234.486C321.362 234.787 321.191 235.344 322.005 235.644C322.477 235.816 323.377 235.859 324.02 235.944C324.02 236.245 324.02 236.459 324.063 236.588C324.149 237.102 324.063 237.917 324.663 238.432C325.178 238.818 325.478 238.26 325.606 238.089C326.078 237.445 326.207 236.674 326.292 235.987C326.678 235.987 327.107 235.902 327.707 235.816C328.136 235.773 328.822 235.816 329.208 235.43C329.508 235.13 329.55 234.572 328.865 234.272C328.264 234.015 326.935 234.015 326.335 233.972" fill="#D9D9D9"/>
<path d="M265.544 265.319H398.187V132.638H265.544V265.319ZM313.731 155.667C326.764 152.493 343.526 153.351 347.942 154.209C355.187 155.581 362.776 156.696 371.093 160.684C371.993 161.113 376.366 163.514 367.663 165.272C348.414 169.904 331.437 169.732 310.901 163.9C305.843 161.885 305.8 157.811 313.688 155.667M301.984 162.442C300.269 164.886 299.326 169.303 298.512 182.426C298.254 185.042 297.14 190.745 297.14 190.745C297.054 191.26 296.711 192.075 295.768 192.075C295.596 192.075 290.666 192.375 290.666 190.016C290.666 190.016 290.581 186.071 290.538 184.999C290.452 182.855 289.98 166.816 289.98 166.816C289.895 164.072 289.809 161.198 289.895 158.411C289.895 157.21 290.109 157.253 291.738 158.411C293.967 159.998 295.897 160.512 298.983 161.027C300.655 161.327 303.313 160.555 301.984 162.442ZM303.442 159.355C298.469 160.684 291.095 157.21 291.481 155.881C295.339 152.793 307 154.637 307.086 156.824C307.429 157.939 305.414 159.44 303.399 159.355M371.007 169.475C368.049 172.648 367.277 175.907 366.205 180.324C363.847 189.802 361.918 225.867 361.704 229.254C361.447 233.114 359.817 236.287 356.902 238.603C350.6 243.535 342.283 246.236 325.864 243.535C317.289 242.119 313.645 237.488 312.702 229.083C312.102 224.023 310.216 203.096 310.001 200.222C309.701 196.148 307.858 175.522 306.914 167.845C306.7 165.101 305.2 163.643 309.53 165.787C335.51 175.522 363.376 169.689 370.064 167.159C371.65 166.688 377.266 162.785 371.05 169.475" fill="#D9D9D9"/>
</g>
<defs>
<clipPath id="clip0_75_690">
<rect width="525" height="514" fill="white"/>
</clipPath>
</defs>
</svg>
