<svg width="525" height="514" viewBox="0 0 525 514" fill="none" xmlns="http://www.w3.org/2000/svg">
<g clip-path="url(#clip0_75_657)">
<path d="M416.193 417.341C421.252 414.682 430.083 415.24 434.585 418.37C442.087 415.326 448.518 415.025 458.55 414.682C485.644 413.739 499.535 422.83 501.85 424.031C501.85 424.031 507.337 427.247 504.465 430.035C499.706 434.709 497.434 439.898 496.148 444.915C493.79 454.049 492.075 491.015 491.903 493.931C491.603 499.849 488.688 504.609 484.658 507.653C481.614 509.926 478.442 511.47 475.098 512.456C471.282 513.528 467.081 514 462.837 514C458.593 514 454.263 513.314 449.418 512.328C441.273 510.655 436.3 504.909 435.013 496.675C434.285 491.872 432.827 474.676 432.698 472.318C432.613 470.388 429.44 433.594 429.397 432.736C429.226 428.491 428.497 425.746 427.34 433.422C426.954 435.995 425.367 454.178 424.682 456.279C424.038 458.338 422.881 459.238 420.823 459.238C420.652 459.238 417.694 458.981 416.45 458.724C413.878 458.252 412.849 456.88 412.806 454.092C412.806 453.449 411.949 423.645 411.949 423.345C412.12 419.871 412.978 418.07 416.107 417.341M497.562 424.717C489.117 420.643 481.357 419.528 473.983 418.156C469.482 417.298 452.419 416.398 439.129 419.657C431.069 421.844 431.198 425.317 436.385 427.376C457.264 433.294 474.241 433.551 493.833 428.834C502.664 427.033 498.42 425.146 497.562 424.717ZM432.184 431.964C433.127 439.769 435.056 460.782 435.314 464.899C435.528 467.858 437.457 489.128 438.057 494.317C439.043 502.85 442.73 507.568 451.476 509.026C468.153 511.77 476.641 509.026 483.072 504.008C486.073 501.65 487.702 498.433 488.002 494.488C488.217 491.058 490.189 454.349 492.589 444.658C493.704 440.155 494.476 436.853 497.477 433.637C503.822 426.818 498.12 430.764 496.491 431.278C489.674 433.894 461.336 439.769 434.842 429.906C430.426 427.719 431.927 429.177 432.184 432.007M428.669 423.388C430.726 423.473 432.741 421.972 432.398 420.815C432.313 418.628 418.937 416.912 417.951 419.657C417.565 421.029 424.124 423.002 428.626 423.388M414.993 430.935C414.993 430.935 415.507 447.274 415.593 449.461C415.593 450.576 415.721 454.564 415.721 454.564C415.721 457.008 420.737 456.665 420.909 456.665C421.895 456.665 422.238 455.807 422.324 455.293C422.324 455.293 423.481 449.504 423.695 446.845C424.553 433.508 425.496 428.962 427.254 426.518C428.626 424.588 425.882 425.36 424.167 425.06C421.037 424.503 419.065 424.031 416.793 422.401C415.121 421.201 414.993 421.158 414.95 422.401C414.864 425.232 414.95 428.148 415.036 430.978" fill="#D9D9D9"/>
<path d="M445.303 444.872C444.488 444.572 444.617 443.972 444.96 443.714C445.345 443.371 446.674 443.371 447.103 443.328C447.489 443.285 447.789 443.243 448.046 443.243C448.132 442.771 448.304 442.256 448.604 441.827C448.732 441.656 449.075 441.056 449.59 441.442C450.147 441.913 450.147 442.642 450.19 443.157C450.876 443.157 451.819 443.243 452.291 443.457C453.019 443.757 452.977 444.358 452.634 444.615C452.248 444.958 451.562 444.958 451.133 445.001C450.79 445.044 450.533 445.087 450.276 445.129C450.318 446.545 450.404 448.646 450.49 451.262C451.176 451.262 452.162 451.348 452.634 451.562C453.362 451.862 453.319 452.463 452.977 452.72C452.591 453.063 451.905 453.063 451.476 453.106C451.133 453.149 450.833 453.192 450.576 453.234C450.661 455.121 450.704 457.18 450.79 459.367C451.476 459.367 452.505 459.453 452.977 459.667C453.705 459.967 453.662 460.567 453.319 460.825C452.934 461.168 452.248 461.125 451.819 461.211C451.433 461.254 451.133 461.297 450.876 461.339C450.962 463.312 451.004 465.37 451.09 467.429C451.776 467.429 452.805 467.515 453.319 467.729C454.048 468.029 454.005 468.63 453.662 468.887C453.277 469.23 452.591 469.187 452.162 469.273C451.776 469.316 451.433 469.359 451.133 469.401C451.219 471.417 451.262 473.475 451.347 475.491C452.033 475.491 453.148 475.577 453.662 475.791C454.391 476.091 454.348 476.692 454.005 476.949C453.62 477.292 452.934 477.292 452.505 477.335C452.076 477.378 451.733 477.421 451.433 477.464C451.519 479.522 451.562 481.58 451.647 483.553C452.333 483.553 453.491 483.639 454.048 483.853C454.777 484.153 454.734 484.754 454.391 485.011C454.005 485.354 453.319 485.354 452.891 485.397C452.419 485.44 452.033 485.483 451.733 485.526C451.819 487.713 451.862 489.728 451.905 491.615C452.548 491.615 453.791 491.658 454.391 491.915C455.12 492.215 455.077 492.816 454.734 493.073C454.348 493.416 453.662 493.416 453.234 493.459C452.719 493.545 452.333 493.588 451.99 493.631C452.076 496.204 452.119 498.305 452.162 499.677C452.805 499.72 454.177 499.72 454.734 500.02C455.463 500.32 455.42 500.921 455.077 501.178C454.691 501.521 454.005 501.521 453.577 501.564C452.934 501.65 452.505 501.693 452.119 501.736C451.99 502.422 451.862 503.236 451.433 503.88C451.305 504.051 450.962 504.652 450.447 504.266C449.804 503.751 449.933 502.893 449.847 502.379C449.847 502.293 449.847 502.036 449.804 501.736C449.118 501.693 448.218 501.607 447.746 501.435C446.932 501.135 447.06 500.535 447.403 500.277C447.789 499.934 449.118 499.934 449.547 499.892C449.59 499.892 449.633 499.892 449.718 499.892C449.633 498.348 449.547 496.246 449.461 493.673C448.775 493.631 447.875 493.545 447.403 493.373C446.589 493.073 446.717 492.473 447.06 492.215C447.446 491.872 448.775 491.872 449.204 491.829C449.29 491.829 449.332 491.829 449.375 491.829C449.29 489.9 449.247 487.841 449.161 485.611C448.475 485.568 447.532 485.483 447.06 485.311C446.246 485.011 446.374 484.411 446.717 484.153C447.103 483.81 448.432 483.81 448.861 483.767C448.947 483.767 448.989 483.767 449.075 483.767C448.989 481.752 448.947 479.693 448.861 477.592C448.175 477.549 447.189 477.464 446.674 477.292C445.86 476.992 445.989 476.391 446.331 476.134C446.717 475.791 448.046 475.791 448.475 475.748C448.604 475.748 448.647 475.748 448.775 475.748C448.689 473.69 448.647 471.631 448.561 469.573C447.875 469.53 446.846 469.444 446.331 469.273C445.517 468.973 445.646 468.372 445.989 468.115C446.374 467.772 447.703 467.772 448.132 467.729C448.304 467.729 448.389 467.729 448.518 467.729C448.432 465.628 448.389 463.569 448.346 461.554C447.66 461.511 446.546 461.425 445.989 461.254C445.174 460.953 445.303 460.353 445.646 460.096C446.031 459.753 447.36 459.753 447.789 459.71C447.961 459.71 448.089 459.71 448.261 459.667C448.175 457.437 448.132 455.379 448.089 453.535C447.446 453.492 446.203 453.406 445.646 453.234C444.831 452.934 444.96 452.334 445.303 452.077C445.688 451.733 447.017 451.734 447.446 451.691C447.66 451.691 447.832 451.648 448.046 451.605C447.961 448.775 447.918 446.63 447.918 445.473C447.275 445.43 445.946 445.387 445.345 445.172" fill="#D9D9D9"/>
<path d="M379.71 306.187C379.281 311.977 376.837 317.294 373.107 321.711C368.906 326.643 363.633 330.631 358.746 334.876C353.987 339.036 349.314 343.239 344.727 347.57C340.568 351.472 331.265 360.949 331.008 361.25C331.008 361.25 330.879 361.378 330.837 361.421C330.837 361.421 330.837 361.421 330.794 361.464C330.708 361.593 330.579 361.678 330.494 361.807C330.279 362.021 330.108 362.236 329.893 362.45C329.079 363.351 328.264 364.209 327.493 365.152C326.078 366.739 324.749 368.368 323.463 370.084C322.948 370.898 322.305 371.627 321.619 372.271C321.362 372.485 321.105 372.699 320.848 372.914C322.091 374.415 323.12 376.773 322.477 379.99C321.748 383.42 319.433 385.993 316.818 386.208C315.06 386.379 313.517 385.35 312.745 383.463C311.802 381.19 311.845 377.931 312.059 375.358C310.087 377.845 307.343 380.847 305.2 381.491C303.056 382.134 300.827 381.362 299.583 379.561C298.855 378.446 297.826 375.873 299.755 371.413C297.568 372.871 295.382 373.471 292.853 373.171C291.567 372.914 289.123 371.756 288.308 369.14C287.665 367.082 288.137 364.637 289.723 361.807C286.208 364.251 284.278 364.509 281.835 362.622C281.492 362.365 281.192 362.064 280.934 361.721C279.991 360.563 279.563 359.02 279.82 357.433C280.077 355.803 280.934 354.26 282.306 352.887C279.477 353.316 276.605 353.145 274.032 351.258C271.717 349.071 271.117 345.083 272.703 342.381C273.432 341.137 275.661 338.521 281.063 339.851C281.149 339.636 281.235 339.379 281.363 339.165C281.62 338.736 281.963 338.307 282.306 337.964C283.421 336.763 284.621 335.691 285.865 334.576C287.751 332.904 289.594 331.188 291.395 329.43C291.952 328.873 292.51 328.315 293.067 327.758C293.324 327.5 293.624 327.2 293.882 326.943C293.967 326.857 294.053 326.771 294.139 326.686C294.139 326.686 294.182 326.643 294.225 326.6C294.396 326.428 294.525 326.257 294.653 326.085C295.296 325.399 295.897 324.67 296.454 323.941C299.926 319.524 302.799 314.678 305.457 309.747C308.372 304.386 311.116 298.554 313.602 292.851C314.888 289.849 316.046 286.761 317.761 283.974C319.347 281.401 321.576 278.999 324.492 277.927C327.107 276.984 330.022 276.941 332.508 278.27C335.295 279.771 336.495 282.816 336.453 285.818C336.453 288.991 334.952 291.907 333.495 294.609C333.495 294.652 333.323 294.909 333.323 294.952C333.237 295.081 333.194 295.209 333.109 295.338C332.98 295.595 332.894 295.895 332.809 296.153C332.809 296.238 332.809 296.281 332.809 296.324C332.809 296.453 332.809 296.581 332.809 296.71C332.809 296.453 332.809 296.667 332.809 296.796C332.809 296.796 332.851 296.796 332.894 296.796H332.98C333.109 296.753 333.237 296.667 333.366 296.624C333.109 296.753 333.28 296.667 333.409 296.581C333.495 296.496 333.623 296.41 333.709 296.324C333.923 296.153 334.095 295.981 334.309 295.767C334.309 295.767 334.352 295.681 334.395 295.638C334.523 295.509 334.609 295.381 334.738 295.252C335.209 294.695 335.724 294.137 336.238 293.58C337.31 292.422 338.382 291.307 339.496 290.192C341.683 288.091 344.041 286.161 346.656 284.617C349.185 283.073 351.972 282.001 354.93 281.529C357.631 281.101 360.375 281.272 363.033 281.915C368.134 283.159 372.807 286.418 375.808 290.749C378.938 295.252 380.224 300.741 379.795 306.187M286.551 349.671C286.551 349.671 286.636 349.671 286.679 349.671C286.508 349.5 286.293 349.328 286.122 349.156C285.05 348.127 283.935 347.141 282.949 346.026C282.135 345.125 281.363 344.139 281.02 342.981C280.892 342.638 280.849 342.295 280.806 341.995C277.805 341.18 275.576 341.695 274.547 343.453C273.475 345.297 273.904 348.256 275.404 349.628C278.534 351.987 282.649 350.829 286.593 349.714M293.581 356.104C293.581 356.104 293.453 355.975 293.41 355.932C291.781 354.431 290.195 352.93 288.566 351.386C284.707 352.973 282.221 355.289 281.878 357.733C281.706 359.02 282.135 360.135 283.121 360.907C285.222 362.536 286.422 361.936 293.624 356.104M303.699 365.023C300.87 362.622 298.126 360.178 295.382 357.69C290.28 363.394 289.809 366.696 290.366 368.497C290.881 370.169 292.51 370.941 293.196 371.07C296.411 371.456 299.026 369.955 303.699 365.066M311.973 371.928C309.787 370.169 307.6 368.368 305.5 366.567C305.5 366.567 305.414 366.481 305.371 366.438C299.326 373.943 300.784 377.417 301.384 378.317C302.07 379.389 303.356 379.775 304.599 379.432C306.486 378.875 309.83 374.929 312.016 371.928M318.961 373.943C318.19 374.243 317.418 374.415 316.603 374.372C315.789 374.329 315.06 374.072 314.374 373.686C314.031 376.173 313.688 380.204 314.717 382.648C315.017 383.335 315.574 384.149 316.646 384.064C318.018 383.935 319.819 382.305 320.419 379.518C321.019 376.645 319.861 374.844 319.004 373.943M327.964 359.963C324.234 358.505 317.161 355.246 310.173 349.414C304.642 344.782 299.283 338.479 295.168 330.073C295.039 330.245 294.267 330.974 294.225 331.06C292.252 333.032 291.309 333.89 289.251 335.777C287.965 336.935 286.636 338.05 285.436 339.25C285.307 339.379 285.179 339.465 285.093 339.593C285.093 339.593 285.007 339.679 285.007 339.722C284.836 339.894 284.707 340.065 284.536 340.28C284.407 340.451 284.278 340.666 284.15 340.837C284.15 340.837 284.15 340.923 284.107 340.966V341.052C284.107 341.052 284.107 341.051 284.107 341.009C284.107 341.009 284.107 341.009 284.107 341.052C284.107 341.052 284.107 341.094 284.107 341.137C284.107 341.18 284.107 341.266 284.107 341.309C284.107 341.352 284.107 341.395 284.107 341.437C284.107 341.437 284.107 341.523 284.107 341.609C284.107 341.652 284.193 341.823 284.193 341.866C284.236 341.995 284.278 342.081 284.364 342.209C284.45 342.338 284.493 342.467 284.579 342.595C284.45 342.338 284.579 342.552 284.621 342.681C284.793 342.896 284.922 343.11 285.093 343.324C285.908 344.311 286.851 345.211 287.794 346.112C292.21 350.357 296.54 354.345 301.17 358.462C304.471 361.378 307.772 364.251 311.202 367.039C312.23 367.896 313.259 368.711 314.288 369.569C314.588 369.826 314.931 370.084 315.231 370.341C315.403 370.47 315.532 370.555 315.703 370.684C315.832 370.77 315.96 370.855 316.046 370.898C316.26 370.984 316.432 371.027 316.646 371.113C316.646 371.113 316.646 371.113 316.689 371.113C316.775 371.113 316.861 371.113 316.989 371.113C316.989 371.113 317.032 371.113 317.075 371.113C317.118 371.113 317.203 371.113 317.246 371.113C317.246 371.113 317.589 371.07 317.761 371.027C317.675 371.027 317.589 371.113 317.761 371.027H317.804C317.889 371.027 317.975 370.984 318.018 370.941C318.19 370.855 318.361 370.77 318.532 370.684C318.532 370.684 318.661 370.598 318.704 370.555C319.004 370.341 319.304 370.126 319.561 369.869C319.69 369.74 319.819 369.612 319.947 369.483C319.947 369.483 319.947 369.44 319.99 369.44C320.162 369.226 320.333 369.011 320.505 368.797C320.633 368.626 320.762 368.454 320.848 368.282C320.848 368.24 320.89 368.197 320.933 368.154C320.976 368.068 321.019 368.025 321.105 367.939C322.262 366.438 323.463 364.98 324.706 363.522C325.478 362.622 326.421 361.593 328.007 359.92M376.623 303.529C376.623 303.529 376.623 303.529 376.623 303.486C376.623 303.4 376.623 303.314 376.623 303.271C376.623 303.1 376.623 302.971 376.623 302.8C376.623 302.757 376.623 302.671 376.623 302.628V301.985C376.623 301.985 376.58 301.942 376.58 301.899C376.494 301.256 376.409 300.655 376.323 300.055C376.194 299.455 376.066 298.811 375.894 298.211V298.125V297.954C375.894 297.954 375.765 297.654 375.723 297.525C375.637 297.225 375.508 296.925 375.38 296.624C375.165 296.024 374.908 295.466 374.608 294.909C374.608 294.909 373.836 293.494 373.793 293.451C373.279 292.679 372.722 291.95 372.121 291.221L371.693 290.749C371.693 290.749 371.564 290.621 371.521 290.535C371.307 290.278 371.093 290.063 370.835 289.849C370.835 289.849 370.664 289.677 370.621 289.634C370.578 289.591 370.407 289.463 370.407 289.42C369.935 288.991 369.463 288.605 368.949 288.262C368.52 287.919 366.334 286.59 366.334 286.59C366.248 286.547 366.119 286.461 366.034 286.418C365.262 286.032 364.447 285.732 363.59 285.432L362.776 285.174C362.776 285.174 362.604 285.132 362.518 285.089C362.347 285.046 362.175 285.003 362.004 284.96C361.961 284.96 361.875 284.96 361.832 284.96C361.532 284.917 361.232 284.831 360.975 284.789C360.375 284.703 359.732 284.617 359.131 284.574C358.831 284.574 358.488 284.574 358.188 284.574C358.017 284.574 357.888 284.574 357.76 284.574C357.717 284.574 352.572 284.531 348.028 287.662C348.028 287.662 347.899 287.747 347.856 287.79C347.813 287.79 347.771 287.876 347.771 287.876C347.642 287.962 347.471 288.048 347.342 288.133C347.042 288.305 346.785 288.519 346.484 288.691C346.013 289.034 345.498 289.42 345.027 289.763L343.312 291.221C342.712 291.736 342.069 292.25 341.511 292.808C341.126 293.151 340.783 293.537 340.397 293.923L339.925 294.394C339.711 294.609 339.368 294.995 339.239 295.081C339.153 295.166 338.811 295.552 338.639 295.767C338.21 296.238 335.895 298.769 335.852 298.811C334.909 299.626 333.752 300.956 332.466 300.698C332.123 300.655 331.008 300.484 330.751 300.312C330.236 299.926 329.808 299.369 329.422 298.039C329.422 298.039 328.607 296.024 331.051 292.636C331.394 292.164 331.651 291.521 331.951 290.835C332.251 290.149 332.551 289.463 332.809 288.777C333.066 288.091 333.194 287.576 333.28 286.89C333.366 286.204 333.409 285.603 333.366 285.089C333.366 284.703 333.28 284.317 333.194 283.974C333.194 283.888 333.194 283.802 333.152 283.716C333.109 283.545 333.066 283.416 332.98 283.245C332.894 283.073 332.851 282.902 332.766 282.73C332.766 282.73 332.766 282.687 332.723 282.644L332.38 282.13C332.38 282.13 332.208 281.872 332.123 281.787C332.08 281.744 331.908 281.572 331.865 281.529C331.78 281.487 331.694 281.401 331.651 281.358C331.437 281.186 331.222 281.058 330.965 280.929C330.922 280.929 330.837 280.886 330.794 280.843C330.665 280.8 330.536 280.757 330.408 280.672C330.279 280.629 330.151 280.586 330.022 280.543C329.979 280.543 329.808 280.5 329.808 280.5C329.55 280.457 329.293 280.414 328.993 280.372C328.864 280.372 328.693 280.372 328.564 280.372C328.564 280.372 328.35 280.372 328.264 280.372C328.221 280.372 328.136 280.372 328.093 280.372C328.007 280.372 327.964 280.372 327.878 280.372C327.75 280.372 327.578 280.372 327.45 280.414C327.15 280.414 326.892 280.5 326.592 280.586C326.507 280.586 326.421 280.629 326.292 280.672C326.292 280.672 326.292 280.672 326.206 280.672C326.164 280.672 325.949 280.757 325.906 280.757C325.649 280.843 325.349 280.972 325.092 281.101C324.835 281.229 324.577 281.358 324.32 281.487C324.32 281.487 324.191 281.572 324.106 281.615C323.977 281.701 323.891 281.787 323.763 281.872C323.034 282.387 322.477 282.945 321.962 283.545L321.533 284.06C321.319 284.36 321.062 284.703 320.848 285.046C320.162 286.075 319.561 287.233 319.047 288.348L318.618 289.206C318.018 290.535 317.504 291.864 316.903 293.194C316.56 294.051 315.746 295.81 314.974 297.525L314.631 298.254C313.86 299.969 313.174 301.47 313.045 301.685C312.531 302.757 311.845 304.129 311.073 305.587L310.601 306.488C309.744 308.16 308.801 309.918 307.943 311.505L307.6 312.191C306.1 314.936 304.942 317.08 304.899 317.037C304.728 317.294 304.557 317.594 304.385 317.852C303.699 318.967 301.941 321.368 300.141 323.77L298.769 325.571C298.169 326.343 298.04 326.943 297.526 327.586C299.069 330.931 303.313 336.892 303.313 336.892C307.9 344.782 319.604 352.115 322.948 353.917C324.749 354.86 329.936 357.69 330.065 357.733C332.594 355.074 335.038 352.501 335.424 352.158C336.453 351.129 337.482 350.143 338.51 349.156L342.969 344.825C344.555 343.367 346.613 341.48 347.899 340.28L348.371 339.851C350.214 338.178 354.201 334.662 357.459 331.832L357.931 331.403C360.203 329.43 362.004 327.843 362.261 327.629C363.89 326.257 365.476 324.842 367.02 323.384L367.491 322.912C368.092 322.354 368.692 321.797 369.249 321.197C369.635 320.811 370.192 320.167 370.664 319.61C370.964 319.267 371.264 318.881 371.521 318.495L372.293 317.466C372.679 316.908 373.065 316.394 373.408 315.836C373.622 315.493 373.793 315.193 373.965 314.85C373.965 314.807 374.008 314.764 374.051 314.721C374.136 314.592 374.179 314.464 374.265 314.335C374.436 313.949 374.865 312.834 375.208 311.977L375.508 311.162C375.508 311.162 375.637 310.819 375.637 310.776C375.723 310.476 375.808 310.133 375.894 309.832C375.894 309.704 375.98 309.532 376.023 309.404C376.023 309.361 376.023 309.318 376.023 309.318C376.023 309.318 376.023 309.318 376.023 309.232C376.151 308.632 376.28 307.988 376.366 307.345C376.537 306.102 376.623 304.815 376.58 303.571" fill="#D9D9D9"/>
<path d="M102.633 122.26C106.535 124.19 111.722 119.988 111.937 119.645C116.395 115.185 117.638 113.212 119.182 109.91C122.526 102.148 121.54 97.0022 117.038 95.0295C110.522 92.1992 106.835 97.6883 104.991 101.29C103.877 103.478 100.962 96.4447 95.9027 97.0022C84.9706 98.2029 88.486 115.27 102.633 122.26Z" fill="#D9D9D9"/>
<path d="M102.633 79.9348C106.535 81.8645 111.722 77.662 111.937 77.3189C116.395 72.859 117.638 70.8864 119.182 67.5844C122.526 59.8225 121.54 54.6765 117.038 52.7038C110.522 49.8735 106.835 55.3626 104.991 58.9648C103.877 61.1519 100.962 54.119 95.9027 54.6765C84.9706 55.8772 88.486 72.9448 102.633 79.9348Z" fill="#D9D9D9"/>
<path d="M102.633 37.9089C106.535 39.8386 111.722 35.6361 111.937 35.293C116.395 30.8331 117.638 28.8605 119.182 25.5585C122.526 17.7966 121.54 12.6506 117.038 10.678C110.522 7.84766 106.835 13.3367 104.991 16.9389C103.877 19.126 100.962 12.0931 95.9027 12.6506C84.9706 13.8513 88.486 30.9189 102.633 37.9089Z" fill="#D9D9D9"/>
<path d="M57.876 122.26C61.7773 124.19 66.9647 119.988 67.179 119.645C71.6376 115.185 72.8809 113.212 74.4243 109.91C77.7682 102.148 76.7822 97.0022 72.2807 95.0295C65.7643 92.1992 62.0774 97.6883 60.2339 101.29C59.1193 103.478 56.204 96.4447 51.1452 97.0022C40.2131 98.2029 43.7285 115.27 57.876 122.26Z" fill="#D9D9D9"/>
<path d="M57.876 79.9348C61.7773 81.8645 66.9647 77.662 67.179 77.3189C71.6376 72.859 72.8809 70.8864 74.4243 67.5844C77.7682 59.8225 76.7822 54.6765 72.2807 52.7038C65.7643 49.8735 62.0774 55.3626 60.2339 58.9648C59.1193 61.1519 56.204 54.119 51.1452 54.6765C40.2131 55.8772 43.7285 72.9448 57.876 79.9348Z" fill="#D9D9D9"/>
<path d="M57.876 37.9089C61.7773 39.8386 66.9647 35.6361 67.179 35.293C71.6376 30.8331 72.8809 28.8605 74.4243 25.5585C77.7682 17.7966 76.7822 12.6506 72.2807 10.678C65.7643 7.84766 62.0774 13.3367 60.2339 16.9389C59.1193 19.126 56.204 12.0931 51.1452 12.6506C40.2131 13.8513 43.7285 30.9189 57.876 37.9089Z" fill="#D9D9D9"/>
<path d="M13.1186 122.26C17.0198 124.19 22.2072 119.988 22.4216 119.645C26.8802 115.185 28.1235 113.212 29.6668 109.91C33.0108 102.148 32.0247 97.0022 27.5233 95.0295C21.0069 92.1992 17.3199 97.6883 15.4765 101.29C14.3618 103.478 11.4466 96.4447 6.38779 97.0022C-4.54435 98.2029 -1.02891 115.27 13.1186 122.26Z" fill="#D9D9D9"/>
<path d="M13.1186 79.9348C17.0198 81.8645 22.2072 77.662 22.4216 77.3189C26.8802 72.859 28.1235 70.8864 29.6668 67.5844C33.0108 59.8225 32.0247 54.6765 27.5233 52.7038C21.0069 49.8735 17.3199 55.3626 15.4765 58.9648C14.3618 61.1519 11.4466 54.119 6.38779 54.6765C-4.54435 55.8772 -1.02891 72.9448 13.1186 79.9348Z" fill="#D9D9D9"/>
<path d="M13.1186 37.9089C17.0198 39.8386 22.2072 35.6361 22.4216 35.293C26.8802 30.8331 28.1235 28.8605 29.6668 25.5585C33.0108 17.7966 32.0247 12.6506 27.5233 10.678C21.0069 7.84766 17.3199 13.3367 15.4765 16.9389C14.3618 19.126 11.4466 12.0931 6.38779 12.6506C-4.54435 13.8513 -1.02891 30.9189 13.1186 37.9089Z" fill="#D9D9D9"/>
<path d="M464.209 208.585C463.394 212.101 460.436 215.746 457.907 218.062C457.907 218.319 457.907 218.534 457.992 218.748C464.166 228.011 470.039 236.159 472.14 248.595C472.611 251.211 472.397 255.199 469.739 256.528C468.367 257.214 466.266 256.914 463.737 251.854C459.75 244.092 458.935 230.584 455.163 224.409C454.991 224.108 454.305 223.036 453.834 222.479C452.419 223.808 450.533 225.309 448.561 226.424C447.06 227.239 445.517 227.882 444.016 228.097C439.129 228.869 435.699 227.711 432.055 225.781C429.74 224.537 429.354 223.68 429.312 223.036C429.226 221.879 430.083 220.849 432.355 219.22L432.484 219.134C433.213 218.619 435.099 217.633 435.957 217.118C432.27 216.518 428.411 214.631 425.625 212.444C423.438 210.686 423.138 209.871 423.181 209.271C423.224 208.242 424.21 207.513 426.739 206.698H426.911C427.168 206.569 427.425 206.483 427.725 206.398C427.339 206.312 426.954 206.226 426.611 206.14C421.423 204.639 418.637 201.938 415.979 198.336C414.264 196.02 414.307 195.034 414.564 194.347C414.993 193.19 416.322 192.546 419.28 192.032H419.451C419.451 192.032 419.751 191.946 419.88 191.946C419.708 191.86 419.494 191.774 419.323 191.646C414.778 189.03 412.678 185.857 411.006 181.825C409.891 179.252 410.148 178.309 410.534 177.709C411.22 176.679 412.635 176.379 415.55 176.594H415.721C415.721 176.594 415.807 176.594 415.85 176.594C414.092 175.136 412.592 173.506 411.734 172.091C409.119 167.803 408.433 163.943 407.919 160.813V160.641C407.319 157.468 407.49 155.881 408.519 155.023C409.119 154.509 410.105 154.166 413.063 155.023C417.608 156.396 421.337 158.283 424.681 162.914C425.925 164.629 426.782 166.902 427.297 169.218C427.768 167.374 428.411 165.83 429.011 164.501L429.097 164.329C429.997 162.228 430.855 160.77 432.184 160.598C432.87 160.512 433.77 160.684 435.485 162.699C438.1 165.787 439.901 168.789 440.158 173.678C440.158 174.192 440.158 174.707 440.158 175.221C440.372 174.964 440.587 174.707 440.801 174.45L440.93 174.321C442.773 172.091 443.931 171.276 445.088 171.491C445.774 171.619 446.589 172.048 447.703 174.578C448.989 177.494 450.747 180.668 450.361 183.841C451.99 182.512 452.805 182.469 453.405 182.597C454.52 182.898 455.206 184.098 455.806 186.886V187.057C456.363 189.416 456.963 192.289 456.706 195.848C458.207 194.09 459.236 193.447 460.264 193.618C460.908 193.704 461.722 194.133 462.837 196.534C464.552 200.265 465.452 203.782 464.337 208.585M451.262 186.328C447.789 189.416 446.331 192.032 445.26 195.848C444.188 199.622 448.003 208.499 448.861 208.585C449.247 208.542 449.289 208.499 450.747 205.368C451.905 202.881 453.448 199.322 453.748 197.478C454.391 193.447 453.748 190.445 453.148 187.743V187.572C452.848 186.371 452.633 185.728 452.462 185.385C452.162 185.556 451.776 185.857 451.262 186.328ZM437.457 184.227C436.9 185.985 435.742 192.761 441.358 198.507C441.53 198.679 445.817 189.244 446.589 186.028C447.489 182.254 446.974 179.681 445.131 175.565C444.874 174.964 444.617 174.535 444.445 174.278C444.145 174.492 443.63 175.007 442.859 175.95L442.73 176.079C440.972 178.223 438.657 180.453 437.414 184.27M434.67 186.714C434.67 186.714 434.628 186.714 434.585 186.714C434.585 186.714 434.585 186.8 434.628 186.8C434.628 186.757 434.628 186.714 434.628 186.671M428.797 174.235C428.797 175.908 429.269 178.566 430.255 180.796C431.326 183.198 434.027 186.285 434.156 186.242C434.327 186.242 437.671 177.194 437.328 173.721C436.985 170.118 436.042 167.588 433.299 164.372C432.956 163.986 432.655 163.686 432.441 163.471C432.227 163.772 431.927 164.329 431.541 165.273V165.444C430.469 167.846 428.883 170.461 428.797 174.192M420.137 175.908C422.795 177.666 425.067 178.223 425.496 178.095C426.353 177.023 424.724 167.974 422.152 164.629C419.537 161.241 416.922 159.312 412.12 157.854C411.477 157.639 410.963 157.553 410.577 157.511C410.577 157.939 410.577 158.711 410.834 159.998V160.169C411.391 163.171 411.992 166.602 414.307 170.376C415.336 172.091 417.608 174.235 420.094 175.865M420.694 189.116C424.081 191.045 435.142 193.533 435.142 193.49C435.399 193.19 432.698 188.43 430.812 186.114C429.097 184.013 426.911 182.126 425.196 181.354C424.81 181.182 424.424 181.011 424.038 180.839C423.052 180.367 422.281 180.153 421.08 179.896C419.065 179.424 417.222 179.295 415.507 179.21H415.336C414.092 179.124 413.363 179.167 412.978 179.21C413.063 179.553 413.192 180.024 413.449 180.625C415.25 184.87 417.179 187.143 420.609 189.116M453.105 219.477C453.619 218.834 453.877 218.834 451.905 218.019C451.262 217.762 450.447 217.504 449.375 217.247C446.846 216.69 444.145 216.604 442.43 217.033C438.7 217.933 436.214 219.649 434.027 221.15L433.899 221.235C432.913 221.921 432.441 222.35 432.184 222.608C432.441 222.779 432.827 223.079 433.384 223.337C437.2 225.395 440.029 225.952 443.673 225.395C447.146 224.837 451.176 221.578 453.148 219.434M456.663 221.535C456.363 222.35 459.664 229.769 459.964 230.884C462.065 238.517 463.137 243.835 466.524 251.211C466.652 251.511 468.024 254.084 468.924 253.312C469.911 252.411 469.568 249.367 469.396 248.681C467.767 240.619 464.594 233.586 460.35 226.381C459.493 224.795 456.835 220.935 456.663 221.535ZM444.274 209.442C441.787 208.285 439.043 207.513 437.243 207.384C433.299 207.17 430.598 208.07 428.154 208.842H427.983C426.911 209.228 426.353 209.485 426.053 209.657C426.268 209.914 426.654 210.257 427.168 210.643C430.812 213.516 433.642 214.331 437.457 214.803C441.23 215.275 448.775 212.573 448.775 212.53C448.646 212.187 446.974 210.729 444.231 209.442M442.73 204.253C443.116 203.825 439.258 199.836 436.814 197.95C434.585 196.277 431.97 194.905 430.083 194.519C426.01 193.661 422.838 193.275 419.88 194.176C419.88 194.176 417.565 194.862 417.393 195.248C417.265 195.591 417.651 196.363 418.036 196.92C420.823 200.737 423.61 201.895 427.382 203.31C430.941 204.682 441.058 206.097 442.687 204.211M461.679 207.984C462.494 204.339 462.151 201.552 460.35 197.564C460.093 197.006 459.879 196.577 459.664 196.32C459.364 196.534 458.893 197.006 458.164 197.95L458.078 198.078C456.406 200.137 454.52 202.495 453.405 206.183C452.891 207.856 453.105 210.386 453.491 212.916C453.619 213.688 454.391 216.004 454.863 217.118C455.206 217.89 455.463 217.976 455.977 217.376C458.078 214.803 460.95 211.372 461.722 207.941" fill="#D9D9D9"/>
<path d="M507.208 145.589V145.761C507.509 148.291 507.809 151.421 506.737 155.324C506.394 156.61 505.579 158.154 504.55 159.698C504.55 159.698 504.593 159.698 504.636 159.698H504.765C506.994 158.84 508.152 158.797 508.88 159.441C509.309 159.784 509.695 160.47 509.438 162.7C509.009 166.173 508.109 169.089 505.151 172.091C505.022 172.22 504.936 172.306 504.808 172.434C504.936 172.434 505.022 172.434 505.151 172.434H505.279C507.68 172.134 508.838 172.348 509.438 173.163C509.781 173.635 509.995 174.407 509.223 176.551C507.98 179.896 506.394 182.598 502.75 184.913C502.493 185.085 502.235 185.213 501.935 185.385C502.15 185.385 502.407 185.385 502.621 185.385H502.75C504.893 185.471 505.794 185.771 506.051 186.586C506.222 187.057 506.18 187.744 504.851 189.588C503.179 191.903 500.606 194.219 497.905 195.463C498.677 195.677 500.349 196.02 501.035 196.277H501.164C503.264 197.049 504.165 197.693 504.336 198.593C504.422 199.108 504.336 199.837 502.836 201.338C500.478 203.653 498.077 205.283 494.133 205.755C492.932 205.883 491.603 205.755 490.274 205.454C488.474 205.026 486.716 204.297 485.344 203.568C485.087 204.082 484.83 205.068 484.744 205.369C483.201 210.943 485.558 221.536 484.187 228.397C483.372 232.857 481.786 233.543 480.585 233.329C478.27 232.9 477.199 229.898 476.984 227.754C475.87 217.719 478.613 210.129 481.357 201.638C481.357 201.466 481.357 201.295 481.271 201.08C478.828 199.88 475.741 197.693 474.326 195.162C472.397 191.689 472.354 188.773 472.826 185.514C473.126 183.412 473.683 182.898 474.155 182.683C474.926 182.34 475.827 182.598 477.37 183.627C476.384 180.925 476.213 178.567 476.084 176.637V176.508C475.912 174.235 476.17 173.12 476.984 172.649C477.413 172.391 478.013 172.263 479.599 172.906C478.613 170.504 479.256 167.717 479.599 165.187C479.9 163 480.457 162.485 480.928 162.228C481.786 161.842 482.858 162.185 484.787 163.514L484.915 163.6C485.13 163.772 485.344 163.9 485.558 164.072C485.387 163.686 485.258 163.257 485.173 162.871C484.315 159.055 485.044 156.31 486.373 153.394C487.23 151.464 487.916 151.121 488.431 151.035C489.503 150.864 490.489 151.807 491.646 153.222L491.732 153.308C492.461 154.252 493.318 155.281 494.09 156.567C494.004 154.681 494.133 152.751 494.733 151.121C496.276 146.79 498.763 144.56 501.935 142.459C503.993 141.129 504.851 141.215 505.408 141.472C506.394 141.901 506.865 143.059 507.123 145.632M492.589 171.233C492.589 171.233 494.09 168.232 494.39 166.173C494.647 164.244 494.476 162.056 494.09 160.77C493.19 157.897 491.389 156.224 490.103 154.595L490.017 154.509C489.503 153.866 489.16 153.48 488.902 153.308C488.774 153.523 488.602 153.823 488.431 154.209C487.016 157.296 486.845 159.441 487.359 162.314C487.874 165.058 492.418 171.319 492.546 171.276M492.332 171.791C492.332 171.791 492.332 171.748 492.332 171.705C492.332 171.705 492.332 171.705 492.289 171.705V171.791M489.76 182.255C492.804 176.594 490.446 171.619 489.631 170.376C487.831 167.717 485.558 166.516 483.758 165.23L483.629 165.144C482.815 164.587 482.343 164.329 482.043 164.201C481.957 164.458 481.872 164.844 481.786 165.358C481.271 168.961 481.443 171.062 482.986 173.764C484.315 176.079 489.674 182.426 489.76 182.255ZM484.015 189.588C485.816 191.689 485.859 191.732 486.159 191.689C486.802 191.432 487.788 183.755 486.159 181.054C484.487 178.352 482.815 176.68 479.428 175.05C478.956 174.836 478.57 174.664 478.313 174.578C478.27 174.879 478.228 175.436 478.313 176.38V176.508C478.485 178.695 478.613 181.182 479.985 184.141C480.628 185.514 482.6 187.872 484.015 189.545M483.029 203.396C482.772 203.01 481.571 206.569 481.229 207.942C479.514 214.417 478.613 220.549 479.128 227.111C479.171 227.668 479.557 230.112 480.543 230.584C481.4 231.013 481.914 228.697 481.914 228.44C482.9 222.007 482.558 217.633 482.515 211.287C482.515 210.343 483.415 203.911 482.986 203.353M483.458 199.579C483.586 198.593 483.672 196.663 483.586 196.02C483.329 194.005 482.943 191.989 482.172 190.788C480.457 188.215 478.528 186.8 476.77 185.557L476.641 185.471C475.87 184.913 475.398 184.656 475.141 184.527C475.055 184.785 474.969 185.128 474.884 185.642C474.369 189.116 474.712 191.346 476.127 193.962C477.499 196.406 480.414 198.464 482.6 199.965C483.115 200.308 483.286 200.18 483.372 199.537M493.018 196.792C491.603 196.835 489.503 197.521 487.702 198.464C486.93 198.893 486.33 199.279 485.901 199.622C484.53 200.694 484.744 200.651 485.301 201.037C487.273 202.281 491.132 203.911 493.918 203.568C496.876 203.224 498.891 202.152 501.421 199.708C501.764 199.365 502.021 199.065 502.192 198.85C501.935 198.722 501.464 198.464 500.563 198.164H500.435C498.42 197.435 496.148 196.663 493.061 196.792M502.321 187.315H502.192C500.178 187.229 497.863 187.186 494.862 188.215C493.49 188.687 491.56 189.888 489.888 191.346C488.088 192.932 487.102 194.433 487.059 194.734C487.059 194.734 493.49 195.162 496.319 194.005C499.149 192.804 501.164 191.56 503.35 188.558C503.65 188.13 503.864 187.786 503.993 187.572C503.736 187.486 503.264 187.443 502.321 187.401M505.322 174.192C502.836 174.15 500.478 175.136 497.52 176.68C496.148 177.409 494.433 178.995 493.104 180.796C491.646 182.769 489.546 186.672 489.931 186.929C491.603 188.001 499.106 184.699 501.549 182.855C504.122 180.925 506.008 179.424 507.337 175.865C507.509 175.35 507.637 174.664 507.466 174.45C507.294 174.192 505.322 174.15 505.322 174.15M505.536 161.671H505.408C504.122 162.185 502.707 162.7 501.249 163.472C500.392 163.943 499.835 164.244 499.192 164.844C498.934 165.058 498.677 165.273 498.42 165.487C497.305 166.473 496.019 168.403 495.162 170.376C494.218 172.563 493.19 176.808 493.447 177.023C493.447 177.023 501.464 172.692 503.65 170.462C505.879 168.189 506.865 166.002 507.294 162.357C507.38 161.842 507.38 161.413 507.38 161.156C507.08 161.156 506.522 161.327 505.579 161.671M504.422 143.874C504.165 144.003 503.779 144.174 503.307 144.474C499.92 146.661 498.334 148.677 497.091 151.893C495.848 155.024 496.576 162.4 497.477 163C497.863 163 499.449 162.056 501.121 160.127C502.664 158.326 503.95 156.181 504.379 154.638C505.322 151.207 505.022 148.462 504.765 146.018V145.847C504.636 144.774 504.508 144.174 504.422 143.874Z" fill="#D9D9D9"/>
<path d="M525 132.681H392.357V0H525V132.681ZM486.973 35.5932C475.355 32.5485 465.366 31.1333 455.549 31.1333C446.546 31.1333 437.329 32.3769 427.382 34.9499C422.538 36.1936 416.236 38.595 412.806 42.9691C430.512 50.9883 447.66 55.0622 463.823 55.0622C470.125 55.0622 476.213 54.419 481.915 53.2183C494.004 50.6024 501.764 45.971 504.765 43.8697C501.549 41.168 494.604 37.5658 486.973 35.5503M507.98 60.7657C507.937 55.4053 507.594 50.9883 506.908 47.6005C503.264 50.0449 495.29 54.5905 483.072 57.2493C476.984 58.5787 470.511 59.2648 463.78 59.2648H463.566C446.803 59.2648 429.012 55.0194 410.791 46.7429C410.405 47.9007 410.234 49.1443 410.234 50.388L410.062 55.7055C410.062 55.7055 410.405 55.7055 410.62 55.7055C412.806 55.7055 415.078 55.7055 417.05 56.6489C419.794 57.9354 421.338 60.3798 422.881 62.7384C424.124 64.711 425.325 66.555 427.125 67.7986C429.44 69.4282 432.098 70.2429 434.928 70.2429C438.829 70.2429 443.202 68.6563 447.275 65.7402C450.276 63.596 452.891 62.1809 456.02 62.1809C457.006 62.1809 457.992 62.3095 458.978 62.6097C462.151 63.5103 464.466 65.6544 466.695 67.6699C467.381 68.3132 468.067 68.9136 468.753 69.5139C471.325 71.6581 473.555 72.6873 475.612 72.6873C479.256 72.6873 482.043 69.3853 485.044 65.8688C486.159 64.5395 487.316 63.2101 488.517 61.9665C490.617 59.8652 492.547 59.0075 494.99 59.0075C495.548 59.0075 496.062 59.0504 496.662 59.1362C498.248 59.3506 499.706 60.0367 501.078 60.6371C501.978 61.0659 502.836 61.4519 503.736 61.7092C505.194 62.138 506.565 62.3953 507.894 62.3953C507.894 61.752 507.894 61.1946 507.894 60.7657M420.523 95.3726C432.227 100.433 447.36 101.462 457.992 101.462C469.825 101.462 482.172 100.133 490.96 97.9027C500.392 95.5013 505.751 90.4839 506.823 82.8935C506.994 81.7786 507.466 76.9756 507.766 71.0148C507.894 69.4282 507.937 67.3269 507.98 65.3971C505.794 65.2256 503.65 64.4537 501.549 63.7247C499.363 62.9099 497.305 62.1809 495.333 62.1809C493.618 62.1809 492.204 62.7384 490.832 63.9391C489.245 65.3114 488.045 66.9838 486.845 68.6134C484.615 71.6581 482.3 74.8315 477.542 75.7749C476.77 75.9464 476.041 75.9893 475.355 75.9893C471.368 75.9893 468.71 73.5878 465.966 71.0148C465.623 70.7147 465.323 70.4145 464.98 70.1143C462.408 67.7557 459.321 65.2685 455.763 65.2685C454.82 65.2685 453.877 65.44 452.934 65.7831C451.305 66.3834 449.933 67.4555 448.475 68.6134C447.189 69.6426 445.86 70.6718 444.317 71.3579C441.487 72.6444 438.443 73.3306 435.442 73.3306C433.341 73.3306 431.327 72.9875 429.483 72.3442C425.067 70.8433 423.181 68.0559 421.166 65.0969C420.18 63.6389 419.151 62.138 417.779 60.7228C415.721 58.5787 412.978 58.4071 410.105 58.1927V59.3935C409.848 61.5805 410.062 62.867 409.934 64.2822L409.548 76.7183V76.8899C409.548 76.8899 408.048 89.9693 420.566 95.3726" fill="#D9D9D9"/>
<path d="M299.712 106.48C297.654 108.238 296.068 110.768 295.168 112.097C295.168 112.054 294.868 112.355 294.739 112.655C294.696 112.783 294.653 112.955 294.61 113.084C294.482 113.555 294.61 114.027 294.91 114.456C295.125 114.842 295.596 115.099 296.025 115.185C296.411 115.271 297.054 115.185 297.354 114.885C298.297 114.027 299.155 113.169 299.926 112.14C300.698 111.154 301.341 110.082 301.941 108.924C302.413 108.023 301.941 106.994 301.127 106.522C300.741 106.308 300.098 106.179 299.755 106.437" fill="#D9D9D9"/>
<path d="M353.815 105.064C353.558 105.064 353.344 105.064 353.087 105.15C352.701 105.322 352.272 105.665 352.101 106.094C351.929 106.522 351.843 107.037 352.058 107.509C352.229 107.895 353.301 110.253 355.702 111.754C356.088 111.969 356.559 112.226 357.031 112.14C357.502 112.054 357.974 111.883 358.231 111.497C358.488 111.111 358.703 110.639 358.617 110.168C358.403 109.053 357.974 107.981 357.202 107.123C356.473 106.265 355.573 105.579 354.459 105.236C354.244 105.107 354.03 105.064 353.773 105.107" fill="#D9D9D9"/>
<path d="M361.532 101.162C364.147 105.15 367.491 109.567 366.634 114.67C365.862 119.087 361.875 121.617 357.545 120.76C352.572 119.73 349.443 115.013 346.442 111.368C341.169 105.064 333.237 95.8873 327.621 88.9831C321.319 97.3025 314.631 105.279 307.515 112.826C304.599 115.914 301.47 118.83 297.912 121.146C295.254 122.861 291.824 124.962 288.523 124.233C280.377 122.389 289.595 110.253 291.738 106.951C299.798 94.6008 310.087 84.0087 320.076 73.3307C320.076 72.6446 320.162 71.9155 320.205 71.2294C320.29 70.629 320.333 70.0287 320.462 69.4283C308.244 65.1829 297.569 57.1637 288.351 48.2439C284.879 44.8561 281.578 41.2539 278.534 37.4802C275.361 33.5778 272.189 28.9035 272.532 23.6718C272.832 18.8688 274.204 12.2219 279.477 10.7639C284.493 9.34872 290.366 9.30584 295.082 11.6215C304.771 16.3387 311.116 26.7165 315.403 36.1508C319.561 45.285 323.934 54.848 325.778 64.754C325.821 64.7969 325.864 64.8827 325.906 64.9256C326.421 64.9684 326.892 65.0971 327.364 65.2257C328.093 64.3681 328.865 63.5533 329.593 62.7385C328.307 61.5378 326.978 60.337 325.692 59.1363C324.792 58.3215 324.749 57.1637 325.606 56.306C333.109 48.8872 340.054 40.9109 346.399 32.42C349.528 28.2174 352.529 23.8862 355.316 19.4692C356.731 17.2393 358.103 15.0093 359.432 12.7365C360.461 10.9354 361.489 8.877 363.676 8.40529C367.877 7.50474 371.693 12.7794 373.879 15.7383C376.709 19.5978 378.809 24.1435 378.981 28.9893C379.367 39.024 371.821 47.3434 366.377 54.848C362.561 60.0797 358.746 65.3115 354.93 70.5862C353.601 72.3873 352.315 74.9174 349.786 74.8316C348.414 74.7887 347.128 73.9739 345.97 73.4165C344.513 72.7303 343.055 72.0013 341.64 71.2723C341.383 71.1436 341.211 71.2723 341.126 71.3581C340.868 71.6154 339.582 72.9447 339.154 73.5022C339.968 74.2741 340.483 74.8316 341.254 75.5606C345.156 79.3773 348.714 83.494 352.058 87.8253C355.402 92.1565 358.488 96.6592 361.489 101.205M281.792 15.0522C281.792 15.0522 281.792 15.1809 281.792 15.2666C281.792 15.4382 281.878 15.5668 281.878 15.7383C282.006 16.3816 282.178 16.982 282.349 17.5823C284.236 23.7146 288.523 28.6462 292.896 33.2348C298.297 38.8954 303.656 44.5988 308.929 50.3881C311.202 52.8753 313.517 55.3197 315.789 57.8498C311.888 52.7467 308.029 47.6436 304.299 42.4118C301.556 38.5952 298.855 34.6928 296.282 30.7475C294.139 27.4455 292.424 24.2292 289.637 21.4847C288.18 20.0267 286.636 18.6544 285.136 17.2393C284.15 16.3387 283.121 15.4382 281.792 15.0522ZM316.389 63.9392C311.845 58.3644 306.7 53.1755 301.856 47.9009C299.669 45.4994 297.483 43.1408 295.254 40.7822C290.709 35.9364 285.693 31.3479 282.178 25.6444C281.278 24.1435 278.791 19.6407 278.148 16.0385C277.033 17.8825 276.605 20.7986 276.347 22.5568C275.919 25.3871 276.476 27.4884 277.848 29.9327C282.092 37.6089 289.037 44.17 295.554 49.8735C301.856 55.4054 308.801 60.4228 316.432 63.9392M320.462 57.8927C318.275 50.774 315.017 43.8698 312.016 37.2658C308.115 28.6891 302.242 19.1261 293.453 14.8378C291.352 13.8086 289.252 13.4226 286.937 13.5084C286.808 13.5084 286.679 13.5084 286.551 13.5084C288.651 15.138 290.538 17.2393 291.952 18.6544C294.953 21.5705 296.84 24.8725 299.112 28.3889C301.941 32.763 304.942 37.0514 307.986 41.2968C312.016 46.9145 316.218 52.4465 320.462 57.9356M355.187 49.7448C357.331 47.2147 361.275 43.7841 361.532 40.2247C361.618 38.9811 361.146 37.2229 359.775 36.8798C358.017 36.4081 355.402 38.5094 354.073 39.4957C348.585 43.5696 344.855 49.5304 340.74 54.9337C337.61 59.0505 334.266 62.9529 330.837 66.8124C332.723 67.9274 334.566 69.3425 336.281 70.8435C336.281 71.3152 338.21 68.8279 340.354 66.4265C345.413 61.0232 350.386 55.4483 355.187 49.7448ZM331.994 60.0797C334.395 57.2494 336.753 54.3334 339.025 51.3315C343.698 45.0706 348.242 38.295 355.23 34.5641C358.574 32.763 362.561 32.7202 364.405 36.6654C366.205 40.5678 364.105 44.4273 361.747 47.4291C356.045 54.6335 349.829 61.4949 343.569 68.2276C345.241 69.1281 347.085 70.3717 348.842 70.7577C350.343 71.1436 350.9 70.3717 351.758 69.1281L354.373 65.5688C357.331 61.5378 360.246 57.4639 363.204 53.4328C368.006 46.8288 374.951 39.4957 375.637 30.8762C375.98 26.4592 374.222 22.1708 371.779 18.6115C370.535 16.8104 369.121 15.0951 367.577 13.5942C366.72 12.7794 365.819 11.836 364.662 12.179C363.504 12.5221 363.076 13.8515 362.476 14.8807C357.931 22.5997 352.958 29.9756 347.513 37.0514C341.94 44.2987 335.853 51.16 329.465 57.6354C330.365 58.4502 331.222 59.265 332.123 60.0797M325.306 86.067C323.291 83.494 321.791 81.4356 321.233 80.3207C320.891 79.5917 320.676 78.8198 320.462 78.0479C320.405 77.7906 320.405 77.7906 320.462 78.0479C313.174 85.8098 305.928 93.5287 299.498 102.063C297.397 104.85 295.425 107.68 293.582 110.639C292.681 112.054 291.824 113.512 291.009 114.97C290.538 115.828 288.008 119.387 288.694 120.46C290.023 122.604 296.54 117.886 297.569 117.157C300.57 114.97 303.27 112.355 305.8 109.61C312.702 102.148 319.133 94.2578 325.306 86.1099V86.067ZM363.119 112.183C362.647 108.109 359.174 104.164 356.988 100.862C354.63 97.3025 352.144 93.7861 349.528 90.3554C345.67 85.2952 341.469 80.5351 336.753 76.2468C335.895 75.4749 334.952 74.7458 334.052 73.9739C333.237 73.2878 332.423 72.5588 331.523 71.8727C330.494 71.1008 329.422 70.2002 328.264 69.557C327.707 69.2139 327.107 68.9137 326.464 68.6993C324.149 68.0132 323.977 69.7285 323.72 71.6582C323.591 72.6874 323.506 73.6738 323.549 74.6601C323.591 77.0187 324.32 79.463 327.021 82.5935C327.15 82.765 327.278 82.8937 327.407 83.0652C328.179 84.0087 329.079 85.0378 329.851 85.9813C335.209 92.3709 340.568 98.8034 345.927 105.193C347.642 107.251 349.4 109.353 351.115 111.411C352.487 113.084 353.901 114.885 355.745 116.085C359.303 118.444 363.59 116.772 363.033 112.14" fill="#D9D9D9"/>
<path d="M251.353 57.7212C250.625 61.1947 248.867 63.8106 247.324 71.4867C246.68 74.703 246.123 78.391 245.694 81.6501C245.437 83.4941 244.28 85.5954 241.536 87.4822C233.39 93.0571 230.261 95.2012 219.715 98.3746C205.567 102.62 190.391 102.534 176.029 99.704C163.725 97.2596 152.321 93.0999 141.518 83.88C134.572 77.9621 134.701 77.5762 135.816 66.5551C136.159 63.1674 136.33 59.7367 136.416 56.306C136.416 55.2339 135.859 54.1619 135.43 53.1755C133.972 49.6162 134.701 46.014 137.188 43.1837C140.446 39.4957 144.904 37.3945 149.449 35.8507C159.481 32.42 174.786 31.2193 181.945 31.0048C198.065 30.5331 214.056 33.0204 229.446 38.0806C235.277 40.0103 241.021 42.4118 245.823 46.4429C249.124 49.1874 252.425 53.0469 251.396 57.7641M225.888 90.0552C224.045 90.9129 222.844 91.4275 221.558 92.2423C220.4 92.9713 219.2 94.172 218.128 94.9868C216.842 95.9731 215.299 95.5443 215.127 93.9147C215.084 93.3144 215.213 92.4996 215.299 91.9421C215.813 88.9403 216.028 88.0397 216.628 85.0808C216.628 83.0652 222.201 84.4804 224.73 81.5214C225.588 80.0634 221.001 78.2623 218.343 78.3481C213.37 78.5196 210.583 80.6209 209.211 85.3381C208.739 86.9247 208.525 87.8253 208.182 89.412C207.325 92.8855 210.754 98.6748 217.185 96.4877C219.029 96.016 220.829 95.3299 222.63 94.7724C224.73 94.0863 225.331 92.3709 225.931 90.0123M220.658 85.3809C219.5 85.4238 218.814 85.5954 218.728 86.5817C218.257 88.5543 218.043 90.2696 217.657 92.2852C222.458 89.1118 227.431 86.5817 232.833 84.8663C234.891 84.2231 236.477 82.9795 237.335 81.0068C238.235 78.9484 237.335 77.5762 235.105 77.6191C232.319 77.6191 230.347 78.9913 228.632 81.2213C226.531 83.9658 224.044 84.8663 220.658 85.4238M245.437 65.9977C244.666 65.6546 243.508 66.5123 242.222 67.1555C233.905 71.2723 224.473 72.859 215.385 73.6309C197.636 75.1747 180.016 73.8882 162.739 69.2997C156.137 67.5415 149.62 65.6546 144.09 61.6236C140.789 59.2221 140.103 57.9356 139.031 58.3215C138.474 58.4931 138.474 60.4228 138.474 60.8088C138.216 65.7404 138.088 67.4986 137.788 72.6446C137.745 76.3754 138.559 77.7048 140.317 79.2486C141.989 80.7067 154.636 92.4138 174.786 96.5735C185.718 98.8463 196.564 100.004 207.582 98.5033C208.096 98.4175 208.782 98.3317 209.254 98.246C209.683 98.2031 209.64 97.9458 209.511 97.8171C208.654 96.8737 207.796 95.9303 206.896 94.9439C206.725 94.7724 206.467 94.558 205.61 95.287C202.78 97.3454 197.85 96.1876 197.379 93.0571C196.65 88.683 196.864 84.3946 198.965 80.4494C200.165 78.2623 203.209 76.8043 205.438 77.5762C206.253 77.8335 207.153 78.2194 207.925 78.8198C208.354 79.1629 208.954 80.578 210.454 78.5196C212.426 77.0616 214.827 76.2039 217.442 75.9037C220.958 75.5178 224.345 76.7185 226.745 79.3773C228.975 76.89 231.247 75.7751 234.419 75.432C236.306 75.2605 238.02 75.6464 239.135 77.3189C240.207 78.9913 239.907 80.7495 239.049 82.422C237.463 85.4238 234.805 86.7961 231.633 87.5251C228.203 88.3399 227.86 88.8545 227.56 92.714C228.203 92.4567 228.846 92.2852 229.361 91.9421C232.962 89.7979 235.834 88.5114 239.178 86.1528C241.15 84.7806 243.122 82.036 243.465 79.4202C244.108 74.5315 246.68 66.6838 245.394 66.0405M204.71 79.6346C202.695 79.3773 201.494 80.578 200.765 82.2505C199.651 84.6519 199.351 90.141 199.436 90.527C199.436 92.0708 199.908 93.7003 201.623 93.9576C203.081 94.172 204.624 93.6145 205.353 91.4275C205.781 90.141 206.21 88.8116 206.553 87.4822C206.939 85.8955 207.496 84.266 207.453 82.6793C207.453 81.2213 206.424 79.9348 204.752 79.7203M144.947 59.3936C152.15 64.025 159.824 66.1263 168.055 68.0561C176.115 69.9429 184.26 70.9292 192.534 71.401C204.195 72.0871 215.685 71.4867 227.131 69.0853C230.904 68.2705 232.704 67.8417 236.691 66.6838C239.178 65.9119 239.049 65.6117 237.635 63.8964C232.876 59.0934 230.732 58.0214 225.802 55.4912C216.156 51.16 205.996 49.2303 195.492 48.5441C182.417 47.6865 169.598 48.6728 157.037 52.5752C152.364 53.8617 149.02 55.3626 144.69 57.3781C143.147 58.1071 143.147 58.4073 144.904 59.4365M246.638 50.7741C246.08 50.1308 245.523 49.4876 244.88 48.9301C239.778 44.5131 233.691 42.0259 227.388 40.0103C217.442 36.7512 207.153 35.1645 196.736 34.3069C184.646 33.3205 172.599 33.5778 160.681 35.7649C153.907 37.0085 147.262 38.7238 141.518 42.7978C136.287 46.5286 136.116 50.3881 139.288 54.5907C140.66 56.306 141.818 56.4347 143.018 55.9201C147.648 53.8617 152.321 51.6746 157.123 50.1737C168.226 46.7001 179.673 45.8854 191.291 46.2713C202.48 46.6573 213.327 47.9009 223.787 52.0606C229.575 54.3334 235.148 57.5496 239.521 62.3526C240.207 63.1245 241.579 64.2394 242.651 64.1537C244.794 64.025 245.351 63.8106 246.552 62.4383C249.639 58.8361 249.767 54.5907 246.68 50.817" fill="#D9D9D9"/>
<path d="M362.347 246.365C356.559 248.338 307.686 255.199 305.5 255.199C293.196 255.328 294.139 250.182 291.138 217.976C286.293 166.045 283.25 165.573 286.251 162.828C291.695 157.854 327.021 145.589 333.752 143.188C338.125 141.644 337.867 143.059 339.239 159.655C361.404 157.425 349.528 149.106 364.919 226.982C366.248 233.672 368.906 244.092 362.39 246.322M335.981 160.169C335.724 155.452 335.51 150.907 334.395 146.49C333.923 146.447 333.623 146.618 333.323 146.704C272.06 168.703 277.248 167.931 335.938 160.127M362.947 233.543C361.575 226.167 350.772 161.885 350.772 161.842C347.814 160.984 312.702 167.974 288.308 167.888C288.266 169.775 289.895 174.107 290.966 183.498C297.869 243.964 294.825 251.125 302.585 251.854C310.216 252.54 355.873 244.735 357.888 244.264C361.061 243.535 364.919 243.878 362.99 233.586" fill="#D9D9D9"/>
<path d="M330.794 192.375C325.906 193.79 325.863 201.38 324.02 199.794C320.976 197.135 315.446 193.49 310.516 198.593C307.086 202.152 308.158 207.255 314.203 213.173C316.903 215.617 318.833 216.99 324.62 219.391C324.92 219.606 331.308 221.535 334.18 218.233C344.598 206.398 341.34 189.244 330.794 192.332" fill="#D9D9D9"/>
<path d="M500.735 387.58C504.636 389.51 509.824 385.307 510.038 384.964C514.497 380.504 515.74 378.531 517.283 375.229C520.627 367.468 519.641 362.321 515.14 360.349C508.623 357.519 504.936 363.008 503.093 366.61C501.978 368.797 499.063 361.764 494.004 362.321C483.072 363.522 486.588 380.59 500.735 387.58Z" fill="#D9D9D9"/>
<path d="M500.735 345.254C504.636 347.184 509.824 342.981 510.038 342.638C514.497 338.178 515.74 336.206 517.283 332.904C520.627 325.142 519.641 319.996 515.14 318.023C508.623 315.193 504.936 320.682 503.093 324.284C501.978 326.471 499.063 319.438 494.004 319.996C483.072 321.197 486.588 338.264 500.735 345.254Z" fill="#D9D9D9"/>
<path d="M500.735 303.228C504.636 305.158 509.824 300.955 510.038 300.612C514.497 296.152 515.74 294.18 517.283 290.878C520.627 283.116 519.641 277.97 515.14 275.997C508.623 273.167 504.936 278.656 503.093 282.258C501.978 284.445 499.063 277.412 494.004 277.97C483.072 279.171 486.588 296.238 500.735 303.228Z" fill="#D9D9D9"/>
<path d="M456.02 387.58C459.922 389.51 465.109 385.307 465.323 384.964C469.782 380.504 471.025 378.531 472.569 375.229C475.913 367.468 474.927 362.321 470.425 360.349C463.909 357.519 460.222 363.008 458.378 366.61C457.264 368.797 454.348 361.764 449.29 362.321C438.358 363.522 441.873 380.59 456.02 387.58Z" fill="#D9D9D9"/>
<path d="M456.02 345.254C459.922 347.184 465.109 342.981 465.323 342.638C469.782 338.178 471.025 336.206 472.569 332.904C475.913 325.142 474.927 319.996 470.425 318.023C463.909 315.193 460.222 320.682 458.378 324.284C457.264 326.471 454.348 319.438 449.29 319.996C438.358 321.197 441.873 338.264 456.02 345.254Z" fill="#D9D9D9"/>
<path d="M456.02 303.228C459.922 305.158 465.109 300.955 465.323 300.612C469.782 296.152 471.025 294.18 472.569 290.878C475.913 283.116 474.927 277.97 470.425 275.997C463.909 273.167 460.222 278.656 458.378 282.258C457.264 284.445 454.348 277.412 449.29 277.97C438.358 279.171 441.873 296.238 456.02 303.228Z" fill="#D9D9D9"/>
<path d="M411.263 387.58C415.164 389.51 420.352 385.307 420.566 384.964C425.024 380.504 426.268 378.531 427.811 375.229C431.155 367.468 430.169 362.321 425.668 360.349C419.151 357.519 415.464 363.008 413.621 366.61C412.506 368.797 409.591 361.764 404.532 362.321C393.6 363.522 397.115 380.59 411.263 387.58Z" fill="#D9D9D9"/>
<path d="M411.263 345.254C415.164 347.184 420.352 342.981 420.566 342.638C425.024 338.178 426.268 336.206 427.811 332.904C431.155 325.142 430.169 319.996 425.668 318.023C419.151 315.193 415.464 320.682 413.621 324.284C412.506 326.471 409.591 319.438 404.532 319.996C393.6 321.197 397.115 338.264 411.263 345.254Z" fill="#D9D9D9"/>
<path d="M411.263 303.228C415.164 305.158 420.352 300.955 420.566 300.612C425.024 296.152 426.268 294.18 427.811 290.878C431.155 283.116 430.169 277.97 425.668 275.997C419.151 273.167 415.464 278.656 413.621 282.258C412.506 284.445 409.591 277.412 404.532 277.97C393.6 279.171 397.115 296.238 411.263 303.228Z" fill="#D9D9D9"/>
<path d="M198.536 234.315C198.536 232.943 198.622 230.927 198.708 228.354C198.365 228.354 197.979 228.268 197.464 228.183C197.036 228.14 196.35 228.183 195.964 227.797C195.664 227.496 195.621 226.939 196.307 226.639C196.864 226.381 198.065 226.381 198.751 226.339C198.793 224.495 198.879 222.522 198.922 220.378C198.622 220.378 198.236 220.292 197.765 220.249C197.336 220.206 196.65 220.249 196.264 219.863C195.964 219.563 195.921 219.006 196.607 218.705C197.121 218.448 198.279 218.448 198.965 218.405C199.008 216.475 199.094 214.46 199.179 212.444C198.879 212.444 198.536 212.359 198.108 212.316C197.679 212.273 196.993 212.316 196.607 211.93C196.307 211.63 196.264 211.072 196.95 210.772C197.464 210.558 198.536 210.515 199.222 210.472C199.308 208.499 199.351 206.484 199.437 204.468C199.136 204.468 198.836 204.382 198.45 204.339C198.022 204.297 197.336 204.339 196.95 203.954C196.65 203.653 196.607 203.096 197.293 202.796C197.807 202.581 198.836 202.538 199.479 202.495C199.565 200.437 199.608 198.422 199.694 196.492C199.437 196.492 199.136 196.406 198.751 196.363C198.322 196.32 197.636 196.363 197.25 195.977C196.95 195.677 196.907 195.12 197.593 194.819C198.065 194.605 199.051 194.562 199.737 194.519C199.822 192.375 199.865 190.359 199.951 188.515C199.694 188.515 199.394 188.43 199.051 188.387C198.622 188.344 197.936 188.387 197.55 188.001C197.25 187.701 197.207 187.143 197.893 186.843C198.365 186.629 199.308 186.586 199.994 186.543C200.08 183.97 200.165 181.911 200.208 180.539C199.951 180.539 199.694 180.453 199.351 180.411C198.922 180.368 198.236 180.411 197.85 180.025C197.55 179.724 197.507 179.167 198.193 178.867C198.665 178.652 199.608 178.609 200.294 178.567C200.294 178.052 200.294 177.323 200.851 176.894C201.366 176.508 201.666 177.066 201.794 177.237C202.095 177.666 202.266 178.138 202.352 178.609C202.652 178.609 202.909 178.652 203.295 178.695C203.724 178.738 205.01 178.695 205.438 179.081C205.739 179.381 205.91 179.939 205.095 180.239C204.495 180.453 203.166 180.496 202.566 180.539C202.566 181.654 202.48 183.798 202.438 186.543C202.609 186.543 202.78 186.543 202.995 186.586C203.424 186.629 204.71 186.586 205.138 186.972C205.438 187.272 205.61 187.829 204.795 188.13C204.238 188.344 203.038 188.387 202.395 188.43C202.352 190.274 202.266 192.289 202.223 194.476C202.395 194.476 202.523 194.476 202.695 194.519C203.123 194.562 204.41 194.519 204.838 194.905C205.138 195.205 205.31 195.763 204.495 196.063C203.938 196.234 202.866 196.32 202.18 196.363C202.137 198.293 202.052 200.351 202.009 202.41C202.137 202.41 202.223 202.41 202.395 202.41C202.823 202.453 204.109 202.41 204.538 202.796C204.838 203.096 205.01 203.653 204.195 203.954C203.681 204.125 202.652 204.211 202.009 204.254C201.966 206.269 201.88 208.285 201.837 210.3C201.923 210.3 202.009 210.3 202.137 210.3C202.566 210.343 203.852 210.3 204.281 210.686C204.581 210.986 204.753 211.544 203.938 211.844C203.466 212.016 202.48 212.101 201.794 212.144C201.709 214.203 201.666 216.261 201.58 218.234C201.666 218.234 201.709 218.234 201.794 218.234C202.223 218.277 203.509 218.234 203.938 218.62C204.238 218.92 204.41 219.477 203.595 219.777C203.123 219.949 202.223 219.992 201.537 220.078C201.451 222.265 201.409 224.28 201.323 226.167C201.366 226.167 201.409 226.167 201.494 226.167C201.923 226.21 203.209 226.167 203.638 226.553C203.938 226.853 204.109 227.411 203.295 227.711C202.823 227.882 201.966 227.925 201.28 228.011C201.194 230.498 201.108 232.6 201.023 234.101C201.066 234.101 201.108 234.101 201.194 234.101C201.623 234.143 202.909 234.101 203.338 234.486C203.638 234.787 203.809 235.344 202.995 235.644C202.523 235.816 201.623 235.859 200.98 235.944C200.98 236.245 200.98 236.459 200.937 236.588C200.851 237.102 200.937 237.917 200.337 238.432C199.822 238.818 199.522 238.26 199.394 238.089C198.922 237.445 198.793 236.674 198.708 235.987C198.322 235.987 197.893 235.902 197.293 235.816C196.864 235.773 196.178 235.816 195.792 235.43C195.492 235.13 195.45 234.572 196.135 234.272C196.736 234.015 198.065 234.015 198.665 233.972" fill="#D9D9D9"/>
<path d="M259.456 265.319H126.813V132.638H259.456V265.319ZM211.269 155.667C198.236 152.493 181.473 153.351 177.058 154.209C169.812 155.581 162.224 156.696 153.907 160.684C153.007 161.113 148.634 163.514 157.337 165.272C176.586 169.904 193.563 169.732 214.098 163.9C219.157 161.885 219.2 157.811 211.312 155.667M223.016 162.442C224.73 164.886 225.674 169.303 226.488 182.426C226.745 185.042 227.86 190.745 227.86 190.745C227.946 191.26 228.289 192.075 229.232 192.075C229.403 192.075 234.334 192.375 234.334 190.016C234.334 190.016 234.419 186.071 234.462 184.999C234.548 182.855 235.02 166.816 235.02 166.816C235.105 164.072 235.191 161.198 235.105 158.411C235.105 157.21 234.891 157.253 233.262 158.411C231.032 159.998 229.103 160.512 226.017 161.027C224.345 161.327 221.687 160.555 223.016 162.442ZM221.558 159.355C226.531 160.684 233.905 157.21 233.519 155.881C229.661 152.793 218 154.637 217.914 156.824C217.571 157.939 219.586 159.44 221.601 159.355M153.993 169.475C156.951 172.648 157.723 175.907 158.795 180.324C161.153 189.802 163.082 225.867 163.296 229.254C163.553 233.114 165.182 236.287 168.098 238.603C174.4 243.535 182.717 246.236 199.136 243.535C207.711 242.119 211.355 237.488 212.298 229.083C212.898 224.023 214.784 203.096 214.999 200.222C215.299 196.148 217.142 175.522 218.085 167.845C218.3 165.101 219.8 163.643 215.47 165.787C189.49 175.522 161.624 169.689 154.936 167.159C153.35 166.688 147.734 162.785 153.95 169.475" fill="#D9D9D9"/>
</g>
<defs>
<clipPath id="clip0_75_657">
<rect width="525" height="514" fill="white" transform="matrix(-1 0 0 1 525 0)"/>
</clipPath>
</defs>
</svg>
