<svg width="42" height="42" viewBox="0 0 42 42" fill="none" xmlns="http://www.w3.org/2000/svg">
<path fill-rule="evenodd" clip-rule="evenodd" d="M20.9141 0C32.4638 0.000311316 41.8271 9.36329 41.8271 20.9131C41.8271 32.4629 32.4638 41.8259 20.9141 41.8262C9.36404 41.8262 0 32.4631 0 20.9131C4.74206e-05 9.3631 9.36407 0 20.9141 0ZM20.9141 3.29297C11.183 3.29297 3.29399 11.182 3.29395 20.9131C3.29395 30.6442 11.1829 38.5332 20.9141 38.5332C30.6449 38.5329 38.5342 30.644 38.5342 20.9131C38.5341 11.1822 30.6449 3.29328 20.9141 3.29297ZM15.8945 10.8066C16.4803 10.2211 17.4299 10.2209 18.0156 10.8066L27.5615 20.3525C28.147 20.9383 28.147 21.8879 27.5615 22.4736L18.0156 32.0195C17.4299 32.6052 16.4803 32.6051 15.8945 32.0195C15.3087 31.4337 15.3087 30.4842 15.8945 29.8984L24.3799 21.4131L15.8945 12.9277C15.3087 12.3419 15.3087 11.3924 15.8945 10.8066Z" fill="#A8A8A8"/>
</svg>
