<svg width="27" height="27" viewBox="0 0 27 27" fill="none" xmlns="http://www.w3.org/2000/svg">
<path d="M15.2371 12.6849L12.0291 11.1067C11.6586 10.925 11.2234 11.1896 11.2234 11.5967V14.7531C11.2234 15.1602 11.6593 15.4248 12.0291 15.2424L15.2371 13.6643C15.6467 13.462 15.6467 12.8864 15.2371 12.6849Z" fill="#FFAC06"/>
<path d="M13.3845 0C5.9923 0 0 5.89826 0 13.1744C0 20.4506 5.9923 26.3489 13.3845 26.3489C20.7767 26.3489 26.7689 20.4506 26.7689 13.1744C26.7689 5.89826 20.7767 0 13.3845 0ZM21.2159 16.7253C21.2159 17.8473 20.2916 18.7564 19.1524 18.7564H7.61652C6.47667 18.7564 5.55239 17.8473 5.55239 16.7253V9.62354C5.55239 8.50224 6.47667 7.59247 7.61652 7.59247H19.1524C20.2916 7.59247 21.2159 8.50224 21.2159 9.62354V16.7253Z" fill="#FFAC06"/>
</svg>
